<svg width="328" height="283" viewBox="0 0 328 283" fill="none" xmlns="http://www.w3.org/2000/svg">
<path d="M326.241 47.6996L327.311 44.9369C327.42 44.6549 327.389 44.3379 327.227 44.082L323.472 37.7719L325.927 33.6682C326.201 33.2107 326.052 32.6175 325.595 32.3434L323.253 30.9384C322.796 30.6643 322.204 30.8137 321.93 31.2712L320.764 33.2211L319.078 30.3881L321.634 26.1148C321.908 25.6573 321.759 25.0639 321.302 24.79L318.961 23.3855C318.504 23.1115 317.911 23.2603 317.638 23.7178L316.37 25.8373L312.589 19.4839C314.617 16.5308 316.204 14.1849 316.771 13.268C319.58 8.72227 319.209 1.79076 317.619 1.12074C316.279 0.0331458 310.001 2.97675 307.324 7.60157C306.784 8.53513 305.468 11.0431 303.824 14.2268L296.446 13.8869L297.714 11.7673C297.988 11.3098 297.84 10.7169 297.383 10.443L295.041 9.03804C294.584 8.76395 293.991 8.9128 293.718 9.37028L291.161 13.6435L287.872 13.4924L289.039 11.5424C289.312 11.0849 289.164 10.4915 288.707 10.2176L286.364 8.81262C285.908 8.53853 285.315 8.68738 285.041 9.14485L282.587 13.2485L275.259 12.9113C274.957 12.8887 274.663 13.0113 274.466 13.2405L272.539 15.4883C272.098 16.003 272.319 16.8009 272.962 17.0137L298.32 24.9863C295.527 30.4754 293.009 35.4595 292.293 36.8682C291.467 38.4966 290.776 39.9775 290.191 41.3207L281.079 41.9904C280.855 41.9848 280.642 42.0793 280.495 42.2486L279.548 43.3455C279.198 43.7503 279.374 44.381 279.883 44.5461L288.101 46.7864C287.486 48.7097 287.28 49.8259 287.264 50.0376C287.229 50.4958 287.281 51.066 287.62 51.2697C287.96 51.4735 288.486 51.2501 288.873 51.003C289.052 50.8892 289.938 50.1802 291.341 48.7297L297.191 54.9277C297.576 55.2991 298.215 55.1567 298.406 54.6572L298.925 53.3034C299.005 53.0943 298.987 52.861 298.877 52.6661L295.167 44.3057C296.073 43.1549 297.051 41.846 298.095 40.3485C298.998 39.0522 302.197 34.4771 305.713 29.4213L324.698 48.0461C325.189 48.5129 325.996 48.3315 326.241 47.6996Z" fill="#EFF4FA" fill-opacity="0.6"/>
<path d="M0.565796 217.806C0.444122 218.098 0.161667 218.274 -0.135635 218.274C-0.233185 218.274 -0.332336 218.255 -0.427917 218.215C-2.13937 217.5 -3.66931 216.865 -5.10507 216.273C-5.49297 216.113 -5.67805 215.668 -5.51833 215.28C-5.35878 214.891 -4.91496 214.706 -4.52672 214.866C-3.08864 215.459 -1.55658 216.095 0.157196 216.811C0.54454 216.973 0.72731 217.418 0.565796 217.806ZM-9.22404 212.949C-10.8919 212.276 -12.4347 211.662 -13.9405 211.073C-14.3311 210.919 -14.7718 211.113 -14.9246 211.504C-15.0773 211.896 -14.8844 212.337 -14.4937 212.49C-12.9927 213.077 -11.4547 213.689 -9.79185 214.36C-9.69876 214.397 -9.60265 214.415 -9.50812 214.415C-9.20724 214.415 -8.92264 214.235 -8.8033 213.939C-8.64661 213.549 -8.83492 213.106 -9.22404 212.949ZM-78.365 201.71C-79.9787 202.155 -81.6237 202.67 -83.2537 203.24C-83.6498 203.379 -83.8587 203.813 -83.7202 204.21C-83.6108 204.523 -83.3171 204.72 -83.003 204.72C-82.9199 204.72 -82.8354 204.706 -82.7523 204.677C-81.1544 204.118 -79.5426 203.613 -77.9614 203.177C-77.5569 203.065 -77.3193 202.647 -77.4308 202.242C-77.5421 201.837 -77.9598 201.599 -78.365 201.71ZM9.50398 220.738L4.83273 218.772C4.44592 218.609 4.0005 218.791 3.83809 219.179C3.67569 219.566 3.85756 220.012 4.24419 220.174L8.9156 222.14C9.01173 222.181 9.11143 222.2 9.20952 222.2C9.50629 222.2 9.78822 222.025 9.91025 221.733C10.0727 221.346 9.89079 220.9 9.50398 220.738ZM18.8405 224.638C17.2803 223.993 15.7251 223.346 14.1759 222.698C13.7889 222.536 13.3439 222.719 13.1822 223.107C13.0205 223.494 13.2033 223.94 13.5904 224.102C15.1416 224.751 16.6985 225.399 18.2608 226.045C18.3557 226.084 18.4537 226.102 18.5504 226.102C18.8488 226.102 19.132 225.925 19.2529 225.631C19.413 225.243 19.2283 224.798 18.8405 224.638ZM-68.3182 199.738C-69.9863 199.93 -71.6889 200.196 -73.3795 200.53C-73.7911 200.611 -74.0592 201.011 -73.978 201.423C-73.9067 201.786 -73.5891 202.037 -73.2335 202.037C-73.1848 202.037 -73.1354 202.032 -73.0858 202.022C-71.4352 201.697 -69.7729 201.437 -68.1453 201.25C-67.7285 201.202 -67.4292 200.825 -67.4771 200.407C-67.5246 199.99 -67.9007 199.691 -68.3182 199.738ZM28.2086 228.437C26.7015 227.84 25.1668 227.224 23.5168 226.555C23.128 226.397 22.6849 226.584 22.5273 226.974C22.3698 227.363 22.5572 227.807 22.946 227.965C24.5999 228.636 26.1385 229.253 27.6495 229.852C27.7414 229.889 27.8357 229.906 27.9288 229.906C28.2313 229.906 28.5173 229.723 28.6354 229.425C28.7898 229.034 28.5986 228.592 28.2086 228.437ZM37.6513 232.063C36.1181 231.496 34.5261 230.895 32.9189 230.277C32.5269 230.127 32.0878 230.323 31.9375 230.715C31.7871 231.107 31.9827 231.547 32.3744 231.698C33.9872 232.317 35.5854 232.921 37.1244 233.49C37.2112 233.523 37.3002 233.538 37.3878 233.538C37.6967 233.538 37.987 233.348 38.1005 233.041C38.2459 232.647 38.0447 232.209 37.6513 232.063ZM-58.081 199.453C-59.8226 199.36 -61.5459 199.334 -63.201 199.378C-63.6205 199.389 -63.9518 199.738 -63.9409 200.158C-63.9302 200.578 -63.5782 200.91 -63.1619 200.899C-61.5464 200.857 -59.8639 200.882 -58.1619 200.973C-58.1482 200.973 -58.1346 200.974 -58.1208 200.974C-57.7199 200.974 -57.3845 200.659 -57.3629 200.254C-57.3404 199.834 -57.662 199.476 -58.081 199.453ZM-47.9409 200.661C-49.6574 200.355 -51.3558 200.099 -52.9892 199.902C-53.4063 199.85 -53.7842 200.149 -53.8346 200.566C-53.885 200.983 -53.5881 201.362 -53.1716 201.412C-51.5663 201.606 -49.8961 201.857 -48.2077 202.159C-48.1627 202.167 -48.1178 202.171 -48.0735 202.171C-47.7124 202.171 -47.3921 201.912 -47.3265 201.543C-47.2527 201.13 -47.5279 200.735 -47.9409 200.661ZM-37.999 202.905C-39.6824 202.453 -41.346 202.04 -42.9436 201.678C-43.3522 201.584 -43.7596 201.841 -43.8525 202.251C-43.9454 202.661 -43.6889 203.068 -43.2797 203.161C-41.7012 203.52 -40.0567 203.928 -38.3925 204.375C-38.3265 204.393 -38.2604 204.401 -38.1952 204.401C-37.8598 204.401 -37.5529 204.177 -37.462 203.837C-37.3533 203.431 -37.5938 203.014 -37.999 202.905ZM-28.2578 205.848C-29.9099 205.3 -31.5408 204.781 -33.1053 204.306C-33.5063 204.184 -33.931 204.412 -34.0526 204.814C-34.1741 205.216 -33.9472 205.641 -33.5456 205.763C-31.9939 206.233 -30.3759 206.748 -28.7364 207.292C-28.6571 207.319 -28.5763 207.331 -28.497 207.331C-28.1786 207.331 -27.882 207.129 -27.7761 206.81C-27.6439 206.411 -27.8595 205.981 -28.2578 205.848ZM-18.6812 209.253C-20.3223 208.636 -21.9274 208.048 -23.4518 207.504C-23.8472 207.363 -24.2815 207.57 -24.4221 207.966C-24.5628 208.362 -24.3564 208.797 -23.961 208.938C-22.4448 209.478 -20.8481 210.063 -19.2151 210.677C-19.127 210.71 -19.037 210.726 -18.9482 210.726C-18.6407 210.726 -18.3512 210.537 -18.2369 210.232C-18.0895 209.839 -18.2885 209.4 -18.6812 209.253ZM70.631 153.779C69.5304 152.533 68.4829 151.223 67.5169 149.884C67.2712 149.544 66.7961 149.467 66.4561 149.713C66.1161 149.959 66.0395 150.435 66.2853 150.775C67.2803 152.154 68.3594 153.504 69.4929 154.787C69.6432 154.957 69.8522 155.044 70.0623 155.044C70.2412 155.044 70.4209 154.981 70.5653 154.853C70.8795 154.574 70.9088 154.093 70.631 153.779ZM76.5244 243.078C74.8997 242.798 73.2299 242.482 71.561 242.138C71.1522 242.054 70.7484 242.319 70.6639 242.731C70.5794 243.142 70.8442 243.544 71.2553 243.629C72.9399 243.976 74.626 244.295 76.2665 244.578C76.3101 244.585 76.3535 244.589 76.3964 244.589C76.7593 244.589 77.0805 244.327 77.1443 243.957C77.2152 243.543 76.9378 243.149 76.5244 243.078ZM90.1898 71.0578C91.7031 70.395 93.2701 69.7754 94.8473 69.216C95.2429 69.0757 95.45 68.6411 95.3099 68.245C95.17 67.8491 94.7358 67.6412 94.3401 67.782C92.7285 68.3534 91.1275 68.9866 89.5807 69.6641C89.1964 69.8325 89.021 70.281 89.1893 70.6659C89.314 70.9516 89.5931 71.1219 89.8856 71.1219C89.9874 71.1217 90.0909 71.1011 90.1898 71.0578ZM86.5182 244.438C84.8759 244.277 83.1918 244.079 81.5124 243.85C81.0962 243.794 80.7135 244.085 80.6571 244.501C80.6004 244.917 80.8915 245.301 81.3072 245.358C83.0055 245.59 84.7089 245.79 86.3703 245.953C86.3955 245.955 86.4203 245.956 86.4452 245.956C86.8313 245.956 87.162 245.663 87.2004 245.27C87.2413 244.852 86.9358 244.479 86.5182 244.438ZM81.3557 75.7515C82.7484 74.8665 84.2038 74.0202 85.6821 73.2357C86.0526 73.0391 86.194 72.5786 85.9976 72.2075C85.8013 71.8365 85.3417 71.6948 84.9706 71.8914C83.4577 72.6942 81.9674 73.5608 80.5417 74.4668C80.1875 74.692 80.0825 75.162 80.3073 75.5168C80.452 75.7451 80.698 75.87 80.9494 75.87C81.0886 75.87 81.2295 75.8317 81.3557 75.7515ZM77.9108 160.586C76.5881 159.559 75.3094 158.471 74.1104 157.352C73.8034 157.065 73.3228 157.082 73.0366 157.389C72.7505 157.697 72.7673 158.178 73.0743 158.465C74.3069 159.616 75.6212 160.734 76.9801 161.788C77.1186 161.896 77.2822 161.948 77.445 161.948C77.6719 161.948 77.8961 161.847 78.0459 161.653C78.3028 161.321 78.2424 160.843 77.9108 160.586ZM66.6258 241.046C65.0223 240.667 63.3721 240.253 61.7209 239.816C61.315 239.709 60.8994 239.951 60.7922 240.357C60.685 240.763 60.9269 241.179 61.3325 241.287C62.9966 241.727 64.6602 242.144 66.2766 242.527C66.3353 242.541 66.3939 242.547 66.4518 242.547C66.7961 242.547 67.1079 242.312 67.1906 241.961C67.2871 241.553 67.0343 241.143 66.6258 241.046ZM58.2358 126.931C57.9736 125.307 57.7709 123.633 57.6337 121.956C57.5996 121.538 57.2333 121.226 56.8145 121.26C56.3965 121.295 56.0851 121.662 56.1194 122.08C56.2598 123.797 56.4672 125.511 56.7359 127.173C56.7961 127.547 57.1188 127.813 57.4849 127.813C57.5253 127.813 57.5662 127.81 57.6073 127.803C58.0213 127.736 58.3028 127.345 58.2358 126.931ZM56.8472 238.462C55.2634 238.002 53.6339 237.509 52.0045 236.997C51.6037 236.871 51.1778 237.095 51.0524 237.495C50.9268 237.896 51.1496 238.323 51.5499 238.449C53.1897 238.964 54.8296 239.46 56.4238 239.923C56.4946 239.943 56.5657 239.953 56.6359 239.953C56.9652 239.953 57.2687 239.737 57.3652 239.405C57.4819 239.001 57.2501 238.579 56.8472 238.462ZM61.4184 97.6108C62.1193 96.131 62.9187 94.657 63.7945 93.2294C64.0141 92.8714 63.9024 92.4031 63.5449 92.183C63.1876 91.9633 62.7195 92.0749 62.5001 92.4329C61.5957 93.9068 60.77 95.4295 60.0457 96.9585C59.866 97.3381 60.0275 97.7918 60.4066 97.9718C60.5117 98.0217 60.6226 98.0453 60.7316 98.0453C61.0159 98.0457 61.2885 97.885 61.4184 97.6108ZM59.2385 131.835C59.137 131.427 58.7247 131.179 58.3175 131.281C57.9105 131.382 57.6627 131.795 57.7643 132.203C58.1808 133.875 58.6723 135.531 59.2253 137.127C59.3341 137.441 59.6284 137.638 59.943 137.638C60.0255 137.638 60.1097 137.625 60.192 137.596C60.5885 137.458 60.7983 137.025 60.6607 136.628C60.1224 135.075 59.6439 133.462 59.2385 131.835ZM47.1916 235.435C45.6425 234.916 44.0331 234.361 42.4081 233.786C42.0125 233.646 41.5786 233.854 41.4387 234.25C41.299 234.646 41.5064 235.081 41.9019 235.221C43.535 235.799 45.1526 236.356 46.7099 236.877C46.7897 236.904 46.871 236.917 46.9509 236.917C47.2687 236.917 47.565 236.716 47.6713 236.397C47.804 235.999 47.5894 235.568 47.1916 235.435ZM72.8835 81.9832C73.0646 81.9832 73.2462 81.9188 73.3914 81.7878C74.614 80.6857 75.911 79.6144 77.2461 78.6037C77.581 78.3504 77.6471 77.8732 77.3941 77.5381C77.1411 77.203 76.6644 77.137 76.3301 77.39C74.9601 78.4268 73.6294 79.526 72.3748 80.6571C72.063 80.9381 72.0377 81.4192 72.3185 81.7314C72.4686 81.8982 72.6755 81.9832 72.8835 81.9832ZM186.71 93.0861C186.86 93.2509 187.066 93.3346 187.272 93.3346C187.455 93.3346 187.638 93.2692 187.783 93.1362C188.093 92.8534 188.116 92.3721 187.833 92.0617C186.691 90.8063 185.499 89.5686 184.29 88.3828C183.99 88.0886 183.509 88.0937 183.216 88.394C182.922 88.6943 182.927 89.1759 183.227 89.4698C184.415 90.6351 185.587 91.8518 186.71 93.0861ZM57.3413 107.612C57.3934 107.623 57.4452 107.628 57.4962 107.628C57.8488 107.628 58.1649 107.381 58.2392 107.021C58.5705 105.42 59.0105 103.806 59.5471 102.224C59.682 101.826 59.4694 101.394 59.072 101.259C58.675 101.125 58.2433 101.337 58.1084 101.735C57.5519 103.376 57.0954 105.051 56.7515 106.713C56.6664 107.124 56.9303 107.527 57.3413 107.612ZM80.9338 163.701C80.706 164.053 80.8068 164.525 81.159 164.753C82.5636 165.663 84.0446 166.541 85.5611 167.364C85.6762 167.426 85.8 167.456 85.9222 167.456C86.1922 167.456 86.4534 167.311 86.5909 167.057C86.7907 166.688 86.6537 166.226 86.2845 166.026C84.8029 165.222 83.356 164.364 81.9847 163.475C81.6319 163.247 81.162 163.348 80.9338 163.701ZM65.5528 89.2591C65.6905 89.3643 65.8526 89.4151 66.0134 89.4151C66.2421 89.4151 66.4681 89.312 66.6176 89.1161C67.6135 87.8103 68.6953 86.525 69.8333 85.296C70.1186 84.988 70.1004 84.5067 69.7925 84.221C69.4847 83.9351 69.0041 83.9535 68.7189 84.2618C67.5485 85.5259 66.435 86.8484 65.4099 88.1926C65.1554 88.5266 65.2194 89.0039 65.5528 89.2591ZM61.5081 140.89C61.1265 141.064 60.9584 141.515 61.1326 141.898C61.844 143.458 62.6371 144.994 63.4897 146.464C63.6308 146.707 63.8855 146.843 64.1474 146.843C64.2769 146.843 64.4082 146.81 64.5283 146.74C64.8912 146.529 65.0143 146.063 64.8036 145.7C63.9759 144.273 63.2056 142.781 62.5147 141.266C62.3405 140.883 61.8903 140.715 61.5081 140.89ZM183.438 166.042C181.907 166.751 180.357 167.436 178.829 168.076C178.442 168.239 178.26 168.684 178.422 169.072C178.544 169.363 178.826 169.539 179.123 169.539C179.221 169.539 179.321 169.52 179.417 169.479C180.961 168.832 182.529 168.14 184.076 167.423C184.457 167.247 184.623 166.795 184.447 166.413C184.271 166.032 183.819 165.866 183.438 166.042ZM207.339 132.738C207.693 134.37 208 136.032 208.25 137.676C208.308 138.053 208.632 138.322 209 138.322C209.039 138.322 209.077 138.32 209.116 138.314C209.531 138.25 209.816 137.862 209.752 137.447C209.497 135.771 209.185 134.078 208.824 132.415C208.734 132.004 208.331 131.743 207.92 131.833C207.51 131.922 207.25 132.327 207.339 132.738ZM208.849 142.662C208.994 144.328 209.087 146.015 209.125 147.676C209.134 148.09 209.472 148.42 209.884 148.42C209.89 148.42 209.895 148.42 209.902 148.419C210.321 148.41 210.653 148.062 210.644 147.642C210.606 145.948 210.511 144.228 210.362 142.529C210.326 142.11 209.957 141.8 209.539 141.838C209.121 141.875 208.812 142.243 208.849 142.662ZM198.432 109.352C198.571 109.601 198.83 109.741 199.095 109.741C199.221 109.741 199.349 109.71 199.466 109.644C199.832 109.438 199.962 108.975 199.757 108.608C198.929 107.129 198.047 105.653 197.134 104.223C196.908 103.869 196.438 103.765 196.085 103.991C195.731 104.217 195.628 104.688 195.854 105.042C196.75 106.448 197.618 107.898 198.432 109.352ZM206.124 127.865C206.218 128.2 206.523 128.419 206.855 128.419C206.923 128.419 206.992 128.41 207.061 128.39C207.465 128.276 207.7 127.856 207.586 127.452C207.126 125.821 206.609 124.18 206.05 122.574C205.912 122.177 205.478 121.967 205.082 122.106C204.686 122.244 204.477 122.678 204.615 123.075C205.165 124.653 205.672 126.264 206.124 127.865ZM196.544 160.038C196.686 160.279 196.939 160.412 197.199 160.412C197.33 160.412 197.463 160.378 197.584 160.307C199.029 159.453 200.49 158.56 201.927 157.651C202.281 157.427 202.387 156.957 202.163 156.602C201.939 156.247 201.47 156.14 201.115 156.365C199.692 157.265 198.244 158.151 196.812 158.996C196.451 159.21 196.331 159.676 196.544 160.038ZM-105.926 214.876C-107.311 215.806 -108.715 216.789 -110.1 217.798C-110.439 218.046 -110.514 218.521 -110.267 218.861C-110.118 219.066 -109.887 219.174 -109.652 219.174C-109.497 219.174 -109.34 219.127 -109.205 219.028C-107.837 218.031 -106.449 217.059 -105.08 216.139C-104.731 215.905 -104.638 215.433 -104.872 215.084C-105.106 214.735 -105.578 214.642 -105.926 214.876ZM-114.165 220.875C-115.481 221.907 -116.812 222.988 -118.122 224.087C-118.443 224.357 -118.486 224.837 -118.216 225.159C-118.066 225.339 -117.85 225.431 -117.633 225.431C-117.461 225.431 -117.288 225.373 -117.146 225.254C-115.849 224.165 -114.53 223.094 -113.228 222.072C-112.898 221.813 -112.84 221.335 -113.099 221.004C-113.357 220.674 -113.835 220.616 -114.165 220.875ZM-121.973 227.424C-123.226 228.544 -124.487 229.705 -125.722 230.876C-126.027 231.164 -126.04 231.646 -125.752 231.951C-125.602 232.109 -125.402 232.189 -125.2 232.189C-125.013 232.189 -124.825 232.12 -124.678 231.981C-123.454 230.82 -122.204 229.669 -120.962 228.56C-120.649 228.28 -120.622 227.799 -120.901 227.485C-121.18 227.172 -121.661 227.145 -121.973 227.424ZM-97.2197 209.55C-98.6801 210.355 -100.165 211.219 -101.634 212.119C-101.992 212.338 -102.104 212.806 -101.885 213.165C-101.742 213.399 -101.492 213.529 -101.236 213.529C-101.101 213.529 -100.965 213.493 -100.841 213.417C-99.3918 212.529 -97.9269 211.676 -96.4868 210.882C-96.1193 210.68 -95.9853 210.217 -96.1877 209.849C-96.3902 209.481 -96.8522 209.347 -97.2197 209.55ZM-129.37 234.433C-130.561 235.627 -131.755 236.857 -132.919 238.09C-133.207 238.395 -133.193 238.876 -132.888 239.165C-132.741 239.304 -132.554 239.373 -132.367 239.373C-132.165 239.373 -131.964 239.293 -131.815 239.135C-130.66 237.912 -129.476 236.692 -128.295 235.508C-127.999 235.211 -127.999 234.729 -128.296 234.432C-128.593 234.135 -129.074 234.135 -129.37 234.433ZM-88.023 205.078C-89.5619 205.725 -91.1297 206.436 -92.6826 207.193C-93.0598 207.377 -93.2169 207.832 -93.0332 208.21C-92.9017 208.481 -92.631 208.638 -92.3494 208.638C-92.238 208.638 -92.1247 208.613 -92.0176 208.561C-90.4899 207.817 -88.9482 207.117 -87.435 206.481C-87.0482 206.319 -86.8662 205.873 -87.0286 205.485C-87.1908 205.098 -87.6358 204.915 -88.023 205.078ZM-141.878 249.51C-142.206 249.248 -142.684 249.302 -142.946 249.631C-144.033 250.997 -145.081 252.357 -146.059 253.674C-146.309 254.012 -146.24 254.488 -145.903 254.739C-145.767 254.84 -145.608 254.889 -145.45 254.889C-145.218 254.889 -144.989 254.783 -144.84 254.582C-143.872 253.279 -142.835 251.932 -141.758 250.579C-141.496 250.25 -141.55 249.772 -141.878 249.51ZM-159.898 274.818C-161.942 277.176 -163.336 278.227 -163.379 278.259C-163.717 278.508 -163.789 278.984 -163.54 279.322C-163.392 279.525 -163.161 279.632 -162.928 279.632C-162.772 279.632 -162.614 279.584 -162.478 279.484C-162.417 279.439 -160.941 278.342 -158.75 275.815C-158.475 275.498 -158.509 275.017 -158.826 274.742C-159.143 274.466 -159.623 274.5 -159.898 274.818ZM-153.118 266.378C-153.481 266.167 -153.946 266.29 -154.157 266.653C-155.017 268.135 -155.921 269.555 -156.843 270.876C-157.084 271.22 -157 271.694 -156.656 271.935C-156.523 272.028 -156.371 272.072 -156.221 272.072C-155.982 272.072 -155.746 271.959 -155.598 271.748C-154.652 270.393 -153.725 268.936 -152.844 267.419C-152.633 267.055 -152.756 266.589 -153.118 266.378ZM-136.366 241.842C-137.5 243.11 -138.625 244.404 -139.711 245.689C-139.982 246.009 -139.942 246.49 -139.622 246.761C-139.479 246.882 -139.305 246.941 -139.131 246.941C-138.916 246.941 -138.701 246.849 -138.551 246.672C-137.474 245.398 -136.358 244.115 -135.234 242.857C-134.954 242.544 -134.981 242.063 -135.293 241.783C-135.606 241.503 -136.086 241.529 -136.366 241.842ZM-147.967 257.637C-148.314 257.401 -148.786 257.492 -149.022 257.84C-150.14 259.493 -151.058 260.961 -151.751 262.203C-151.955 262.57 -151.824 263.034 -151.458 263.238C-151.341 263.304 -151.213 263.335 -151.088 263.335C-150.822 263.335 -150.563 263.195 -150.424 262.945C-149.762 261.758 -148.842 260.288 -147.764 258.693C-147.528 258.346 -147.619 257.873 -147.967 257.637ZM56.6507 117.713C56.6528 117.713 56.6552 117.713 56.6573 117.713C57.0768 117.709 57.414 117.366 57.4106 116.945C57.409 116.751 57.4081 116.556 57.4081 116.362C57.4081 115.213 57.4365 114.04 57.4926 112.876C57.5074 112.565 57.5265 112.25 57.5494 111.939C57.5803 111.52 57.2662 111.156 56.8478 111.125C56.4294 111.094 56.065 111.408 56.0341 111.827C56.0104 112.151 55.9903 112.479 55.9748 112.803C55.9176 113.991 55.8887 115.189 55.8887 116.362C55.8887 116.561 55.8894 116.759 55.8912 116.958C55.8946 117.376 56.2341 117.713 56.6507 117.713ZM99.6254 67.7065C101.217 67.263 102.856 66.8649 104.496 66.5234C104.907 66.4377 105.17 66.035 105.085 65.6236C105 65.2123 104.597 64.9484 104.187 65.0338C102.514 65.3821 100.842 65.7882 99.2182 66.2407C98.8139 66.3532 98.5775 66.7726 98.6899 67.1775C98.7833 67.514 99.0887 67.7344 99.4215 67.7344C99.4887 67.7346 99.5573 67.7255 99.6254 67.7065ZM204.226 117.797C203.576 116.235 202.869 114.667 202.125 113.137C201.941 112.76 201.486 112.603 201.109 112.786C200.732 112.97 200.575 113.426 200.759 113.803C201.49 115.307 202.184 116.848 202.823 118.382C202.945 118.675 203.227 118.851 203.525 118.851C203.622 118.851 203.721 118.832 203.817 118.792C204.204 118.631 204.387 118.185 204.226 117.797ZM206.471 171.909C206.073 171.779 205.644 171.997 205.514 172.396C205.331 172.959 205.137 173.53 204.939 174.091C204.58 175.108 204.203 176.13 203.817 177.132C203.666 177.523 203.861 177.964 204.253 178.115C204.343 178.15 204.435 178.166 204.526 178.166C204.831 178.166 205.119 177.981 205.235 177.679C205.626 176.664 206.008 175.628 206.371 174.598C206.574 174.025 206.771 173.443 206.958 172.868C207.088 172.468 206.87 172.039 206.471 171.909ZM202.905 181.397C202.52 181.228 202.072 181.404 201.904 181.788C201.232 183.325 200.518 184.861 199.783 186.354C199.598 186.731 199.752 187.187 200.129 187.373C200.237 187.426 200.351 187.451 200.464 187.451C200.744 187.451 201.014 187.295 201.146 187.027C201.891 185.514 202.615 183.957 203.296 182.399C203.464 182.014 203.289 181.565 202.905 181.397ZM208.846 162.055C208.432 161.981 208.038 162.255 207.963 162.669C207.667 164.309 207.311 165.959 206.905 167.574C206.802 167.982 207.049 168.395 207.455 168.498C207.518 168.514 207.58 168.521 207.642 168.521C207.982 168.521 208.291 168.291 208.378 167.946C208.793 166.298 209.156 164.613 209.458 162.939C209.533 162.526 209.259 162.13 208.846 162.055ZM198.488 190.518C198.121 190.315 197.659 190.448 197.456 190.816C196.649 192.279 195.798 193.739 194.927 195.156C194.708 195.514 194.819 195.982 195.176 196.203C195.3 196.279 195.438 196.316 195.574 196.316C195.829 196.316 196.078 196.187 196.222 195.954C197.105 194.517 197.967 193.036 198.786 191.552C198.989 191.184 198.855 190.721 198.488 190.518ZM210.545 150.905C210.301 150.563 209.826 150.484 209.485 150.728C208.112 151.71 206.717 152.678 205.34 153.606C204.992 153.841 204.899 154.313 205.134 154.662C205.368 155.01 205.84 155.103 206.188 154.868C207.143 154.225 208.105 153.563 209.064 152.89C208.99 154.495 208.863 156.113 208.686 157.702C208.64 158.119 208.94 158.495 209.357 158.542C209.386 158.545 209.414 158.547 209.442 158.547C209.824 158.547 210.153 158.259 210.196 157.87C210.384 156.184 210.516 154.466 210.59 152.764C210.603 152.472 210.451 152.212 210.216 152.074C210.267 152.038 210.317 152.002 210.368 151.966C210.709 151.722 210.788 151.247 210.545 150.905ZM179.317 214.77C178.125 215.939 176.888 217.093 175.639 218.201C175.325 218.48 175.296 218.96 175.574 219.275C175.725 219.445 175.934 219.531 176.144 219.531C176.323 219.531 176.502 219.468 176.647 219.34C177.914 218.215 179.17 217.044 180.38 215.857C180.68 215.563 180.685 215.082 180.391 214.782C180.098 214.481 179.617 214.476 179.317 214.77ZM175.671 82.8659C176.985 83.8869 178.288 84.9613 179.544 86.0587C179.688 86.1847 179.866 86.2464 180.043 86.2464C180.255 86.2464 180.465 86.1582 180.616 85.9859C180.891 85.6694 180.859 85.1889 180.543 84.9126C179.266 83.7961 177.94 82.7031 176.603 81.6642C176.272 81.4067 175.794 81.4668 175.537 81.7987C175.28 82.1304 175.34 82.6083 175.671 82.8659ZM186.136 207.386C185.064 208.668 183.948 209.938 182.818 211.162C182.534 211.47 182.552 211.951 182.86 212.237C183.006 212.372 183.192 212.439 183.376 212.439C183.58 212.439 183.784 212.357 183.934 212.195C185.08 210.953 186.214 209.664 187.301 208.362C187.571 208.04 187.528 207.56 187.207 207.291C186.885 207.021 186.405 207.064 186.136 207.386ZM193.251 199.173C192.905 198.936 192.432 199.025 192.195 199.372C191.253 200.752 190.267 202.125 189.264 203.452C189.01 203.787 189.076 204.264 189.411 204.518C189.548 204.622 189.709 204.672 189.869 204.672C190.098 204.672 190.326 204.568 190.475 204.37C191.493 203.024 192.494 201.631 193.45 200.23C193.687 199.884 193.598 199.41 193.251 199.173ZM191.162 95.9363C190.897 95.61 190.419 95.5605 190.094 95.8252C189.768 96.09 189.718 96.5692 189.983 96.8953C191.033 98.1901 192.059 99.5323 193.034 100.885C193.182 101.091 193.415 101.2 193.651 101.2C193.804 101.2 193.96 101.153 194.094 101.056C194.435 100.81 194.511 100.335 194.266 99.994C193.274 98.6188 192.23 97.2535 191.162 95.9363ZM193.462 161.794C193.261 161.425 192.799 161.29 192.431 161.492C190.952 162.304 189.452 163.095 187.973 163.844C187.598 164.034 187.448 164.491 187.637 164.866C187.771 165.131 188.038 165.284 188.316 165.284C188.431 165.284 188.548 165.258 188.658 165.202C190.153 164.445 191.668 163.646 193.161 162.827C193.529 162.625 193.664 162.162 193.462 161.794ZM217.538 144.639C216.22 145.691 214.878 146.733 213.551 147.737C213.216 147.99 213.15 148.467 213.403 148.802C213.552 149 213.779 149.104 214.009 149.104C214.169 149.104 214.33 149.055 214.467 148.951C215.804 147.939 217.156 146.889 218.484 145.83C218.813 145.568 218.867 145.089 218.605 144.761C218.344 144.432 217.866 144.377 217.538 144.639ZM266.096 92.3605C265.749 92.1254 265.276 92.2175 265.042 92.5659C264.106 93.9553 263.142 95.3565 262.176 96.7302C261.934 97.0737 262.016 97.5481 262.359 97.7902C262.492 97.884 262.645 97.929 262.796 97.929C263.034 97.929 263.27 97.8167 263.418 97.6063C264.39 96.224 265.36 94.8144 266.302 93.4164C266.536 93.0681 266.444 92.5954 266.096 92.3605ZM276.655 75.0458C276.289 74.8411 275.826 74.9729 275.622 75.3399C274.811 76.7955 273.968 78.2724 273.115 79.7293C272.903 80.0917 273.024 80.5578 273.386 80.7703C273.507 80.8412 273.639 80.875 273.77 80.875C274.03 80.875 274.284 80.7405 274.426 80.4989C275.284 79.0324 276.133 77.546 276.949 76.0807C277.153 75.7136 277.022 75.2504 276.655 75.0458ZM271.559 83.8148C271.201 83.5948 270.733 83.7062 270.514 84.0642C269.637 85.4905 268.732 86.9302 267.822 88.3436C267.595 88.6968 267.696 89.1677 268.049 89.395C268.177 89.4773 268.319 89.5165 268.46 89.5165C268.709 89.5165 268.954 89.3934 269.099 89.1678C270.015 87.7455 270.926 86.2967 271.808 84.8615C272.028 84.5036 271.916 84.0349 271.559 83.8148ZM225.275 138.148C224.013 139.26 222.724 140.368 221.446 141.441C221.124 141.711 221.082 142.191 221.351 142.513C221.502 142.692 221.717 142.785 221.934 142.785C222.106 142.785 222.279 142.727 222.422 142.608C223.709 141.527 225.007 140.411 226.278 139.29C226.593 139.013 226.624 138.532 226.347 138.217C226.07 137.901 225.59 137.871 225.275 138.148ZM285.644 56.8672C285.261 56.6976 284.812 56.8714 284.642 57.2558C283.97 58.7805 283.265 60.3272 282.547 61.8533C282.368 62.2335 282.531 62.6866 282.911 62.8657C283.015 62.9151 283.125 62.9384 283.234 62.9384C283.519 62.9384 283.792 62.777 283.922 62.5017C284.645 60.9645 285.355 59.4063 286.032 57.8704C286.202 57.4859 286.028 57.0368 285.644 56.8672ZM281.362 66.0607C280.987 65.8727 280.53 66.0248 280.342 66.4006C279.595 67.8958 278.818 69.4083 278.032 70.8965C277.836 71.2679 277.978 71.728 278.349 71.9247C278.462 71.9846 278.583 72.013 278.703 72.013C278.975 72.013 279.239 71.8658 279.375 71.6078C280.167 70.1094 280.949 68.5866 281.701 67.0814C281.889 66.7057 281.737 66.2487 281.362 66.0607ZM239.778 124.138C238.623 125.358 237.442 126.578 236.267 127.765C235.972 128.063 235.974 128.545 236.272 128.841C236.42 128.988 236.613 129.061 236.807 129.061C237.002 129.061 237.198 128.986 237.346 128.836C238.529 127.641 239.718 126.413 240.881 125.185C241.169 124.881 241.157 124.399 240.852 124.11C240.548 123.821 240.067 123.834 239.778 124.138ZM260.278 100.685C259.94 100.437 259.465 100.509 259.216 100.847C258.22 102.203 257.196 103.567 256.174 104.9C255.919 105.233 255.981 105.711 256.314 105.967C256.452 106.073 256.615 106.124 256.776 106.124C257.004 106.124 257.23 106.022 257.379 105.826C258.408 104.485 259.437 103.113 260.44 101.749C260.688 101.411 260.616 100.934 260.278 100.685ZM232.679 131.311C231.472 132.478 230.239 133.643 229.015 134.773C228.707 135.058 228.687 135.539 228.972 135.848C229.122 136.011 229.326 136.093 229.531 136.093C229.715 136.093 229.899 136.026 230.045 135.892C231.278 134.754 232.519 133.581 233.735 132.406C234.036 132.114 234.045 131.632 233.754 131.33C233.462 131.028 232.981 131.019 232.679 131.311ZM246.571 116.657C245.464 117.928 244.335 119.199 243.213 120.435C242.931 120.746 242.954 121.227 243.264 121.51C243.41 121.642 243.593 121.707 243.775 121.707C243.982 121.707 244.188 121.624 244.337 121.458C245.466 120.215 246.603 118.936 247.716 117.657C247.992 117.34 247.959 116.859 247.642 116.583C247.326 116.307 246.846 116.34 246.571 116.657ZM254.12 108.769C253.792 108.506 253.314 108.559 253.052 108.887C252.001 110.2 250.924 111.519 249.851 112.807C249.581 113.129 249.624 113.609 249.946 113.878C250.089 113.997 250.261 114.055 250.433 114.055C250.65 114.055 250.866 113.962 251.017 113.782C252.097 112.487 253.181 111.16 254.238 109.838C254.5 109.51 254.447 109.032 254.12 108.769ZM154.956 232.406C153.479 233.174 151.96 233.918 150.441 234.617C150.06 234.793 149.893 235.245 150.068 235.626C150.196 235.905 150.471 236.07 150.759 236.07C150.865 236.07 150.973 236.047 151.076 236C152.617 235.29 154.158 234.535 155.656 233.757C156.029 233.563 156.174 233.104 155.98 232.731C155.787 232.358 155.329 232.213 154.956 232.406ZM124.723 178.001C125.112 178.001 125.443 177.704 125.479 177.309C125.516 176.89 125.208 176.52 124.79 176.483C123.099 176.331 121.415 176.15 119.784 175.946C119.368 175.897 118.988 176.19 118.936 176.607C118.884 177.024 119.18 177.404 119.596 177.456C121.244 177.662 122.945 177.844 124.654 177.998C124.677 178 124.7 178.001 124.723 178.001ZM126.596 242.436C124.97 242.776 123.306 243.088 121.651 243.364C121.237 243.432 120.957 243.824 121.026 244.239C121.087 244.611 121.409 244.875 121.774 244.875C121.815 244.875 121.857 244.871 121.899 244.864C123.576 244.586 125.26 244.27 126.907 243.925C127.317 243.839 127.58 243.436 127.495 243.025C127.409 242.613 127.005 242.349 126.596 242.436ZM116.671 244.087C115.023 244.293 113.339 244.469 111.665 244.612C111.247 244.647 110.937 245.016 110.973 245.434C111.006 245.831 111.339 246.131 111.729 246.131C111.75 246.131 111.772 246.13 111.794 246.128C113.487 245.984 115.191 245.805 116.859 245.597C117.275 245.545 117.571 245.165 117.519 244.748C117.467 244.331 117.085 244.037 116.671 244.087ZM119.431 64.8461C121.081 64.8091 122.771 64.8184 124.452 64.8745C124.461 64.8747 124.469 64.8749 124.478 64.8749C124.886 64.8749 125.223 64.5507 125.237 64.1396C125.251 63.7197 124.922 63.3679 124.503 63.354C123.478 63.3198 122.444 63.3023 121.429 63.3023C120.758 63.303 120.069 63.3098 119.397 63.3248C118.978 63.3343 118.645 63.6825 118.655 64.1025C118.664 64.5167 119.002 64.8461 119.414 64.8461C119.419 64.8461 119.425 64.8461 119.431 64.8461ZM134.815 178.587C134.82 178.588 134.825 178.588 134.831 178.588C135.243 178.588 135.581 178.257 135.59 177.843C135.599 177.422 135.265 177.075 134.846 177.066C134.33 177.056 133.804 177.04 133.282 177.02C132.121 176.976 130.954 176.92 129.815 176.853C129.394 176.828 129.036 177.149 129.012 177.569C128.988 177.988 129.308 178.348 129.727 178.372C130.876 178.439 132.053 178.496 133.224 178.54C133.755 178.561 134.29 178.576 134.815 178.587ZM134.461 65.739C134.496 65.7439 134.532 65.7462 134.566 65.7462C134.94 65.7462 135.265 65.4703 135.318 65.0894C135.375 64.6733 135.084 64.2893 134.669 64.2319C132.979 63.9984 131.273 63.8063 129.598 63.661C129.179 63.622 128.812 63.9344 128.776 64.3532C128.739 64.7717 129.049 65.1404 129.467 65.1767C131.117 65.3198 132.797 65.5091 134.461 65.739ZM114.682 176.74C115.048 176.74 115.37 176.476 115.431 176.103C115.498 175.688 115.218 175.297 114.803 175.229C113.132 174.955 111.468 174.647 109.86 174.313C109.45 174.227 109.047 174.492 108.962 174.903C108.876 175.315 109.14 175.717 109.551 175.802C111.181 176.141 112.865 176.453 114.558 176.73C114.6 176.737 114.641 176.74 114.682 176.74ZM104.777 174.676C105.115 174.676 105.424 174.448 105.512 174.105C105.616 173.698 105.371 173.283 104.965 173.179C103.321 172.756 101.697 172.294 100.137 171.805C99.7374 171.679 99.3099 171.903 99.1848 172.304C99.0596 172.705 99.2825 173.131 99.6829 173.257C101.268 173.754 102.918 174.223 104.587 174.652C104.651 174.668 104.714 174.676 104.777 174.676ZM136.342 239.952C134.752 240.433 133.122 240.886 131.496 241.3C131.09 241.403 130.844 241.817 130.947 242.225C131.035 242.569 131.344 242.798 131.683 242.798C131.745 242.798 131.808 242.79 131.871 242.774C133.518 242.355 135.17 241.896 136.781 241.409C137.183 241.287 137.41 240.863 137.289 240.461C137.167 240.058 136.744 239.831 136.342 239.952ZM96.5727 245.046C94.9124 245.004 93.2188 244.931 91.5388 244.831C91.1151 244.807 90.7601 245.125 90.7351 245.545C90.7099 245.964 91.0292 246.324 91.448 246.349C93.1454 246.451 94.8564 246.524 96.5339 246.567C96.5405 246.567 96.5471 246.567 96.5536 246.567C96.9641 246.567 97.302 246.239 97.3127 245.826C97.3235 245.406 96.9922 245.057 96.5727 245.046ZM109.435 65.6589C111.071 65.4254 112.749 65.2384 114.42 65.1034C114.838 65.0695 115.15 64.7026 115.116 64.284C115.082 63.8651 114.715 63.5529 114.297 63.5869C112.596 63.7247 110.887 63.915 109.22 64.1528C108.805 64.212 108.516 64.5972 108.576 65.0132C108.629 65.3927 108.954 65.6668 109.326 65.6668C109.362 65.6666 109.398 65.6641 109.435 65.6589ZM106.643 244.943C104.981 245.02 103.288 245.068 101.609 245.085C101.19 245.089 100.853 245.433 100.857 245.854C100.862 246.271 101.201 246.607 101.617 246.607C101.62 246.607 101.622 246.607 101.625 246.607C103.322 246.589 105.034 246.541 106.713 246.462C107.132 246.443 107.456 246.087 107.437 245.667C107.417 245.247 107.056 244.922 106.643 244.943ZM154.175 70.6462C154.481 70.6462 154.77 70.4594 154.885 70.1556C155.034 69.7629 154.837 69.3235 154.445 69.1743C152.858 68.5703 151.233 68.0076 149.617 67.5027C149.215 67.3777 148.79 67.6015 148.665 68.0022C148.541 68.4034 148.764 68.8301 149.164 68.9551C150.752 69.4511 152.347 70.0032 153.905 70.5964C153.994 70.6302 154.085 70.6462 154.175 70.6462ZM163.394 74.8085C163.667 74.8085 163.931 74.6604 164.067 74.4013C164.262 74.0294 164.119 73.5696 163.748 73.3742C162.246 72.5847 160.704 71.8315 159.163 71.1359C158.78 70.9632 158.33 71.1335 158.158 71.5166C157.985 71.8996 158.156 72.3499 158.538 72.5228C160.052 73.206 161.567 73.9458 163.041 74.7214C163.154 74.7802 163.275 74.8085 163.394 74.8085ZM163.64 227.344C162.243 228.253 160.802 229.14 159.36 229.981C158.997 230.192 158.874 230.658 159.085 231.021C159.226 231.264 159.481 231.399 159.742 231.399C159.872 231.399 160.004 231.366 160.124 231.296C161.588 230.442 163.049 229.542 164.467 228.62C164.819 228.391 164.919 227.92 164.691 227.567C164.462 227.215 163.992 227.115 163.64 227.344ZM164.591 173.081C162.973 173.539 161.335 173.963 159.723 174.343C159.315 174.439 159.061 174.848 159.157 175.257C159.24 175.608 159.551 175.844 159.896 175.844C159.954 175.844 160.012 175.837 160.071 175.824C161.705 175.439 163.365 175.008 165.004 174.545C165.408 174.43 165.643 174.01 165.529 173.606C165.415 173.201 164.995 172.967 164.591 173.081ZM171.794 221.445C170.494 222.488 169.147 223.514 167.791 224.495C167.451 224.741 167.374 225.217 167.62 225.557C167.768 225.763 168.001 225.873 168.236 225.873C168.39 225.873 168.546 225.826 168.68 225.728C170.057 224.733 171.424 223.691 172.744 222.633C173.071 222.37 173.124 221.891 172.862 221.563C172.599 221.235 172.121 221.182 171.794 221.445ZM172.051 80.0379C172.293 80.0379 172.531 79.9223 172.678 79.7076C172.915 79.3612 172.827 78.8877 172.482 78.6499C171.083 77.6886 169.64 76.7576 168.192 75.8825C167.833 75.6655 167.366 75.7811 167.149 76.1409C166.932 76.5005 167.048 76.9681 167.407 77.1852C168.83 78.0448 170.248 78.9596 171.621 79.9041C171.753 79.9944 171.903 80.0379 172.051 80.0379ZM95.1267 171.642C95.4337 171.642 95.7228 171.455 95.8377 171.15C95.986 170.757 95.788 170.318 95.3953 170.17C93.8121 169.571 92.255 168.925 90.7673 168.251C90.3846 168.077 89.9351 168.247 89.7619 168.63C89.5888 169.012 89.7582 169.463 90.1405 169.637C91.6576 170.325 93.245 170.983 94.8586 171.593C94.9468 171.627 95.0376 171.642 95.1267 171.642ZM145.826 236.612C144.285 237.236 142.703 237.834 141.122 238.39C140.726 238.53 140.518 238.964 140.657 239.36C140.767 239.673 141.061 239.869 141.374 239.869C141.458 239.869 141.543 239.855 141.626 239.826C143.228 239.262 144.833 238.655 146.395 238.023C146.784 237.865 146.972 237.422 146.815 237.032C146.658 236.643 146.215 236.455 145.826 236.612ZM145.688 177.431C145.652 177.012 145.283 176.701 144.866 176.738C143.201 176.881 141.518 176.98 139.863 177.035C139.443 177.049 139.115 177.401 139.129 177.821C139.142 178.232 139.479 178.556 139.888 178.556C139.896 178.556 139.905 178.556 139.913 178.556C141.594 178.5 143.304 178.399 144.995 178.254C145.414 178.218 145.724 177.85 145.688 177.431ZM174.149 169.935C172.572 170.527 170.975 171.089 169.402 171.607C169.004 171.739 168.787 172.169 168.918 172.568C169.023 172.888 169.32 173.091 169.639 173.091C169.718 173.091 169.798 173.079 169.877 173.053C171.469 172.528 173.086 171.959 174.682 171.36C175.075 171.213 175.274 170.775 175.127 170.381C174.98 169.988 174.543 169.788 174.149 169.935ZM155.083 176.877C155.496 176.8 155.767 176.403 155.69 175.99C155.614 175.577 155.218 175.304 154.804 175.381C153.154 175.69 151.485 175.96 149.844 176.184C149.428 176.241 149.137 176.624 149.194 177.041C149.246 177.422 149.572 177.699 149.946 177.699C149.98 177.699 150.015 177.696 150.05 177.691C151.715 177.463 153.408 177.19 155.083 176.877ZM140.994 66.8547C142.108 67.0809 143.231 67.3335 144.333 67.6054C144.394 67.6205 144.456 67.6278 144.516 67.6278C144.857 67.6278 145.167 67.3957 145.253 67.049C145.353 66.6411 145.104 66.2287 144.697 66.1283C143.575 65.8514 142.43 65.5941 141.297 65.3639C140.767 65.2562 140.231 65.1515 139.704 65.0526C139.292 64.9754 138.895 65.2472 138.817 65.6601C138.74 66.0731 139.012 66.4706 139.424 66.5479C139.943 66.6454 140.472 66.7486 140.994 66.8547Z" fill="#EFF4FA" fill-opacity="0.6"/>
</svg>