<svg width="126" height="51" viewBox="0 0 126 51" fill="none" xmlns="http://www.w3.org/2000/svg">
<path d="M38.098 0H5.63098C2.52127 0 0 2.52101 0 5.63072V28.8435C0 28.8846 0.000260783 28.9258 0.000260783 28.9669C0.0291835 34.1919 6.42793 36.7276 10.0985 33.0089L23.079 19.8591L14.3872 14.5074L16.5761 12.3182L27.0038 15.7692L31.2241 11.3713C31.9054 10.6614 33.0134 10.4769 33.8309 11.0243C34.9402 11.7671 35.0322 13.2873 34.1217 14.1613L29.6689 18.4343L33.1199 28.8622L30.931 31.0511L25.5792 22.3593L14.6499 33.706C8.52904 40.0605 12.9353 50.7201 21.758 50.7982C21.8237 50.7988 21.8897 50.799 21.9557 50.799C34.0814 50.799 43.9115 40.9692 43.9115 28.8433V5.8132C43.9115 2.60278 41.3087 0 38.098 0Z" fill="#BE0B32"/>
<mask id="mask0_7_23" style="mask-type:luminance" maskUnits="userSpaceOnUse" x="0" y="0" width="44" height="51">
<path d="M38.098 0H5.63098C2.52127 0 0 2.52101 0 5.63072V28.8435C0 28.8846 0.000260783 28.9258 0.000260783 28.9669C0.0291835 34.1919 6.42793 36.7276 10.0985 33.0089L23.079 19.8591L14.3872 14.5074L16.5761 12.3182L27.0038 15.7692L31.2241 11.3713C31.9054 10.6614 33.0134 10.4769 33.8309 11.0243C34.9402 11.7671 35.0322 13.2873 34.1217 14.1613L29.6689 18.4343L33.1199 28.8622L30.931 31.0511L25.5792 22.3593L14.6499 33.706C8.52904 40.0605 12.9353 50.7201 21.758 50.7982C21.8237 50.7988 21.8897 50.799 21.9557 50.799C34.0814 50.799 43.9115 40.9692 43.9115 28.8433V5.8132C43.9115 2.60278 41.3087 0 38.098 0Z" fill="white"/>
</mask>
<g mask="url(#mask0_7_23)">
<g opacity="0.26">
<path d="M19.2961 36.9659C19.0353 36.8089 18.7329 36.7387 18.4358 36.6724C18.2465 36.6304 18.0569 36.5888 17.8676 36.5476C17.3199 36.4279 16.7719 36.308 16.224 36.1884C16.0063 36.1408 15.7462 36.0522 15.7047 35.8332C15.6802 35.7046 15.7446 35.5779 15.7744 35.4503C15.8041 35.3228 15.7762 35.1551 15.6513 35.1156C15.523 34.7562 15.1339 34.5351 14.7841 34.3815C14.4347 34.228 14.0577 34.132 13.7335 33.9306C13.4379 33.7465 13.1963 33.4773 13.0454 33.1633C12.8127 32.6793 12.0055 32.6998 11.4709 32.7532C11.2493 32.7752 11.0326 32.8328 10.8173 32.8902C10.3942 33.0027 9.97089 33.115 9.54783 33.2275C9.50392 33.2391 9.45869 33.2504 9.41294 33.2606C9.41163 33.2609 9.41084 33.2614 9.40952 33.2617C9.40374 33.2633 9.39822 33.2635 9.39243 33.2648C9.35562 33.273 9.31855 33.2798 9.28121 33.2859C8.79952 33.3668 8.46375 33.1775 8.38881 33.1499L8.38908 33.1489C8.25867 33.0929 8.13482 33.0035 8.04806 32.9143C7.90055 32.7629 7.83192 32.5486 7.81851 32.3377C7.80484 32.1269 7.803 31.9231 7.82062 31.7125C7.83508 31.5395 7.66233 31.4022 7.49195 31.3693C7.32131 31.3365 7.1454 31.3722 6.97187 31.3612C6.7986 31.3501 6.60665 31.2702 6.55538 31.1043C6.52383 31.0023 6.55302 30.8921 6.58615 30.7904C6.66976 30.5343 6.70972 30.2048 6.93322 30.0541C7.06679 29.964 7.22507 29.8346 7.18353 29.6789C7.1596 29.589 7.06915 29.528 6.97686 29.5167C6.88457 29.5054 6.79176 29.5356 6.70893 29.5775C6.27536 29.7965 6.01321 30.3355 5.53205 30.402C5.12818 30.4578 4.75271 30.1246 4.61756 29.7399C4.48268 29.3553 4.51186 28.9156 4.52948 28.5084C4.54815 28.0745 4.87208 27.6709 5.29198 27.5592C5.49655 27.5047 5.71189 27.5147 5.92303 27.4987C6.13416 27.4827 6.31033 27.3528 6.50911 27.2797C6.79281 27.1753 7.12621 27.2168 7.37573 27.3877C7.76593 27.6549 7.90002 28.1597 8.1719 28.5468C8.24525 28.6514 8.36042 28.7589 8.48374 28.7245C8.57787 28.6985 8.63282 28.5941 8.63387 28.4963C8.63492 28.3987 8.64675 28.2696 8.64176 28.1721C8.62835 27.911 8.61468 27.6478 8.6528 27.3893C8.69093 27.1306 8.78479 26.8737 8.96122 26.6807C9.24493 26.3707 9.74424 26.2758 9.84415 25.8675C9.92408 25.5401 10.1896 25.2916 10.4678 25.1015C10.746 24.9114 11.0526 24.7558 11.2884 24.5152C11.4864 24.3133 11.5977 24.0527 11.7268 23.8011C11.9016 23.46 12.2474 23.2124 12.6265 23.1566C12.8955 23.1172 13.2189 23.1485 13.3856 22.9336C13.5152 22.7667 13.4779 22.519 13.3693 22.3376C13.2607 22.1562 13.0943 22.0181 12.9565 21.858C12.8187 21.6979 12.7007 21.4993 12.7296 21.2901C12.758 21.0834 12.9215 20.9143 13.1111 20.8278C13.3007 20.7413 13.5142 20.7242 13.7227 20.7203C14.0987 20.7132 14.4847 20.7421 14.8417 20.6243C15.1988 20.5065 15.5264 20.1891 15.5088 19.8134C15.4922 19.4595 15.1941 19.1953 14.9403 18.9481C14.8338 18.8445 14.7337 18.7117 14.6595 18.5687C14.6564 18.5632 14.6529 18.5592 14.6498 18.5534C14.6422 18.5392 14.638 18.5256 14.6309 18.5116C14.6251 18.4987 14.619 18.4864 14.6138 18.4735C14.4252 18.0547 14.5033 17.6868 14.5099 17.579C14.5204 17.4475 14.5117 17.2921 14.4032 17.2169C14.2722 17.1262 14.0926 17.2162 13.9743 17.3226C13.8557 17.4291 13.7337 17.5619 13.5744 17.5614C13.3767 17.5606 13.2431 17.3466 13.2255 17.1496C13.2079 16.9527 13.2647 16.7555 13.2531 16.5583C13.2328 16.2104 12.9147 15.9969 12.6473 15.7737C12.4559 15.6138 12.1709 15.5431 11.9521 15.6627C11.7954 15.7482 11.6997 15.911 11.6116 16.0661C11.4344 16.3779 11.2527 16.7029 11.2248 17.0605C11.2046 17.3195 11.2669 17.5803 11.2406 17.8388C11.2272 17.971 11.1809 18.1251 11.1047 18.2495C11.1039 18.2508 11.1039 18.2516 11.1031 18.2532C10.9874 18.4338 10.8052 18.7527 10.7949 18.906C10.7731 19.1429 10.7258 19.3777 10.6469 19.6023C10.6122 19.7011 10.5649 19.8063 10.471 19.8531C10.3382 19.9194 10.1712 19.8318 10.0939 19.7051C10.0166 19.5784 10.0035 19.4245 9.98219 19.2778C9.83337 18.2613 9.13713 17.3129 8.2187 16.853C7.85743 16.6722 7.76067 16.1702 7.90712 15.7937C8.05357 15.4172 8.37593 15.1411 8.69356 14.891C9.30067 14.413 9.94039 14.0249 10.5635 13.568C10.8139 13.3844 11.0639 13.2009 11.3142 13.0174C11.5406 12.8515 11.7791 12.669 11.8701 12.4034C11.9182 12.2628 11.9197 12.1108 11.9492 11.9651C11.9786 11.8194 12.0462 11.668 12.1785 11.6002C12.4017 11.4858 12.6612 11.663 12.8348 11.8442C13.0906 12.1113 13.251 12.4413 13.4392 12.7581C13.4403 12.76 13.4406 12.7613 13.4416 12.7631C13.6993 13.2075 13.4753 13.5361 13.2615 13.6526C12.9583 13.818 12.6552 13.9834 12.352 14.1488C12.2311 14.2148 12.0901 14.3252 12.1301 14.4572C12.1724 14.5971 12.3631 14.6005 12.5077 14.6207C12.7609 14.656 12.9791 14.8274 13.1285 15.0351C13.2778 15.2428 13.4666 15.4653 13.5252 15.7143C13.5733 15.9191 13.8076 16.0479 14.0148 16.0109C14.222 15.9741 14.3879 15.7992 14.4518 15.5989C14.5157 15.3982 14.4886 15.1776 14.4168 14.9799C14.345 14.7822 14.3474 14.5303 14.1889 14.392C14.0947 14.31 14.1373 14.1264 14.258 14.0943C14.3506 14.0696 14.4468 14.1254 14.512 14.1953C14.5775 14.2653 14.6248 14.3515 14.6958 14.4159C14.812 14.5219 15.0024 14.5429 15.1625 14.4924C15.2453 14.4582 15.4013 14.3436 15.3055 14.0378C15.1912 13.6905 15.0768 13.3431 14.9624 12.9958C14.8525 12.6622 14.7426 12.3282 14.6327 11.9946C14.5438 11.7248 14.405 11.4692 14.1628 11.3207C13.6859 11.0278 13.2846 10.6126 13.008 10.1262C12.8873 9.91397 12.7882 9.68601 12.6255 9.50379C12.4627 9.32184 12.1351 9.0292 11.9332 9.16619C11.5514 9.42439 11.259 9.81274 11.1165 10.251C11.0613 10.4212 11.0281 10.6071 11.0823 10.7774C11.138 10.9528 11.2774 11.0867 11.3802 11.2392C11.483 11.3919 11.482 11.5907 11.4168 11.7627C11.3639 11.902 11.3092 12.0448 11.2109 12.1568C11.1125 12.2688 10.9598 12.3453 10.8144 12.3119C10.6311 12.2699 10.5267 12.0776 10.4691 11.8983C10.3826 11.6278 10.3795 11.3409 10.4058 11.058C10.4452 10.6334 10.4847 10.2087 10.5241 9.78408C10.5359 9.65577 10.5512 9.51931 10.633 9.41992C10.75 9.27793 10.9558 9.26163 11.1362 9.22561C11.3166 9.18959 11.5225 9.08231 11.5264 8.89852C11.5288 8.79492 11.4586 8.69843 11.3668 8.65084C11.275 8.60298 11.1654 8.59878 11.0636 8.61823C10.7492 8.67924 10.5186 8.94585 10.345 9.21483C10.0642 9.65025 10.0479 10.2027 9.80892 10.6623C9.69402 10.8834 9.68639 11.1427 9.6856 11.3919C9.68482 11.6412 9.68666 11.8986 9.58753 12.1273C9.48841 12.3558 9.25702 12.548 9.01013 12.5165C8.78006 12.487 8.61809 12.2869 8.44456 12.1331C8.18373 11.9023 7.81168 11.8965 7.49616 11.749C7.35943 11.6851 7.20062 11.7584 7.07047 11.835C6.94058 11.9115 6.79176 11.9961 6.64741 11.9525C6.51936 11.9136 6.44232 11.7879 6.35397 11.6875C6.11576 11.4174 5.71504 11.4461 5.36455 11.3633C5.29567 11.347 5.22467 11.3296 5.1692 11.286C5.11372 11.2423 5.07796 11.1647 5.10504 11.0995C5.13133 11.0359 5.20417 11.0065 5.27121 10.9915C5.33852 10.9765 5.41136 10.9678 5.46342 10.9228C5.51574 10.8781 5.5373 10.7533 5.49629 10.698C5.33905 10.4861 5.14501 10.295 4.91888 10.1611C4.83921 10.1106 4.67777 10.0226 4.61204 9.96524C4.61072 9.96393 4.60941 9.96288 4.6081 9.96182C4.60415 9.95841 4.59942 9.95446 4.59653 9.95131L4.59495 9.95262C4.52211 9.89294 4.4222 9.86059 4.32728 9.8414C4.19214 9.81405 4.04463 9.79276 3.94761 9.69495C3.85111 9.59766 3.83007 9.44963 3.76197 9.33052C3.66311 9.15751 3.46828 9.05654 3.27161 9.02342C3.07493 8.99029 2.85328 8.93796 2.66239 8.99502C2.37053 9.08205 2.07789 9.16908 1.77709 9.21746C1.64773 9.23823 1.51416 9.2519 1.38637 9.22245C1.25859 9.193 1.16025 9.03761 1.05771 8.9561C0.353307 8.39605 -0.425503 7.85415 -0.885374 7.08086C-1.05023 6.80373 -1.32106 6.59154 -1.62974 6.49768C-1.93816 6.40407 -2.34124 6.34517 -2.60049 6.53685C-2.86316 6.73116 -3.12609 6.92547 -3.38877 7.11978C-3.50656 7.20681 -3.62908 7.2962 -3.77212 7.32749C-3.93041 7.3622 -4.11131 7.32644 -4.2433 7.42031C-4.33191 7.48315 -4.37687 7.59358 -4.38607 7.70165C-4.39501 7.80997 -4.4213 7.93618 -4.38265 8.03768C-4.25066 8.38343 -4.13392 8.84725 -4.29562 9.18012C-4.36109 9.31474 -4.54278 9.34998 -4.68818 9.31475C-4.83358 9.27951 -4.9619 9.19353 -5.10414 9.14752C-5.32711 9.07521 -5.58163 9.10834 -5.77883 9.23507C-5.97603 9.36181 -6.01889 9.57426 -6.09146 9.79723C-6.14273 9.9542 -6.06464 10.143 -5.91739 10.2179C-5.6655 10.3462 -5.31738 10.1138 -5.04551 10.1916C-4.97083 10.1622 -4.88854 10.2397 -4.88407 10.3199C-4.87986 10.4001 -4.92771 10.473 -4.97898 10.5348C-5.24928 10.8597 -5.6492 11.0414 -6.02993 11.2252C-6.4104 11.409 -6.83845 11.6133 -6.99516 12.0056C-7.09639 12.2588 -7.07693 12.5572 -6.94389 12.7955C-6.89761 12.8783 -6.83845 12.9543 -6.80006 13.0413C-6.76194 13.1283 -6.70357 13.2645 -6.76772 13.3345C-6.84318 13.4168 -6.86843 13.5417 -6.83056 13.6466C-6.79296 13.7515 -6.68385 13.7993 -6.57262 13.807C-6.47534 13.8135 -6.37542 13.8209 -6.28629 13.8603C-6.19689 13.9 -6.1188 13.9789 -6.10855 14.0762C-6.09382 14.215 -6.21319 14.3276 -6.32205 14.4154C-6.53476 14.5871 -6.74774 14.7588 -6.96045 14.9305C-7.02172 14.9799 -7.08929 15.0433 -7.0814 15.1219C-7.07404 15.1945 -6.99963 15.2455 -6.92706 15.252C-6.85423 15.2586 -6.78324 15.2318 -6.71514 15.2052C-6.4033 15.0843 -6.10171 14.911 -5.7741 14.8437C-5.50222 14.788 -5.31054 14.5403 -5.20169 14.2852C-5.09257 14.0302 -5.04051 13.7517 -4.91167 13.5062C-4.78652 13.2672 -4.59011 13.0663 -4.35426 12.9359C-4.26197 12.8849 -4.15285 12.8436 -4.05241 12.8762C-3.95197 12.9085 -3.91568 13.0261 -3.96327 13.1204C-4.02743 13.248 -4.14733 13.3363 -4.25723 13.4273C-4.36714 13.5185 -4.47626 13.6269 -4.5036 13.767C-4.53095 13.9071 -4.46416 14.0065 -4.32139 14.0034C-4.10946 14.036 -3.91516 13.8882 -3.76029 13.7399C-3.60542 13.5916 -3.41532 13.4147 -3.20103 13.4147C-2.58603 13.4144 -2.08856 14.0368 -1.67838 14.4948C-1.36523 14.8442 -1.05497 15.2071 -0.863552 15.6357C-0.525945 16.3919 -0.379488 17.2843 -0.611134 18.0791C-0.742338 18.5292 -0.597989 19.0478 -0.253284 19.3654C-0.133912 19.4755 0.0130672 19.5715 0.0667057 19.7248C0.121397 19.8807 0.0630264 20.0514 0.00518084 20.2062C-0.316649 21.0676 -0.77389 21.8593 -0.883796 22.7725C-0.985551 23.6189 -0.996857 24.5849 -0.454163 25.2422C0.146904 25.9703 0.326747 26.8716 0.602828 27.7745C0.732192 28.1978 0.923608 28.6022 1.16866 28.9706C1.24465 29.0847 1.34483 29.2064 1.48208 29.2122C1.56727 29.2159 1.65272 29.1678 1.69348 29.0929C1.7345 29.0179 1.71214 28.902 1.70215 28.8173C1.67796 28.6101 1.55544 28.4297 1.44106 28.2552C1.19285 27.8768 0.82764 27.4435 0.801084 26.9918C0.792668 26.8485 0.784254 26.7054 0.775838 26.5624C0.77321 26.519 0.771107 26.474 0.786094 26.4333C0.801344 26.3925 0.838943 26.3568 0.882327 26.3578C0.925712 26.3591 1.02484 26.423 1.00301 26.4606C1.03115 27.007 1.37638 27.4787 1.70768 27.9141C1.90041 28.1673 2.21724 28.4439 2.29454 28.7526C2.43574 29.3158 2.6424 29.8714 2.98737 30.3384C3.33234 30.8053 3.81088 31.1958 4.37698 31.3246C4.87471 31.438 5.42398 31.5752 5.92776 31.6578C6.43601 31.7411 6.89062 32.0998 7.08993 32.5746C7.21429 32.8707 7.25321 33.2183 7.48012 33.4452C7.72806 33.6931 8.15086 33.6729 8.49951 33.7092C8.72642 33.7329 8.93993 33.8643 9.06298 34.0563C9.18603 34.2485 9.21653 34.4972 9.14317 34.7133C9.07113 34.926 8.91074 35.0946 8.78663 35.2818C8.49294 35.7251 8.5776 36.2717 8.48689 36.7955C8.34412 37.619 8.8032 38.4144 9.24387 39.1246C9.59752 39.6943 9.79498 40.384 10.3243 40.7958C10.96 41.2903 11.3013 42.0889 11.4094 42.8871C11.5175 43.6854 11.6976 44.6215 11.3923 45.3669C11.0342 46.2411 10.6703 47.1987 10.9306 48.1069C11.0665 48.581 11.3636 48.9964 11.5012 49.4699C11.6113 49.8496 11.6145 50.2511 11.6713 50.6426C11.7281 51.0341 11.8519 51.4388 12.1453 51.7038C12.4585 51.9867 12.6675 52.3817 12.9909 52.653C13.1098 52.7527 13.2441 52.8481 13.3987 52.8628C13.5534 52.8776 13.7282 52.7805 13.7463 52.6265C13.7561 52.5439 13.7211 52.4632 13.6869 52.3872C13.4984 51.9686 13.3099 51.55 13.1216 51.1314C13.0485 50.9692 13.1019 50.8151 13.1837 50.6571C13.2657 50.4991 13.3945 50.3708 13.49 50.2204C13.5854 50.0702 13.6459 49.8772 13.5731 49.715C13.5 49.5525 13.3101 49.4581 13.2612 49.2869C13.2205 49.145 13.2917 48.9932 13.3872 48.8804C13.4826 48.7676 13.6036 48.6772 13.6914 48.5581C13.9049 48.2691 13.8683 47.824 13.6109 47.5734C13.5463 47.327 13.699 47.0447 13.8783 46.8638C14.0577 46.6831 14.2906 46.5677 14.5144 46.4467C14.7381 46.3255 14.964 46.1896 15.1126 45.9829C15.0865 45.7234 15.1877 45.4731 15.3849 45.3027C15.5821 45.1321 15.8169 45.0074 16.0057 44.8276C16.524 44.3346 16.5973 43.5471 16.9029 42.9003C17.1947 42.2821 17.7219 41.7789 18.3529 41.5159C18.6464 41.0716 18.7849 40.4684 18.8089 39.9362C18.8207 39.6725 18.7978 39.4049 18.8551 39.1472C18.9122 38.8895 19.0718 38.6331 19.324 38.555C19.6148 38.4651 19.8251 37.9887 19.7988 37.6855C19.7738 37.3834 19.5569 37.1229 19.2961 36.9659Z" fill="#002768"/>
<path d="M2.9835 8.36933C2.83731 8.53183 2.76947 8.76216 2.80444 8.97803C2.83941 9.19389 2.97613 9.39109 3.16624 9.49942C3.23986 9.54149 3.32189 9.57147 3.38421 9.62905C3.44626 9.68663 3.48281 9.78549 3.43785 9.85727C3.38342 9.9443 3.25353 9.93694 3.15809 9.89961C3.06264 9.86227 2.96483 9.80469 2.86465 9.82625C2.75606 9.84965 2.68638 9.9635 2.67718 10.0742C2.66798 10.1849 2.70584 10.2935 2.74318 10.3981C2.81601 10.6027 2.91303 10.832 3.11891 10.9009C3.41497 11 3.72208 10.6989 4.02787 10.7602C4.1809 10.7907 4.30079 10.9066 4.40676 11.021C4.51272 11.1357 4.62026 11.2587 4.76671 11.3126C4.9129 11.3668 5.10984 11.3205 5.16453 11.1746C5.2137 11.0426 5.13061 10.8959 5.15007 10.7562C5.17557 10.5738 5.35884 10.4654 5.49241 10.3387C5.85631 9.99374 5.88944 9.43527 5.89864 8.93385C5.90048 8.83788 5.9018 8.73954 5.86946 8.64909C5.83712 8.55864 5.76323 8.47687 5.66831 8.4632C5.49478 8.43848 5.38066 8.62885 5.27075 8.76558C5.17925 8.87969 4.95287 9.09924 4.79064 9.04481C4.61737 8.98696 4.40807 8.67066 4.2795 8.54129C4.13646 8.39773 3.98764 8.25022 3.79912 8.17608C3.52198 8.06801 3.18201 8.14847 2.9835 8.36933Z" fill="#002768"/>
<path d="M2.05959 8.66115C2.15819 8.67114 2.25311 8.61434 2.3191 8.54046C2.3851 8.46658 2.42875 8.37613 2.48055 8.29146C2.63883 8.03247 2.87889 7.82423 3.15786 7.70433C3.38004 7.60863 3.63798 7.55946 3.796 7.37619C3.97401 7.16979 3.94771 6.81983 3.74079 6.64235C3.40923 6.35811 2.90939 6.64576 2.63436 6.8753C2.26389 7.18451 1.98518 7.60442 1.85108 8.0685C1.81769 8.18392 1.79297 8.30645 1.82032 8.42345C1.84766 8.53993 1.94022 8.64905 2.05959 8.66115Z" fill="#002768"/>
<path d="M5.23976 29.562C5.15614 29.5615 5.04545 29.5902 5.04492 29.6738C5.04466 29.7353 5.10829 29.775 5.16377 29.8018C5.35124 29.8928 5.53871 29.9835 5.72645 30.0745C5.99411 30.2041 6.26283 30.3343 6.54627 30.4239C6.64277 30.4544 6.74742 30.4802 6.84418 30.4497C7.32929 30.2967 6.50394 29.877 6.36616 29.8139C6.01383 29.6527 5.62758 29.5649 5.23976 29.562Z" fill="#002768"/>
<path d="M7.72892 30.5764C7.62532 30.5746 7.50227 30.5825 7.44811 30.6708C7.40499 30.741 7.42839 30.8372 7.4836 30.898C7.53908 30.9587 7.61928 30.9905 7.69868 31.0121C7.8596 31.0555 8.02945 31.0647 8.19405 31.0384C8.35996 31.0118 8.58582 30.8659 8.42596 30.6905C8.27582 30.5262 7.92297 30.5801 7.72892 30.5764Z" fill="#002768"/>
<path d="M23.5133 13.2653C23.6894 13.0058 23.7657 12.6606 23.6413 12.3727C23.5127 12.0748 23.1817 11.7934 23.3155 11.4976C23.4126 11.2831 23.6897 11.2408 23.9098 11.1566C24.4178 10.9623 24.7393 10.3726 24.6271 9.84011C24.3725 8.63193 24.7888 7.32147 25.6262 6.41409C25.7337 6.29761 25.8502 6.18481 25.9175 6.04151C25.9848 5.89821 25.9917 5.71285 25.887 5.594C25.7698 5.46069 25.5618 5.4578 25.3904 5.50381C25.2189 5.54956 25.0548 5.6337 24.8776 5.63975C24.7004 5.6458 24.4982 5.53379 24.4911 5.35657C24.484 5.17672 24.6657 5.05788 24.8037 4.94219C24.9418 4.8265 25.0467 4.59327 24.9031 4.48468C24.1843 3.94093 23.2219 3.6993 22.3674 3.98642C21.8334 4.16574 21.3338 4.51992 20.7711 4.49625C20.4598 4.48337 20.1645 4.35348 19.8551 4.31693C19.5456 4.28064 19.178 4.37714 19.0573 4.66453C18.4418 5.0797 17.8089 5.6571 17.1931 6.07228C16.7898 6.34441 16.357 6.65599 16.2318 7.12611C16.1403 7.46924 16.2453 7.85785 16.4966 8.10843C16.6683 8.2796 16.8939 8.3832 17.0943 8.51966C17.2946 8.65612 17.4824 8.84859 17.5071 9.08944C17.571 9.71075 17.8542 10.3066 17.9543 10.9229C18.0245 11.3551 18.0613 11.7963 18.0085 12.2307C17.9307 12.8717 17.6538 13.4873 17.226 13.9711C17.0654 14.1527 16.9875 14.4325 16.9268 14.667C16.866 14.9018 16.8684 15.1624 16.9852 15.3749C17.0964 15.5773 17.3057 15.7298 17.3527 15.9559C17.3748 16.0616 17.3577 16.1708 17.3543 16.2788C17.3509 16.3866 17.364 16.5028 17.4342 16.5846C17.5045 16.6667 17.7805 16.6819 17.8744 16.6285C18.0821 16.5105 18.323 16.7137 18.4665 16.9046C18.6101 17.0955 18.8139 17.3198 19.0413 17.2467C19.2601 17.1765 19.3029 16.8949 19.3495 16.6698C19.5048 15.9176 20.1022 15.3291 20.7567 14.9271C21.4114 14.5251 22.1431 14.2629 22.8039 13.8714C23.0736 13.7118 23.3371 13.5249 23.5133 13.2653Z" fill="#002768"/>
<path d="M21.5023 18.1802C21.6246 18.0514 21.6788 17.8939 21.8247 17.7766C21.9803 17.6515 22.2372 17.5823 22.3345 17.3977C22.3895 17.2933 22.3755 17.1595 22.3101 17.0614C22.2446 16.9634 22.1334 16.9003 22.0172 16.8813C21.6517 16.8216 21.3057 17.1621 20.9418 17.0938C20.7435 17.0564 20.5442 16.9008 20.3617 16.987C20.2137 17.057 20.174 17.2615 20.2337 17.414C20.2934 17.5663 20.4238 17.678 20.5495 17.7829C20.7748 17.9714 21.2063 18.4915 21.5023 18.1802Z" fill="#002768"/>
<path d="M62.8584 9.17118C62.8077 9.10808 62.743 9.05681 62.6939 8.99265C62.5826 8.84725 62.5624 8.65347 62.5563 8.47073C62.5503 8.28773 62.5524 8.09789 62.4748 7.93198C62.3973 7.76633 62.2103 7.63408 62.0352 7.68719C61.7717 7.76686 61.4528 7.78526 61.1922 7.69639C60.7868 7.55835 60.5491 7.11504 60.1489 6.96228C59.7932 6.82634 59.4145 6.78086 59.0425 6.69935C58.6331 6.60942 58.2058 6.51976 57.7996 6.62309C57.3934 6.72643 57.0195 7.08665 57.05 7.50445C57.0547 7.56781 56.995 7.62697 56.9414 7.66089C56.8875 7.69455 56.8244 7.70954 56.7626 7.72373C56.487 7.78736 56.2118 7.85126 55.9362 7.91489C55.82 7.94171 55.7019 7.96879 55.5826 7.96432C55.4632 7.95959 55.3404 7.91936 55.2605 7.83075C55.059 7.60699 54.7433 7.47474 54.5082 7.28648C54.4456 7.23652 54.3741 7.18367 54.2947 7.19182C54.23 7.19839 54.1772 7.24414 54.1254 7.28358C53.8864 7.46527 53.5743 7.54757 53.2769 7.50708C52.6411 7.42057 51.9906 7.24388 51.3759 7.05983C51.1229 6.9841 50.8455 6.9933 50.5981 7.08507C50.549 7.10347 50.4972 7.12819 50.474 7.17526C50.4401 7.24414 50.4819 7.32486 50.5227 7.39007C50.6136 7.53574 50.7107 7.73425 50.7824 7.89043C50.8135 7.95801 50.7851 8.0411 50.7333 8.095C50.6817 8.14864 50.6113 8.1794 50.5426 8.20885C50.2195 8.34768 49.8961 8.4865 49.5727 8.62533C49.401 8.69895 49.2167 8.77442 49.0329 8.74076C48.8812 8.71289 48.7505 8.61193 48.6558 8.49019C48.5612 8.36845 48.4597 8.23645 48.3958 8.09605C48.3485 7.99166 48.2459 7.92041 48.1371 7.88465C48.0282 7.84863 47.912 7.84337 47.7974 7.83837C47.6215 7.83075 47.4087 7.8339 47.2494 7.75897C47.1826 7.72768 47.1029 7.7821 47.0724 7.84942C47.0422 7.91673 47.0438 7.99324 47.0296 8.06555C46.9902 8.26459 46.8256 8.42445 46.6344 8.49255C46.4433 8.56091 46.2308 8.54698 46.0357 8.4915C45.8406 8.43602 45.6168 8.39763 45.4407 8.29693C45.2064 8.16284 44.873 8.24697 44.7302 8.47572C44.6508 8.60298 44.6017 8.78336 44.4539 8.80991C44.3038 8.83699 44.1852 8.66004 44.1981 8.50807C44.2109 8.35609 44.3046 8.22515 44.3713 8.08816C44.614 7.59095 44.3222 7.03643 44.0437 6.55815C43.9472 6.3925 43.6903 6.35201 43.5476 6.47979C43.4697 6.54947 43.4245 6.65701 43.3304 6.70197C43.2286 6.75062 43.1022 6.70539 43.0235 6.62467C42.9449 6.54395 42.921 6.42116 42.8621 6.32493C42.7493 6.14061 42.6307 5.95025 42.4495 5.83272C42.2684 5.71518 42.0057 5.69336 41.8493 5.84245C41.7244 5.96155 41.7002 6.15954 41.7525 6.32414C41.8048 6.48874 41.9324 6.65254 42.0875 6.72827C42.2205 6.79321 42.2679 6.97279 42.2182 7.11215C42.1685 7.2515 42.0438 7.35247 41.9103 7.41584C41.7764 7.47921 41.6305 7.51155 41.4906 7.55967C41.1207 7.6864 40.9067 8.04557 40.563 8.23225C40.4452 8.29614 40.3577 8.41393 40.3306 8.5454C40.3035 8.67687 40.3369 8.81938 40.4197 8.92508C40.4844 9.00738 40.5751 9.06601 40.6421 9.14673C40.7089 9.22745 40.7481 9.3484 40.6903 9.43569C40.6477 9.49985 40.5635 9.52615 40.4868 9.51984C40.41 9.51379 40.3337 9.47224 40.257 9.46883C40.1371 9.46357 40.0256 9.55086 39.9788 9.66155C39.9322 9.77225 39.9422 9.9003 39.9811 10.0136C40.02 10.1272 40.0826 10.1924 40.1523 10.2902C40.212 10.3741 40.273 10.4609 40.2977 10.5608C40.3224 10.6607 40.303 10.7788 40.223 10.844C40.1336 10.9171 39.9987 10.9021 39.8954 10.8503C39.7921 10.7987 39.7066 10.7167 39.6072 10.6578C39.5079 10.5989 39.3717 10.5156 39.2933 10.6008C39.1263 10.7819 39.1311 11.0664 39.2102 11.2999C39.2894 11.5334 39.43 11.7419 39.5107 11.9748C39.5915 12.2078 39.6441 12.5288 39.4532 12.6848C39.3057 12.8054 39.0711 12.7487 38.937 12.6132C38.8029 12.4778 38.7443 12.2869 38.6901 12.1042C38.6018 11.806 38.5134 11.5081 38.4251 11.21C38.393 11.1022 38.3601 10.992 38.2942 10.9008C38.2284 10.8095 38.1225 10.7391 38.0102 10.7462C37.8111 10.7588 37.7036 10.9917 37.6944 11.191C37.6671 11.7737 38.1793 12.3188 38.0722 12.892C38.0502 13.01 37.915 13.0797 37.7954 13.0673C37.676 13.055 37.5721 12.9816 37.4809 12.9035C37.3897 12.8254 37.3026 12.7387 37.1932 12.689C37.0839 12.6393 36.9429 12.6359 36.8546 12.7171C36.7421 12.8204 36.8112 12.97 36.8088 13.1231C36.807 13.2461 36.6931 13.3389 36.5777 13.3818C36.4623 13.4247 36.3358 13.4375 36.2278 13.4962C36.1218 13.5538 36.0403 13.6524 35.9283 13.6968C35.7752 13.7578 35.521 13.7044 35.5168 13.5398C35.5136 13.4165 35.4042 13.305 35.2809 13.2998C35.1279 13.2935 35.0064 13.4254 34.9273 13.5567C34.8481 13.6879 34.789 13.8603 34.6554 13.9348C34.6207 14.0289 34.5082 14.0717 34.408 14.0699C34.3076 14.0681 34.2103 14.0344 34.1101 14.0273C34.0199 14.021 33.9224 14.0399 33.8595 14.1049C33.7967 14.1698 33.7856 14.3402 33.855 14.398C33.8792 14.4696 33.9034 14.5427 33.9042 14.6184C33.9047 14.6938 33.8777 14.7738 33.8167 14.8182C33.712 14.8942 33.5514 14.8624 33.4346 14.8069C33.2832 14.7349 33.102 14.8545 33.0257 15.0038C32.9495 15.1532 32.9398 15.327 32.8859 15.4858C32.8322 15.6446 32.7058 15.8034 32.538 15.8018C32.3653 15.8005 32.2446 15.6365 32.1533 15.4897C32.0453 15.3162 31.9372 15.1427 31.8291 14.9691C31.7913 14.9084 31.7524 14.8434 31.7532 14.7719C31.7547 14.6544 31.8675 14.5637 31.9827 14.5416C32.0981 14.5193 32.2162 14.5471 32.3321 14.5663C32.4481 14.5855 32.5735 14.5942 32.6768 14.5384C32.858 14.4409 32.8901 14.1772 32.7957 13.9944C32.701 13.8117 32.5922 13.6589 32.3905 13.6169C31.8673 13.5083 31.3012 13.3747 30.9641 12.9598C30.8452 12.8139 30.7564 12.6343 30.5944 12.538C30.4359 12.4442 30.2334 12.4505 30.0596 12.5112C29.8855 12.5722 29.7562 12.7297 29.5829 12.7926C28.8346 13.0642 28.3192 13.6805 27.8468 14.321C27.597 14.6599 27.5126 15.0885 27.3701 15.4847C27.2275 15.881 26.9641 16.3001 26.5849 16.4834C26.516 16.5168 26.4458 16.5509 26.3906 16.604C26.3354 16.6572 26.2965 16.7332 26.3073 16.8089C26.3178 16.8849 26.3746 16.9461 26.3988 17.0192C26.4235 17.0934 26.413 17.1738 26.4025 17.2511C26.3756 17.4468 26.3772 17.6445 26.3712 17.8419C26.368 17.9447 26.3959 18.0512 26.4642 18.128C26.5326 18.2048 26.6454 18.245 26.7427 18.2122C26.8976 18.1596 26.9572 17.9574 27.1082 17.8943C27.2644 17.8288 27.4479 17.9518 27.5099 18.1093C27.572 18.2668 27.5178 18.4441 27.5615 18.6079C27.5993 18.7499 27.6372 18.8918 27.6748 19.0338C27.7042 19.1448 27.7458 19.2702 27.8517 19.3144C27.9517 19.3562 28.0642 19.3062 28.1607 19.257C28.3082 19.1821 28.4589 19.1048 28.5706 18.9831C28.6824 18.8613 28.7599 18.6846 28.741 18.5206C28.6395 17.6363 28.3579 16.5759 28.9114 15.8789C29.0265 15.7337 29.1514 15.5962 29.2845 15.4671C29.3765 15.378 29.474 15.2917 29.5895 15.236C29.7049 15.1803 29.8411 15.1574 29.9623 15.1984C30.0835 15.2397 30.1837 15.3541 30.1845 15.4821C30.1853 15.6025 30.1053 15.7067 30.0294 15.8003C29.9008 15.9585 29.8096 16.1308 29.6652 16.2749C29.478 16.4618 29.4422 16.7813 29.5832 17.0053C29.7241 17.229 30.0178 17.2782 30.2815 17.2593C30.5331 17.2411 30.7877 17.2637 31.0322 17.3258C31.115 17.3468 31.2126 17.3913 31.2176 17.4765C31.2226 17.5614 31.1297 17.6177 31.0472 17.6376C30.8673 17.681 30.6699 17.6518 30.5024 17.7305C30.2865 17.8317 30.1598 18.1285 30.2552 18.347C30.307 18.4654 30.1845 18.5908 30.0609 18.6286C29.9376 18.6665 29.7982 18.6626 29.691 18.7343C29.4951 18.8653 29.5166 19.154 29.4338 19.3743C29.3221 19.6717 29.0008 19.8484 28.685 19.8818C28.3692 19.9152 28.0358 19.876 27.7266 19.8037C27.4797 19.7458 27.278 19.5297 27.2373 19.2794C27.227 19.2171 27.226 19.1527 27.2041 19.0932C27.1826 19.0341 27.1331 18.9786 27.07 18.9747C26.992 18.9697 26.9283 19.0475 26.9199 19.1253C26.9115 19.2031 26.9425 19.2794 26.973 19.3514C27.0248 19.4742 27.0682 19.5573 27.0627 19.6904C27.0572 19.8252 26.9688 19.9446 26.861 20.0259C26.7532 20.1071 26.6262 20.1573 26.5045 20.2157C26.0317 20.4426 25.5645 20.775 25.3725 21.2632C25.305 21.4352 25.1125 21.5164 24.9387 21.5798C24.7497 21.649 24.5609 21.7181 24.3718 21.7873C24.2054 21.848 24.015 21.9358 23.9803 22.1094C23.9488 22.2668 24.0652 22.4146 24.1891 22.5169C24.3129 22.6189 24.4586 22.7099 24.5225 22.8569C24.5743 22.9757 24.5609 23.1203 24.4886 23.2279C24.416 23.3354 24.2853 23.3961 24.156 23.3972C23.898 23.3993 23.6317 23.403 23.3963 23.5084C23.079 23.6507 22.9388 23.9675 22.8418 24.3017C22.7235 24.7098 22.8715 25.182 23.2018 25.4494C23.532 25.7168 24.0247 25.7631 24.3992 25.5625C25.1128 25.1799 25.2308 24.1287 25.9279 23.7169C26.2844 23.5063 26.7224 23.5074 27.1363 23.5142C27.8315 23.5258 28.2719 24.3527 28.4589 25.0224C28.4915 25.1389 28.5277 25.2743 28.6384 25.3227C28.7255 25.3608 28.8309 25.3266 28.9022 25.2635C28.9734 25.2004 29.0179 25.1131 29.0605 25.0282C29.1304 24.8891 29.2022 24.7358 29.1683 24.5838C29.1199 24.3664 28.8861 24.2559 28.6942 24.1429C28.4394 23.993 28.2172 23.7877 28.0479 23.5452C27.9843 23.454 27.9264 23.3349 27.9785 23.2365C28.0237 23.1511 28.1381 23.1224 28.2319 23.1456C28.3258 23.169 28.4042 23.2318 28.4791 23.2931C29.1275 23.8232 29.6968 24.4826 29.8916 25.2974C29.9145 25.3934 29.9344 25.4925 29.9868 25.5764C30.0388 25.6603 30.1324 25.7268 30.2305 25.7152C30.3614 25.7 30.4419 25.553 30.4387 25.4213C30.4356 25.2895 30.3741 25.1673 30.3281 25.0437C30.282 24.9201 30.2521 24.7779 30.3102 24.6595C30.4196 24.5717 30.5865 24.5935 30.7027 24.6722C30.819 24.7508 30.8957 24.8738 30.9694 24.9932C31.1466 25.2809 31.324 25.5688 31.5013 25.8564C31.6017 26.0194 31.7537 26.1249 31.9446 26.1425C32.1352 26.1598 32.3248 26.1109 32.5128 26.0744C32.7008 26.0378 32.9001 26.0139 33.0799 26.0794C33.3181 26.1659 33.4862 26.4159 33.4764 26.6691C33.4675 26.9011 33.3507 27.1198 33.1417 27.2205C32.9327 27.321 32.6905 27.3173 32.4583 27.3115C32.0866 27.3023 31.715 27.2931 31.3432 27.2839C31.0903 27.2776 30.8334 27.2705 30.5931 27.1913C30.3572 27.1135 30.1109 26.966 29.8784 27.0538C29.7336 27.1085 29.6371 27.2423 29.5442 27.3662C29.4514 27.49 29.3423 27.6183 29.1911 27.6515C29.0399 27.6846 28.8522 27.5618 28.8835 27.4104C28.7189 27.1398 28.3374 26.9373 28.0229 26.9C27.9172 26.8874 27.801 26.8876 27.7192 26.8195C27.5833 26.706 27.6304 26.4932 27.6301 26.316C27.6298 26.0089 27.4297 25.711 27.1455 25.5948C26.7424 25.4299 26.2678 25.517 25.8537 25.6519C25.4396 25.7867 25.0415 25.9829 24.6108 26.0476C24.4305 26.0747 24.2453 26.0783 24.0702 26.1296C23.8951 26.1809 23.7245 26.2916 23.6611 26.4627C23.3503 27.3002 22.5337 27.9068 22.0028 28.6248C21.6505 29.1013 21.2934 29.5867 21.0936 30.1446C20.9918 30.4288 21.0055 30.7336 20.981 31.0344C20.9653 31.2313 20.9492 31.4282 20.9334 31.6252C20.9237 31.7467 20.9137 31.8687 20.9248 31.9899C20.9437 32.1992 21.0257 32.4024 21.1577 32.5662C21.544 32.6738 21.7506 33.1618 21.8753 33.543C21.9999 33.9243 22.1022 34.3452 22.4132 34.5984C22.6809 34.8164 23.0577 34.8611 23.3969 34.7967C23.7363 34.7323 24.0482 34.5713 24.355 34.4125C25.0547 34.0499 25.9591 34.4273 26.6428 34.8193C26.7666 34.8903 26.9012 34.9442 27.0119 35.0341C27.1731 35.1653 27.3493 35.3268 27.3448 35.5347C27.3414 35.6993 27.2236 35.8368 27.1681 35.9917C27.074 36.2554 27.1855 36.5775 27.4224 36.7266C28.1412 37.1783 28.391 38.2666 28.1021 39.0649C27.9964 39.3573 27.8212 39.6236 27.745 39.9249C27.6687 40.2263 27.7234 40.5962 27.9856 40.7632C28.3316 40.9832 28.4031 41.4439 28.477 41.8472C28.5377 42.1788 28.5149 42.5201 28.5551 42.8545C28.5953 43.1893 28.7144 43.5379 28.986 43.7377C29.3833 44.0301 28.9876 44.7918 29.29 45.1815C29.4767 45.4221 29.813 45.4876 30.1174 45.4836C30.8166 45.4744 31.5078 45.1799 31.999 44.6822C32.249 44.4287 32.5477 44.1908 32.6534 43.8508C32.7215 43.6318 32.7344 43.3886 32.8651 43.2C32.9968 43.0099 33.2227 42.9124 33.4054 42.7704C33.5882 42.6284 33.7383 42.3792 33.6331 42.173C33.4407 41.7962 33.5579 41.2864 33.8061 40.9441C34.007 40.6669 34.3139 40.4887 34.5613 40.2523C34.8087 40.0159 35.0051 39.6615 34.8886 39.3396C34.6423 38.6594 34.6286 37.8938 34.7963 37.1899C34.9641 36.486 35.4255 35.8305 36.0902 35.5455C36.5385 35.3533 36.8717 34.9807 37.1254 34.5643C37.3789 34.1475 37.4357 33.5709 37.1291 33.1915C36.9624 32.9848 36.6503 32.8894 36.3892 32.8412C36.1281 32.7931 35.8549 32.7721 35.6206 32.6475C35.4135 32.5373 35.2502 32.3477 35.1716 32.1266C35.1153 31.9683 34.9333 31.9036 34.8158 31.7835C34.6872 31.652 34.5981 31.4882 34.5105 31.3267C34.3599 31.0488 34.209 30.7706 34.0583 30.4927C33.7436 29.9122 33.4759 29.2701 33.1638 28.688C33.1146 28.5964 33.0644 28.5007 33.061 28.3969C33.0576 28.293 33.1162 28.1794 33.2174 28.1558C33.3373 28.1279 33.4443 28.2304 33.5232 28.3248C34.1837 29.1155 34.7311 30.0005 35.1437 30.9447C35.2896 31.2786 35.3574 31.653 35.5717 31.9475C35.786 32.242 36.125 32.471 36.4889 32.4571C36.7731 32.4463 37.0297 32.2936 37.2724 32.1453C37.6415 31.9197 38.011 31.6938 38.3801 31.4682C38.6152 31.3246 38.8534 31.1782 39.039 30.9749C39.2247 30.7717 39.3538 30.4998 39.3243 30.2258C39.2949 29.9521 39.074 29.6921 38.799 29.6779C38.409 29.6821 37.9999 29.6037 37.636 29.4639C37.4288 29.3842 37.2098 29.2588 37.1512 29.0448C37.0807 28.7873 36.9101 28.5791 36.6882 28.4311C36.6235 28.3879 36.5538 28.3506 36.5002 28.2943C36.4465 28.2383 36.4108 28.1568 36.4331 28.0824C36.4515 28.0217 36.5057 27.9767 36.5656 27.9557C36.6256 27.9346 36.6905 27.9341 36.7539 27.9386C36.8688 27.9465 36.9847 27.9699 37.0852 28.0264C37.3016 28.1479 37.4246 28.4035 37.6218 28.5539C37.819 28.7043 38.0654 28.8057 38.3123 28.7813C38.4427 28.7684 38.5718 28.7211 38.7014 28.7397C38.8579 28.7621 38.983 28.8749 39.1098 28.9693C39.2365 29.0637 39.3956 29.1473 39.5465 29.1C39.974 28.9664 40.4584 29.1686 40.9051 29.2025C41.0276 29.212 41.1543 29.2225 41.2616 29.2819C41.3689 29.3413 41.4517 29.4641 41.4249 29.5838C41.3736 29.8104 41.4478 30.0586 41.6402 30.1888C41.8327 30.3189 42.1077 30.3118 42.2934 30.1719C42.4293 30.0691 42.6215 30.209 42.6872 30.3665C42.753 30.5237 42.7356 30.7012 42.734 30.8719C42.7309 31.2242 42.8 31.5773 42.9362 31.9023C43.1334 32.3727 43.354 32.8483 43.6409 33.2701C43.7285 33.3989 43.8378 33.5391 43.993 33.5514C44.1589 33.5648 44.3006 33.4171 44.3503 33.258C44.4 33.0989 44.3842 32.9283 44.3916 32.7618C44.4142 32.2489 44.675 31.7511 45.0841 31.4409C45.3563 31.2342 45.579 30.9565 45.8559 30.7562C45.9784 30.6676 46.1093 30.5669 46.1469 30.4204C46.1785 30.2982 46.1411 30.1541 46.2171 30.0528C46.2692 29.9834 46.3633 29.9563 46.4501 29.9627C46.5366 29.9692 46.6181 30.0042 46.698 30.0386C46.9646 30.1541 47.2394 30.275 47.4374 30.4877C47.5599 30.6192 47.674 30.763 47.7132 30.9387C47.7524 31.114 47.7611 31.2981 47.8302 31.4643C47.8994 31.6302 48.0529 31.7803 48.2325 31.7706C48.3203 31.7659 48.4037 31.7238 48.4915 31.7248C48.6169 31.7267 48.7266 31.8187 48.7857 31.9291C48.8449 32.0396 48.8628 32.1668 48.8798 32.2909C48.9637 32.902 48.8691 33.5598 49.1273 34.1199C49.2056 34.29 49.3082 34.448 49.4099 34.6053C49.5651 34.8445 49.7202 35.0841 49.8756 35.3233C49.9613 35.4556 50.0886 35.5116 50.2379 35.5616C50.3289 35.5921 50.4427 35.6044 50.5082 35.5342C50.5542 35.485 50.5595 35.4083 50.539 35.3441C50.5185 35.28 50.4764 35.2253 50.4348 35.1722C50.2918 34.9884 50.1927 34.7843 50.0652 34.5895C49.9387 34.3962 49.8112 34.2038 49.6829 34.0118C49.5722 33.8462 49.4591 33.6784 49.3973 33.4891C49.3353 33.2998 49.33 33.0826 49.4291 32.9099C49.4878 32.8079 49.5409 32.7227 49.6576 32.7087C49.7744 32.6948 49.8969 32.7511 49.9626 32.8486C49.9708 32.9714 50.1193 33.0398 50.2363 33.0781C50.3533 33.1163 50.4866 33.1484 50.5524 33.2522C50.615 33.3513 50.5947 33.4878 50.6628 33.5832C50.7149 33.6563 50.8171 33.6889 50.9018 33.66C50.9867 33.6311 51.0475 33.5428 51.0441 33.4531C51.0399 33.3385 51.1553 33.1817 51.2494 33.1163C51.3435 33.0508 51.4495 32.999 51.526 32.9136C51.6701 32.7521 51.6659 32.48 51.5168 32.323C51.12 31.9055 50.7327 31.4451 50.6094 30.8824C50.5868 30.7796 50.5708 30.6723 50.5944 30.5698C50.6178 30.4672 50.6886 30.3697 50.7901 30.3415C51.0441 30.2708 51.313 30.2598 51.5754 30.2343C51.7406 30.2182 51.9075 30.2017 52.0653 30.1506C52.2233 30.0994 52.374 30.0102 52.4692 29.874C52.669 29.5888 52.9982 29.4305 53.2874 29.2364C53.4228 29.1457 53.5622 29.015 53.5519 28.8525C53.5403 28.6701 53.5971 28.5047 53.7021 28.3551C53.807 28.2055 53.939 28.0737 54.0228 27.9112C54.1067 27.7487 54.1333 27.5379 54.0241 27.3912C53.9282 27.2621 53.8322 27.1185 53.7949 26.9621C53.7652 26.8379 53.7699 26.7086 53.7536 26.5821C53.7194 26.3158 53.5893 26.0628 53.3923 25.8803C53.228 25.7281 53.2017 25.4228 53.3484 25.2535C53.4302 25.1591 53.5601 25.0936 53.5856 24.9714C53.6127 24.8415 53.5041 24.7234 53.3931 24.6506C53.2821 24.5778 53.152 24.5162 53.0934 24.3971C53.0197 24.2478 53.0984 24.054 53.239 23.9654C53.38 23.8768 53.5635 23.8794 53.7207 23.9338C53.9884 24.0267 54.1887 24.2499 54.352 24.4813C54.5524 24.7647 54.6455 25.1099 54.7806 25.4297C54.8198 25.5222 54.8621 25.619 54.9428 25.6787C55.0848 25.7836 55.3033 25.7263 55.4127 25.5877C55.5221 25.4491 55.5389 25.2561 55.505 25.0829C55.4632 24.8696 55.2804 24.6627 55.1477 24.4907C55.0514 24.3661 54.9526 24.2365 54.9144 24.0835C54.8503 23.8258 54.9694 23.5615 55.0853 23.3228C55.2068 23.0727 55.332 22.8174 55.531 22.6236C55.6685 22.4896 55.836 22.3902 55.9806 22.2634C56.125 22.1367 56.2509 21.9695 56.2607 21.7775C56.3046 20.9285 56.6424 20.1318 56.461 19.3012C56.3782 18.9223 56.2002 18.5721 55.9938 18.244C55.8442 18.006 55.6543 17.7757 55.3919 17.6747C55.3467 17.6574 55.2999 17.644 55.2552 17.6253C55.0562 17.5427 54.9073 17.3503 54.8771 17.137C54.8469 16.9238 54.9368 16.6977 55.1051 16.563C55.3078 16.4011 55.3378 16.1274 55.2944 15.8713C55.2707 15.7314 55.2152 15.5899 55.2478 15.4519C55.2752 15.3362 55.3622 15.2421 55.4634 15.1797C55.5647 15.1174 55.6798 15.083 55.7937 15.0491C56.2714 14.9068 56.7907 15.0054 57.2727 14.8792C57.4541 14.8316 57.6421 14.7677 57.7657 14.6268C57.8893 14.4859 57.9179 14.2455 57.7791 14.1196C57.762 13.8887 57.7447 13.6405 57.7276 13.4099C57.7199 13.3082 57.7128 13.2043 57.7391 13.106C57.7654 13.0076 57.8325 12.914 57.93 12.8841C58.1601 12.8131 58.3899 13.116 58.6155 13.0318C58.7009 13.08 58.783 12.975 58.8095 12.8804C58.8361 12.786 58.8516 12.6698 58.9405 12.6282C59.0309 12.5859 59.1411 12.6606 59.174 12.755C59.2068 12.8494 59.1847 12.953 59.1627 13.0502C59.1143 13.2624 59.0662 13.4746 59.018 13.6868C58.8797 14.2947 58.7414 14.9026 58.6034 15.5105C58.5264 15.8492 58.6094 16.2186 58.8087 16.5031C59.1803 17.0332 59.4498 17.6453 59.7508 18.2185C59.789 18.2908 59.8334 18.3691 59.9102 18.3973C60.054 18.4498 60.1936 18.2818 60.197 18.1285C60.2005 17.9752 60.1252 17.8317 60.1021 17.6802C60.0464 17.3127 60.2962 16.9769 60.4042 16.6214C60.563 16.0984 60.4042 15.5194 60.1037 15.0633C59.9183 14.7819 59.6328 14.5718 59.5894 14.2379C59.5463 13.904 59.7101 13.5309 60.0224 13.4047C60.1484 13.3537 60.2864 13.345 60.4211 13.3274C60.5557 13.31 60.6945 13.2811 60.8023 13.1988C60.9101 13.1162 60.9769 12.9664 60.9256 12.8407C60.8341 12.6167 60.9503 12.3656 61.085 12.1647C61.2196 11.9638 61.3837 11.759 61.386 11.5171C61.3873 11.3919 61.3492 11.2481 61.4328 11.155C61.4738 11.1093 61.5362 11.0885 61.584 11.0496C61.7168 10.9423 61.681 10.6936 61.5235 10.6281C61.3379 10.5508 61.1641 10.4025 61.1076 10.2098C61.0524 10.0212 61.0792 9.81984 61.1065 9.62527C61.1318 9.44595 61.1588 9.26058 61.2548 9.10677C61.3508 8.95295 61.5348 8.8391 61.7107 8.88222C61.8859 8.92534 62.0702 8.94848 62.1953 9.07837C62.2724 9.1583 62.3268 9.25637 62.3944 9.34446C62.4619 9.43254 62.5487 9.51352 62.657 9.53666C62.7654 9.5598 62.8958 9.50458 62.9242 9.39731C62.946 9.31711 62.9089 9.23429 62.8584 9.17118ZM34.4587 23.9885C34.3891 24.1763 34.1629 24.2609 33.9634 24.2504C33.7635 24.2399 33.5748 24.1592 33.3791 24.1176C32.9316 24.0225 32.4428 24.1452 32.0934 24.4405C31.9435 24.567 31.7095 24.8013 31.506 24.6275C31.3627 24.5052 31.3687 24.2502 31.4258 24.0908C31.5925 23.6244 31.8081 23.2279 32.177 22.8924C32.2619 22.8153 32.3466 22.738 32.4315 22.661C32.481 22.616 32.5314 22.5705 32.5919 22.5427C32.7965 22.4488 33.0281 22.5829 33.2127 22.7112C33.4927 22.906 33.7727 23.1011 34.053 23.296C34.1719 23.3785 34.2928 23.4635 34.3783 23.5799C34.4637 23.6967 34.5092 23.8531 34.4587 23.9885ZM37.3258 25.437C37.0655 25.6087 36.7286 25.4189 36.5872 25.1828C36.4371 24.9322 36.4373 24.6043 36.3913 24.323C36.2956 23.7398 35.6327 23.1303 35.9141 22.5264C36.0206 22.2979 36.2877 22.1477 36.5343 22.2003C36.781 22.2526 36.9682 22.5203 36.9106 22.7659C36.8672 22.9505 36.711 23.0898 36.6519 23.2699C36.5646 23.5366 36.7087 23.825 36.8917 24.0377C37.0747 24.2504 37.3029 24.43 37.4341 24.6779C37.5656 24.9262 37.56 25.2824 37.3258 25.437ZM38.9444 23.2897C38.871 23.4161 38.7464 23.566 38.5876 23.5747C38.3757 23.586 38.205 23.3496 38.2452 23.1495C38.2555 23.099 38.2776 23.052 38.2994 23.0054C38.3262 22.9486 38.353 22.8918 38.3799 22.8353C38.3998 22.7927 38.4201 22.7501 38.4401 22.7078C38.4866 22.6092 38.5413 22.5024 38.6423 22.4612C39.1295 22.2605 39.0709 23.0712 38.9444 23.2897Z" fill="#002768"/>
<path d="M23.9995 19.4394C24.1399 19.6287 24.2711 19.8517 24.239 20.0852C24.1941 20.4109 23.2152 21.1495 23.979 21.231C24.5148 21.2881 25.3933 20.8842 25.1364 20.2211C25.0086 19.8911 24.6595 19.7055 24.5296 19.375C24.4499 19.1725 24.4675 18.9453 24.4202 18.7329C24.3729 18.5204 24.2156 18.298 23.9982 18.3048C23.7626 18.3122 23.619 18.5956 23.659 18.8278C23.699 19.0603 23.8591 19.2501 23.9995 19.4394Z" fill="#002768"/>
<path d="M22.7669 20.6556C22.7777 20.7274 22.7945 20.7999 22.8321 20.862C22.87 20.924 22.9317 20.9748 23.0038 20.9837C23.1279 20.9995 23.2312 20.8948 23.3122 20.7997C23.4268 20.665 23.5433 20.527 23.6067 20.3619C23.7461 19.9996 23.4997 19.617 23.0963 19.8166C22.9523 19.8878 22.8476 20.0261 22.7963 20.1784C22.7448 20.3309 22.7427 20.4965 22.7669 20.6556Z" fill="#002768"/>
<path d="M35.24 12.3395C35.3365 12.3848 35.4635 12.4147 35.5395 12.3398C35.6931 12.1886 35.4696 11.9614 35.402 11.8268C35.3339 11.6906 35.3197 11.5626 35.2816 11.419C35.2072 11.1395 34.9022 10.692 34.5688 10.972C34.4846 11.0425 34.4428 11.1545 34.4397 11.2641C34.4365 11.3738 34.4683 11.4816 34.5112 11.5828C34.6511 11.9123 34.9158 12.1873 35.24 12.3395Z" fill="#002768"/>
<path d="M35.3438 10.1052C35.5032 9.68579 35.6744 9.45231 36.0454 9.1757C36.3501 8.94853 36.6788 8.67113 36.7069 8.29198C36.7195 8.12002 36.6143 7.90836 36.4426 7.92282C36.3517 7.93045 36.2796 8.00012 36.2157 8.06533C35.7919 8.49996 35.3683 8.93485 34.9444 9.36948C34.7417 9.57746 34.5227 9.84039 34.5908 10.1225C34.6981 10.5653 35.2111 10.4546 35.3438 10.1052Z" fill="#002768"/>
<path d="M36.9504 39.4145C36.8063 39.4516 36.72 39.5975 36.668 39.7369C36.6159 39.8763 36.5778 40.029 36.471 40.1326C36.3009 40.298 36.0093 40.2864 35.8463 40.4586C35.6857 40.6285 35.7212 40.8749 35.6801 41.0863C35.6441 41.2722 35.5637 41.4018 35.4343 41.5351C35.1837 41.7925 35.1256 42.1356 35.4251 42.4143C35.6415 42.6158 35.9983 42.6449 36.2444 42.4817C36.5123 42.3039 36.6146 41.9618 36.658 41.6432C36.7011 41.3245 36.7079 40.9898 36.8594 40.7061C36.948 40.5399 37.081 40.4021 37.1883 40.2475C37.2956 40.0926 37.3797 39.9065 37.349 39.7206C37.3179 39.5344 37.1328 39.3675 36.9504 39.4145Z" fill="#002768"/>
</g>
</g>
<path d="M53.1833 23L59.2486 8.76111H59.2792L65.3444 23H62.5792L61.5556 20.5556H56.8806L55.8569 23H53.1833ZM57.7972 18.3556H60.6389L60.0431 16.95C59.8801 16.5731 59.7273 16.2116 59.5847 15.8653C59.4523 15.5088 59.325 15.0963 59.2028 14.6278C59.0907 15.0861 58.9685 15.4935 58.8361 15.85C58.7037 16.2065 58.556 16.5731 58.3931 16.95L57.7972 18.3556ZM66.5337 23V13.8333H68.9171V15.4069C69.2328 14.8773 69.63 14.4699 70.1087 14.1847C70.5976 13.8894 71.168 13.7417 71.8198 13.7417L72.4004 16.0944C72.2069 16.0333 71.9879 16.0028 71.7434 16.0028C70.9796 16.0028 70.3634 16.2523 69.8948 16.7514C69.4263 17.2403 69.1921 17.9431 69.1921 18.8597V23H66.5337ZM78.7077 23.2444C78.1272 23.2444 77.5924 23.1426 77.1036 22.9389C76.6249 22.7352 76.2073 22.4551 75.8508 22.0986V23H73.5591V8.33333H76.2174V14.4139C76.5536 14.1491 76.9304 13.9454 77.348 13.8028C77.7656 13.6602 78.2188 13.5889 78.7077 13.5889C79.5633 13.5889 80.3374 13.8079 81.0299 14.2458C81.7225 14.6736 82.2725 15.2542 82.6799 15.9875C83.0975 16.7208 83.3063 17.5306 83.3063 18.4167C83.3063 19.3028 83.0975 20.1125 82.6799 20.8458C82.2725 21.569 81.7225 22.1495 81.0299 22.5875C80.3374 23.0255 79.5633 23.2444 78.7077 23.2444ZM78.4022 20.9069C78.8503 20.9069 79.2577 20.7949 79.6244 20.5708C79.9911 20.3468 80.2813 20.0463 80.4952 19.6694C80.7193 19.2926 80.8313 18.875 80.8313 18.4167C80.8313 17.9583 80.7193 17.5407 80.4952 17.1639C80.2813 16.787 79.9911 16.4866 79.6244 16.2625C79.2577 16.0384 78.8503 15.9264 78.4022 15.9264C77.954 15.9264 77.5466 16.0384 77.1799 16.2625C76.8133 16.4866 76.5179 16.787 76.2938 17.1639C76.0799 17.5407 75.973 17.9583 75.973 18.4167C75.973 18.875 76.0799 19.2926 76.2938 19.6694C76.5179 20.0463 76.8133 20.3468 77.1799 20.5708C77.5466 20.7949 77.954 20.9069 78.4022 20.9069ZM89.6113 23.3056C88.5826 23.3056 87.6761 23.0917 86.8918 22.6639C86.1076 22.2361 85.4965 21.6505 85.0585 20.9069C84.6205 20.1532 84.4016 19.2926 84.4016 18.325C84.4016 17.3981 84.6155 16.5782 85.0432 15.8653C85.471 15.1421 86.0465 14.5718 86.7696 14.1542C87.503 13.7366 88.3127 13.5278 89.1988 13.5278C90.1053 13.5278 90.915 13.7366 91.628 14.1542C92.3409 14.5616 92.9011 15.1218 93.3085 15.8347C93.7261 16.5477 93.9349 17.3574 93.9349 18.2639V19.1958H88.3432C88.0886 19.1958 87.8442 19.1806 87.6099 19.15C87.3756 19.1194 87.1414 19.0838 86.9071 19.0431C87.0293 19.6542 87.3298 20.1532 87.8085 20.5403C88.2974 20.9171 88.9187 21.1056 89.6724 21.1056C90.253 21.1056 90.7724 20.9884 91.2307 20.7542C91.6992 20.5199 92.0812 20.2296 92.3766 19.8833L92.9571 22.2667C92.4988 22.613 91.9793 22.8727 91.3988 23.0458C90.8284 23.219 90.2326 23.3056 89.6113 23.3056ZM86.846 17.4389C87.3553 17.3269 87.8543 17.2708 88.3432 17.2708H89.9627C90.2479 17.2708 90.5178 17.281 90.7724 17.3014C91.027 17.3218 91.2664 17.3574 91.4905 17.4083C91.3377 16.8583 91.0576 16.4255 90.6502 16.1097C90.253 15.794 89.759 15.6361 89.1682 15.6361C88.608 15.6361 88.1192 15.7991 87.7016 16.125C87.2942 16.4407 87.009 16.8787 86.846 17.4389ZM95.4393 23V13.8333H98.0976V23H95.4393ZM96.7684 12.5042C96.3712 12.5042 96.0351 12.3667 95.7601 12.0917C95.4851 11.8167 95.3476 11.4806 95.3476 11.0833C95.3476 10.6759 95.4851 10.3398 95.7601 10.075C96.0351 9.8 96.3712 9.6625 96.7684 9.6625C97.1759 9.6625 97.512 9.8 97.7768 10.075C98.0518 10.3398 98.1893 10.6759 98.1893 11.0833C98.1893 11.4806 98.0518 11.8167 97.7768 12.0917C97.512 12.3667 97.1759 12.5042 96.7684 12.5042ZM101.205 23V15.9417H99.4936V13.8333H101.251V10.7778H103.817V13.8333H105.635V15.9417H103.863V23H101.205ZM58.7444 43.4889L53.0917 29.25H55.9944L58.3167 35.1167C58.4287 35.3917 58.5356 35.6819 58.6375 35.9875C58.7495 36.2829 58.8718 36.6444 59.0042 37.0722C59.1366 36.6444 59.2639 36.2829 59.3861 35.9875C59.5185 35.6819 59.6407 35.3917 59.7528 35.1167L62.3806 28.7917L65.0389 35.1167C65.1509 35.3917 65.2731 35.6819 65.4056 35.9875C65.538 36.2829 65.6704 36.6444 65.8028 37.0722C65.9352 36.6444 66.0574 36.2829 66.1694 35.9875C66.2815 35.6819 66.3884 35.3917 66.4903 35.1167L68.7819 29.25H71.5472L65.8944 43.4889L63.0528 36.7056C62.9407 36.4306 62.8236 36.1403 62.7014 35.8347C62.5792 35.5292 62.4519 35.1625 62.3194 34.7347C62.187 35.1625 62.0597 35.5292 61.9375 35.8347C61.8153 36.1301 61.6981 36.4153 61.5861 36.6903L58.7444 43.4889ZM76.0332 43.3056C75.0045 43.3056 74.098 43.0917 73.3137 42.6639C72.5295 42.2361 71.9183 41.6505 71.4804 40.9069C71.0424 40.1532 70.8234 39.2926 70.8234 38.325C70.8234 37.3981 71.0373 36.5782 71.4651 35.8653C71.8929 35.1421 72.4683 34.5718 73.1915 34.1542C73.9248 33.7366 74.7345 33.5278 75.6207 33.5278C76.5271 33.5278 77.3369 33.7366 78.0498 34.1542C78.7628 34.5616 79.323 35.1218 79.7304 35.8347C80.148 36.5477 80.3568 37.3574 80.3568 38.2639V39.1958H74.7651C74.5105 39.1958 74.266 39.1806 74.0318 39.15C73.7975 39.1194 73.5633 39.0838 73.329 39.0431C73.4512 39.6542 73.7517 40.1532 74.2304 40.5403C74.7193 40.9171 75.3406 41.1056 76.0943 41.1056C76.6748 41.1056 77.1943 40.9884 77.6526 40.7542C78.1211 40.5199 78.5031 40.2296 78.7984 39.8833L79.379 42.2667C78.9207 42.613 78.4012 42.8727 77.8207 43.0458C77.2503 43.219 76.6545 43.3056 76.0332 43.3056ZM73.2679 37.4389C73.7771 37.3269 74.2762 37.2708 74.7651 37.2708H76.3845C76.6697 37.2708 76.9396 37.281 77.1943 37.3014C77.4489 37.3218 77.6883 37.3574 77.9123 37.4083C77.7595 36.8583 77.4795 36.4255 77.072 36.1097C76.6748 35.794 76.1808 35.6361 75.5901 35.6361C75.0299 35.6361 74.541 35.7991 74.1234 36.125C73.716 36.4407 73.4308 36.8787 73.2679 37.4389ZM85.8334 47.8889C85.1204 47.8889 84.438 47.7819 83.7862 47.5681C83.1445 47.3644 82.5894 47.0843 82.1209 46.7278L82.7625 44.1C83.0885 44.538 83.5162 44.8944 84.0459 45.1694C84.5755 45.4546 85.1713 45.5972 85.8334 45.5972C86.7704 45.5972 87.4987 45.3273 88.0181 44.7875C88.5375 44.2579 88.7973 43.5755 88.7973 42.7403V42.0986C88.451 42.4551 88.0334 42.7352 87.5445 42.9389C87.0658 43.1426 86.5362 43.2444 85.9556 43.2444C85.1102 43.2444 84.3412 43.0255 83.6487 42.5875C82.9561 42.1495 82.401 41.569 81.9834 40.8458C81.576 40.1125 81.3723 39.3028 81.3723 38.4167C81.3723 37.5306 81.576 36.7208 81.9834 35.9875C82.401 35.2542 82.9561 34.6736 83.6487 34.2458C84.3412 33.8079 85.1102 33.5889 85.9556 33.5889C86.5463 33.5889 87.0862 33.6958 87.575 33.9097C88.0639 34.1134 88.4815 34.3986 88.8278 34.7653V33.8333H91.1195V43.1222C91.1195 44.1204 90.875 44.9759 90.3862 45.6889C89.8973 46.4019 89.2505 46.9468 88.4459 47.3236C87.6412 47.7005 86.7704 47.8889 85.8334 47.8889ZM86.2764 40.9069C86.7246 40.9069 87.132 40.7949 87.4987 40.5708C87.8653 40.3468 88.1556 40.0463 88.3695 39.6694C88.5936 39.2926 88.7056 38.875 88.7056 38.4167C88.7056 37.9583 88.5936 37.5407 88.3695 37.1639C88.1556 36.787 87.8653 36.4866 87.4987 36.2625C87.132 36.0384 86.7246 35.9264 86.2764 35.9264C85.8283 35.9264 85.4209 36.0384 85.0542 36.2625C84.6875 36.4866 84.3922 36.787 84.1681 37.1639C83.9542 37.5407 83.8473 37.9583 83.8473 38.4167C83.8473 38.875 83.9542 39.2926 84.1681 39.6694C84.3922 40.0463 84.6875 40.3468 85.0542 40.5708C85.4209 40.7949 85.8283 40.9069 86.2764 40.9069Z" fill="white"/>
</svg>
