<svg width="41" height="40" viewBox="0 0 41 40" fill="none" xmlns="http://www.w3.org/2000/svg">
<g clip-path="url(#clip0_460_388)">
<path d="M32.1128 24.7786C31.2939 23.9259 30.3062 23.47 29.2593 23.47C28.2209 23.47 27.2247 23.9175 26.3721 24.7701L23.7043 27.4295C23.4848 27.3113 23.2653 27.2015 23.0543 27.0918C22.7503 26.9398 22.4633 26.7963 22.2185 26.6443C19.7196 25.0572 17.4486 22.9888 15.2705 20.3126C14.2152 18.9787 13.506 17.8559 12.9911 16.7162C13.6833 16.083 14.3249 15.4245 14.9497 14.7914C15.1861 14.555 15.4224 14.3102 15.6588 14.0738C17.4317 12.3009 17.4317 10.0046 15.6588 8.23172L13.3541 5.92698C13.0924 5.66527 12.8222 5.39512 12.5689 5.12497C12.0624 4.60155 11.5305 4.06124 10.9818 3.5547C10.1629 2.74425 9.1836 2.31369 8.15364 2.31369C7.12368 2.31369 6.12749 2.74425 5.28327 3.5547C5.27482 3.56315 5.27482 3.56315 5.26638 3.57159L2.39601 6.46729C1.3154 7.5479 0.699112 8.86489 0.564036 10.3929C0.361421 12.8581 1.08746 15.1544 1.64465 16.6571C3.0123 20.3464 5.05533 23.7655 8.10299 27.4295C11.8007 31.8448 16.2498 35.3314 21.332 37.7881C23.2738 38.7083 25.8655 39.7974 28.7612 39.9831C28.9385 39.9916 29.1242 40 29.2931 40C31.2433 40 32.8811 39.2993 34.1643 37.9063C34.1727 37.8894 34.1896 37.881 34.1981 37.8641C34.6371 37.3322 35.1436 36.851 35.6755 36.3361C36.0385 35.9899 36.4099 35.6269 36.7729 35.247C37.6087 34.3774 38.0477 33.3644 38.0477 32.326C38.0477 31.2791 37.6003 30.2745 36.7476 29.4303L32.1128 24.7786ZM35.1351 33.6683C35.1267 33.6683 35.1267 33.6767 35.1351 33.6683C34.8059 34.0229 34.4682 34.3437 34.1052 34.6983C33.5564 35.2217 32.9993 35.7704 32.4758 36.3867C31.6232 37.2985 30.6185 37.729 29.3015 37.729C29.1749 37.729 29.0398 37.729 28.9132 37.7206C26.4058 37.5602 24.0758 36.5809 22.3282 35.7451C17.5499 33.4319 13.3541 30.1479 9.86742 25.9858C6.98861 22.5161 5.06377 19.308 3.78898 15.8635C3.00385 13.7614 2.71682 12.1236 2.84345 10.5787C2.92787 9.59093 3.30777 8.77203 4.00848 8.07132L6.8873 5.19251C7.30097 4.80416 7.73997 4.5931 8.17052 4.5931C8.70239 4.5931 9.13294 4.91391 9.4031 5.18406C9.41154 5.19251 9.41998 5.20095 9.42842 5.20939C9.9434 5.6906 10.4331 6.18869 10.948 6.72056C11.2097 6.99071 11.4799 7.26086 11.75 7.53946L14.0548 9.8442C14.9497 10.7391 14.9497 11.5664 14.0548 12.4613C13.81 12.7061 13.5736 12.951 13.3288 13.1873C12.6196 13.9134 11.9442 14.5888 11.2097 15.2473C11.1929 15.2641 11.176 15.2726 11.1675 15.2895C10.4415 16.0155 10.5766 16.7247 10.7285 17.2059C10.737 17.2312 10.7454 17.2565 10.7539 17.2818C11.3533 18.7339 12.1975 20.1016 13.4807 21.7309L13.4892 21.7394C15.8192 24.6097 18.2759 26.8469 20.9859 28.5607C21.332 28.7802 21.6866 28.9575 22.0243 29.1264C22.3282 29.2783 22.6153 29.4218 22.8601 29.5738C22.8938 29.5907 22.9276 29.616 22.9614 29.6329C23.2484 29.7764 23.5186 29.8439 23.7972 29.8439C24.4979 29.8439 24.9369 29.4049 25.0804 29.2614L27.9677 26.3742C28.2547 26.0871 28.7106 25.741 29.2424 25.741C29.7659 25.741 30.1964 26.0702 30.4581 26.3573C30.4666 26.3657 30.4666 26.3657 30.475 26.3742L35.1267 31.0259C35.9963 31.887 35.9963 32.7734 35.1351 33.6683Z" fill="white"/>
<path d="M22.1178 9.51495C24.3297 9.88641 26.3389 10.9332 27.943 12.5373C29.547 14.1413 30.5854 16.1506 30.9653 18.3625C31.0582 18.9196 31.5394 19.308 32.0881 19.308C32.1557 19.308 32.2148 19.2995 32.2823 19.2911C32.907 19.1898 33.3207 18.5988 33.2194 17.9741C32.7635 15.2979 31.4972 12.8581 29.5639 10.9248C27.6306 8.99153 25.1908 7.72518 22.5146 7.2693C21.8899 7.16799 21.3074 7.58167 21.1976 8.19795C21.0879 8.81424 21.4931 9.41364 22.1178 9.51495Z" fill="white"/>
<path d="M40.4532 17.6449C39.7019 13.238 37.6251 9.22791 34.4339 6.03673C31.2427 2.84555 27.2326 0.768753 22.8258 0.0173907C22.2095 -0.0923588 21.627 0.329755 21.5172 0.946041C21.4159 1.57077 21.8296 2.15329 22.4543 2.26304C26.3884 2.92998 29.9764 4.79572 32.8298 7.64076C35.6833 10.4943 37.5406 14.0822 38.2076 18.0163C38.3004 18.5735 38.7817 18.9619 39.3304 18.9619C39.3979 18.9619 39.457 18.9534 39.5246 18.945C40.1409 18.8521 40.563 18.2611 40.4532 17.6449Z" fill="white"/>
</g>
<defs>
<clipPath id="clip0_460_388">
<rect width="40" height="40" fill="white" transform="translate(0.5)"/>
</clipPath>
</defs>
</svg>
