<svg width="60" height="60" viewBox="0 0 60 60" fill="none" xmlns="http://www.w3.org/2000/svg">
<path d="M6.58717 17.7648H14.5426C18.4586 17.2488 15.6056 12.3567 13.3953 11.4621C13.9593 10.9015 14.3442 10.1862 14.5011 9.40665C14.658 8.62713 14.5799 7.81857 14.2768 7.08346C13.9736 6.34836 13.459 5.71983 12.7982 5.27754C12.1374 4.83525 11.3602 4.59914 10.565 4.59912C9.76985 4.59911 8.99259 4.83519 8.33176 5.27745C7.67094 5.71971 7.15631 6.34823 6.85312 7.08332C6.54994 7.81841 6.47184 8.62697 6.62874 9.4065C6.78564 10.186 7.17047 10.9014 7.73443 11.462C5.52481 12.3557 2.67037 17.2499 6.58717 17.7648ZM12.7065 8.61599C12.7002 9.17981 12.4717 9.71838 12.0708 10.1148C11.6698 10.5113 11.1287 10.7336 10.5649 10.7336C10.001 10.7336 9.45991 10.5112 9.05897 10.1148C8.65802 9.71833 8.4296 9.17975 8.42325 8.61593C8.42961 8.05211 8.65805 7.51354 9.059 7.1171C9.45996 6.72065 10.0011 6.4983 10.5649 6.49831C11.1288 6.49832 11.6699 6.72067 12.0708 7.11713C12.4718 7.51359 12.7002 8.05217 12.7065 8.61599ZM10.5646 12.6328C11.5025 12.6307 12.4138 12.9437 13.1526 13.5215C13.8913 14.0994 14.4145 14.9085 14.6383 15.8193L14.5426 15.8898H6.58717L6.49149 15.8193C6.71528 14.9086 7.23842 14.0995 7.97702 13.5217C8.71562 12.9439 9.62687 12.6308 10.5646 12.6328Z" fill="#BE0B32"/>
<path d="M43.576 53.0067C43.5115 53.2939 43.5125 53.5919 43.5787 53.8787C43.6449 54.1656 43.7748 54.4338 43.9587 54.6637C44.1426 54.8935 44.3758 55.0791 44.6411 55.2067C44.9064 55.3343 45.1969 55.4006 45.4913 55.4007L53.4468 55.4008C57.3634 54.8848 54.5101 49.9927 52.3 49.098C52.8645 48.5374 53.2498 47.8217 53.4071 47.0417C53.5643 46.2618 53.4864 45.4527 53.1832 44.7171C52.88 43.9815 52.3651 43.3525 51.704 42.9099C51.0428 42.4673 50.2651 42.231 49.4695 42.231C48.6738 42.2309 47.8961 42.4672 47.2349 42.9098C46.5737 43.3523 46.0589 43.9813 45.7556 44.7169C45.4524 45.4525 45.3744 46.2615 45.5316 47.0415C45.6888 47.8215 46.074 48.5372 46.6385 49.0979C45.8803 49.4952 45.2151 50.0492 44.6871 50.7231C44.1592 51.397 43.7804 52.1753 43.576 53.0067ZM51.6111 46.252C51.6049 46.8159 51.3765 47.3547 50.9755 47.7512C50.5744 48.1478 50.0332 48.3703 49.4692 48.3702C48.9052 48.3702 48.364 48.1478 47.963 47.7512C47.562 47.3546 47.3336 46.8159 47.3274 46.2519C47.334 45.6883 47.5626 45.1499 47.9636 44.7537C48.3646 44.3575 48.9055 44.1353 49.4692 44.1353C50.033 44.1353 50.5739 44.3575 50.9749 44.7537C51.3758 45.15 51.6045 45.6883 51.6111 46.252ZM49.4693 50.2688C50.4102 50.2658 51.3243 50.5822 52.0621 51.1662C52.7999 51.7502 53.3178 52.5672 53.531 53.4837C53.521 53.4965 53.5082 53.507 53.4937 53.5143C53.4791 53.5216 53.4631 53.5255 53.4468 53.5258H45.4913L45.3965 53.4557C45.6199 52.5449 46.1428 51.7355 46.8814 51.1576C47.62 50.5796 48.5314 50.2666 49.4693 50.2688Z" fill="#BE0B32"/>
<path d="M14.4355 36.524C18.7946 47.4493 33.5205 50.5263 41.8968 42.0193C52.6285 31.3945 45.125 13.4243 30.3166 13.077C18.4298 12.6152 9.50451 25.4572 14.4355 36.524ZM34.8498 44.2451C35.9706 42.8631 36.8399 41.2949 37.4178 39.6121C38.2906 40.0972 39.1122 40.6692 39.8701 41.3195C38.3995 42.6072 36.6952 43.6004 34.8498 44.2451ZM45.0723 29.929C45.1012 33.6542 43.7203 37.2525 41.2066 40.0018C40.2206 39.139 39.1363 38.3952 37.9763 37.7859C39.2879 32.6865 39.2787 27.3371 37.9497 22.2422C39.1272 21.6059 40.226 20.8336 41.2234 19.9412C43.6929 22.6827 45.0635 26.2393 45.0723 29.929ZM39.8731 18.6378C39.103 19.3137 38.2668 19.9104 37.3771 20.4189C36.8275 18.7767 36.0188 17.233 34.9816 15.8463C36.7751 16.4565 38.4355 17.404 39.8731 18.6378ZM30.953 15.0963C33.4934 15.9777 34.6364 18.481 35.6804 21.2351C34.1779 21.8668 32.5797 22.2407 30.953 22.3411V15.0963ZM30.953 24.2066C32.7629 24.1081 34.5443 23.7125 36.2258 23.0357C36.8244 25.2692 37.1096 27.5749 37.0733 29.8869C37.0554 32.2826 36.7754 34.669 36.2383 37.0038C34.5501 36.3305 32.7665 35.9268 30.953 35.8074V24.2066ZM35.7103 38.8121C34.6607 41.5058 33.4338 43.9524 30.9531 44.9134L30.953 37.6837C32.5883 37.8069 34.1938 38.1878 35.7103 38.8121ZM20.1176 41.3393C20.8887 40.6573 21.7272 40.0555 22.6202 39.5433C23.1848 41.1303 23.9645 42.6324 24.9375 44.0076C24.997 44.089 25.0625 44.1626 25.1243 44.2412C23.2794 43.6156 21.5775 42.6292 20.1176 41.3393ZM29.078 44.8857C28.0141 44.5257 27.0947 43.8321 26.4564 42.908C25.5493 41.6242 24.8293 40.2179 24.3179 38.7314C25.8312 38.1038 27.4416 37.7423 29.078 37.6629V44.8857ZM29.078 35.7624C27.2562 35.8428 25.4611 36.2304 23.7685 36.9087C23.089 33.9887 22.8374 30.9855 23.0213 27.9932C23.7102 20.5613 23.1775 23.9986 29.078 24.201L29.078 35.7624ZM29.078 15.0628V22.3245C27.4467 22.2311 25.8421 21.8689 24.329 21.2525C25.3934 18.2248 27.0446 15.6326 29.078 15.0628ZM25.1995 15.7164C24.0945 17.147 23.2284 18.747 22.6347 20.4543C21.7323 19.953 20.8892 19.3517 20.1214 18.6616C21.6017 17.3524 23.328 16.3512 25.1995 15.7164ZM18.7935 19.9841C19.7777 20.8813 20.873 21.6486 22.0524 22.2672C21.5269 24.1102 21.2232 26.0094 21.1477 27.9245C20.9445 31.2166 21.2479 34.5205 22.0474 37.7206C20.8779 38.3543 19.7867 39.1227 18.7958 40.0102C17.6963 38.7587 16.8077 37.3367 16.1649 35.7999C15.0379 33.1896 14.6865 30.31 15.1526 27.5053C15.6187 24.7006 16.8827 22.0895 18.7935 19.9841Z" fill="#BE0B32"/>
<path d="M20.851 10.3926C36.654 2.96644 54.436 16.6836 51.2895 33.819L50.7499 31.3971C50.6919 31.1585 50.5426 30.9521 50.3342 30.8224C50.1257 30.6926 49.8746 30.6498 49.6349 30.7032C49.3953 30.7566 49.1861 30.9018 49.0523 31.1078C48.9186 31.3137 48.871 31.5639 48.9197 31.8046L50.2926 37.9651C50.3264 38.1192 50.3993 38.2621 50.5042 38.38C50.6091 38.4978 50.7426 38.5868 50.8918 38.6382C51.0409 38.6897 51.2008 38.7019 51.3561 38.6738C51.5114 38.6457 51.6569 38.5781 51.7785 38.4776C51.829 38.4468 51.8764 38.4112 51.92 38.3711L56.0247 33.5761C56.186 33.3871 56.2657 33.1419 56.2463 32.8942C56.2268 32.6465 56.11 32.4167 55.9212 32.2551C55.7325 32.0936 55.4874 32.0135 55.2397 32.0326C54.992 32.0516 54.762 32.1681 54.6002 32.3566L53.1715 34.0255C56.4622 15.4493 37.1688 0.641975 20.059 8.69358C19.8389 8.8018 19.67 8.99197 19.5884 9.2233C19.5069 9.45463 19.5193 9.70869 19.6229 9.93099C19.7266 10.1533 19.9132 10.3261 20.1428 10.4124C20.3724 10.4987 20.6266 10.4916 20.851 10.3926Z" fill="#BE0B32"/>
<path d="M5.39976 27.6953L6.82346 26.0321C3.50862 44.3575 22.8657 59.4681 39.9487 51.3197C40.1696 51.2118 40.3392 51.0215 40.4211 50.7897C40.5031 50.558 40.4907 50.3034 40.3867 50.0806C40.2827 49.8579 40.0955 49.6849 39.8652 49.5989C39.635 49.5129 39.3801 49.5208 39.1556 49.6208C23.3629 57.1464 5.51076 43.1111 8.69966 26.1839L9.24997 28.6547C9.30784 28.8934 9.45707 29.0999 9.66558 29.2298C9.87409 29.3596 10.1252 29.4024 10.365 29.3491C10.6048 29.2957 10.814 29.1504 10.9477 28.9443C11.0814 28.7383 11.129 28.488 11.0801 28.2473L9.70727 22.0867C9.67231 21.9421 9.60376 21.8078 9.5072 21.6946C9.41064 21.5814 9.28877 21.4925 9.15146 21.4352C9.01416 21.3779 8.86529 21.3537 8.7169 21.3646C8.56851 21.3756 8.42479 21.4213 8.29737 21.4981C8.20511 21.5575 8.12223 21.6302 8.05143 21.714L3.97518 26.4758C3.81913 26.6654 3.74367 26.9087 3.76503 27.1533C3.78639 27.3979 3.90286 27.6244 4.08942 27.7841C4.27598 27.9438 4.51774 28.024 4.76275 28.0074C5.00776 27.9908 5.23648 27.8787 5.39976 27.6953Z" fill="#BE0B32"/>
</svg>
