<svg width="40" height="40" viewBox="0 0 40 40" fill="none" xmlns="http://www.w3.org/2000/svg">
<path d="M4.42875 37.5L35.5713 37.5C35.737 37.5 35.896 37.4342 36.0132 37.3169C36.1304 37.1997 36.1963 37.0408 36.1963 36.875C36.1963 36.7092 36.1304 36.5503 36.0132 36.4331C35.896 36.3158 35.737 36.25 35.5713 36.25H33.6011C33.6187 35.0422 33.5884 8.45993 33.6011 8.23212C33.6001 7.40362 33.2705 6.60933 32.6847 6.02349C32.0989 5.43765 31.3046 5.10809 30.4761 5.10712H29.4522L28.5544 3.48084C28.3903 3.18373 28.1496 2.93603 27.8573 2.76353C27.565 2.59103 27.2318 2.50003 26.8924 2.5H25.0458C24.7064 2.50003 24.3732 2.59103 24.0809 2.76353C23.7886 2.93603 23.5479 3.18373 23.3838 3.48084L22.4857 5.10712H17.5143L16.6162 3.48084C16.4521 3.18373 16.2114 2.93603 15.9191 2.76353C15.6268 2.59103 15.2936 2.50003 14.9542 2.5H13.1076C12.7682 2.50003 12.435 2.59103 12.1427 2.76353C11.8504 2.93603 11.6097 3.18373 11.4456 3.48084L10.5478 5.10712H9.52393C8.69543 5.10809 7.90113 5.43765 7.31529 6.02349C6.72945 6.60933 6.3999 7.40362 6.39893 8.23212C6.40455 8.43149 6.39488 35.0721 6.39893 36.2499L4.42871 36.25C4.26495 36.253 4.10892 36.3202 3.99419 36.4371C3.87945 36.554 3.81517 36.7112 3.81517 36.875C3.81518 37.0388 3.87947 37.196 3.99421 37.3129C4.10896 37.4298 4.26499 37.4969 4.42875 37.5ZM22.8952 26.4941V22.6013C22.892 22.4377 22.8248 22.2818 22.7079 22.1672C22.591 22.0526 22.4339 21.9884 22.2702 21.9884C22.1065 21.9884 21.9494 22.0526 21.8325 22.1672C21.7156 22.2818 21.6484 22.4377 21.6452 22.6014V26.4941C21.6464 26.8324 21.737 27.1643 21.908 27.4562C22.079 27.748 22.3242 27.9894 22.6187 28.1558V35.253C22.6156 35.4489 22.5552 35.6396 22.4451 35.8017C22.335 35.9637 22.1799 36.09 21.9989 36.1651C21.818 36.2402 21.619 36.2607 21.4265 36.2242C21.234 36.1876 21.0564 36.0956 20.9155 35.9595C20.8228 35.8668 20.7494 35.7566 20.6995 35.6353C20.6496 35.5141 20.6243 35.3841 20.625 35.253V29.0894C20.6218 28.9257 20.5546 28.7699 20.4377 28.6553C20.3208 28.5406 20.1637 28.4765 20 28.4765C19.8363 28.4765 19.6792 28.5407 19.5623 28.6553C19.4454 28.7699 19.3782 28.9258 19.375 29.0894V35.253C19.3718 35.4489 19.3114 35.6396 19.2013 35.8016C19.0912 35.9636 18.9361 36.0899 18.7552 36.165C18.5742 36.24 18.3753 36.2606 18.1828 36.224C17.9903 36.1875 17.8127 36.0956 17.6718 35.9595C17.5791 35.8668 17.5056 35.7566 17.4558 35.6353C17.4059 35.5141 17.3806 35.3841 17.3813 35.253V28.1555C17.6756 27.989 17.9205 27.7476 18.0914 27.4558C18.2622 27.164 18.3528 26.8322 18.3539 26.4941V22.6013C18.3514 22.4372 18.2845 22.2806 18.1676 22.1653C18.0506 22.0501 17.893 21.9855 17.7289 21.9855C17.5647 21.9855 17.4071 22.0501 17.2902 22.1654C17.1732 22.2806 17.1063 22.4372 17.1039 22.6014V26.4941C17.1018 26.6711 17.03 26.8401 16.9041 26.9645C16.7782 27.0889 16.6084 27.1587 16.4314 27.1587C16.2544 27.1587 16.0846 27.0889 15.9587 26.9645C15.8328 26.8401 15.7611 26.6711 15.759 26.4941V22.4585C15.76 21.63 16.0895 20.8357 16.6753 20.2498C17.2612 19.664 18.0555 19.3344 18.884 19.3335H21.116C21.9445 19.3344 22.7388 19.664 23.3247 20.2498C23.9105 20.8357 24.2401 21.63 24.241 22.4585V26.4941C24.2384 26.6708 24.1663 26.8394 24.0404 26.9635C23.9145 27.0875 23.7449 27.157 23.5681 27.157C23.3914 27.157 23.2217 27.0875 23.0958 26.9635C22.9699 26.8394 22.8978 26.6708 22.8952 26.4941ZM20.0001 14.1431C20.5188 14.1489 21.0142 14.3591 21.3789 14.7279C21.7437 15.0968 21.9482 15.5946 21.9482 16.1133C21.9482 16.632 21.7436 17.1298 21.3789 17.4987C21.0142 17.8675 20.5187 18.0777 20 18.0835C19.4813 18.0776 18.9859 17.8675 18.6211 17.4986C18.2564 17.1298 18.0519 16.632 18.0519 16.1132C18.0519 15.5945 18.2565 15.0967 18.6212 14.7279C18.9859 14.359 19.4814 14.1489 20.0001 14.1431ZM28.4583 36.25H23.6249C23.783 35.9413 23.8665 35.5998 23.8687 35.253V28.3864C24.32 28.3155 24.7312 28.086 25.0285 27.7392C25.3259 27.3924 25.4898 26.951 25.491 26.4941V22.4585C25.4897 21.5183 25.1859 20.6035 24.6247 19.8493C24.0634 19.095 23.2744 18.5413 22.3743 18.2699C22.7938 17.8097 23.0705 17.2374 23.1707 16.6228C23.271 16.0082 23.1904 15.3777 22.9389 14.808C22.6873 14.2383 22.2756 13.754 21.7539 13.414C21.2321 13.0741 20.6228 12.8931 20 12.8931C19.3773 12.8931 18.7679 13.0741 18.2462 13.4141C17.7244 13.7541 17.3127 14.2383 17.0612 14.808C16.8096 15.3777 16.7291 16.0082 16.8293 16.6229C16.9296 17.2375 17.2063 17.8097 17.6258 18.2699C16.7257 18.5413 15.9366 19.095 15.3754 19.8492C14.8141 20.6035 14.5103 21.5183 14.509 22.4585V26.4941C14.5102 26.951 14.6741 27.3924 14.9715 27.7392C15.2688 28.086 15.68 28.3155 16.1313 28.3864V35.253C16.1335 35.5995 16.2161 35.9409 16.3728 36.25H11.5418V11.5479H28.4583V36.25ZM32.3511 36.25H29.7083V11.5479H32.3511V36.25ZM24.4781 4.08508C24.5342 3.98359 24.6164 3.89897 24.7162 3.84004C24.816 3.78111 24.9298 3.75002 25.0458 3.75H26.8924C27.0083 3.75002 27.1221 3.78112 27.222 3.84005C27.3218 3.89898 27.404 3.98359 27.46 4.08508L28.0243 5.10712H23.9138L24.4781 4.08508ZM12.54 4.08508C12.596 3.98359 12.6782 3.89897 12.778 3.84004C12.8779 3.78111 12.9917 3.75002 13.1076 3.75H14.9542C15.0702 3.75002 15.184 3.78112 15.2838 3.84005C15.3836 3.89898 15.4658 3.98359 15.5219 4.08508L16.0862 5.10712H11.9757L12.54 4.08508ZM7.6489 8.23212C7.64944 7.735 7.84716 7.25841 8.19868 6.90689C8.55019 6.55538 9.02679 6.35766 9.5239 6.35712H30.4761C30.9732 6.35766 31.4498 6.55538 31.8013 6.90689C32.1528 7.25841 32.3505 7.735 32.3511 8.23212V10.2979H7.64893L7.6489 8.23212ZM7.6489 11.5479H10.2918V36.25H7.64893L7.6489 11.5479Z" fill="white"/>
<path d="M30.3808 7.70239H29.0833C28.9196 7.70558 28.7637 7.77283 28.6491 7.8897C28.5345 8.00656 28.4703 8.16371 28.4703 8.32739C28.4703 8.49107 28.5345 8.64823 28.6491 8.76509C28.7637 8.88195 28.9196 8.9492 29.0833 8.95239H30.3809C30.5445 8.9492 30.7004 8.88194 30.815 8.76507C30.9296 8.64821 30.9938 8.49105 30.9938 8.32737C30.9938 8.16369 30.9296 8.00654 30.815 7.88968C30.7003 7.77282 30.5445 7.70558 30.3808 7.70239Z" fill="white"/>
<path d="M26.488 7.70239H25.1904C25.0268 7.70558 24.8709 7.77283 24.7563 7.8897C24.6417 8.00656 24.5775 8.16371 24.5775 8.32739C24.5775 8.49107 24.6417 8.64823 24.7563 8.76509C24.8709 8.88195 25.0268 8.9492 25.1904 8.95239H26.488C26.6517 8.9492 26.8076 8.88194 26.9222 8.76508C27.0368 8.64821 27.101 8.49106 27.101 8.32737C27.101 8.16369 27.0367 8.00654 26.9221 7.88968C26.8075 7.77282 26.6517 7.70558 26.488 7.70239Z" fill="white"/>
</svg>
