<svg width="40" height="40" viewBox="0 0 40 40" fill="none" xmlns="http://www.w3.org/2000/svg">
<path d="M36.8665 2.50611L30.5665 2.5C30.4437 2.50178 30.3241 2.53947 30.2224 2.60841C30.1208 2.67736 30.0416 2.77455 29.9945 2.88799C29.9475 3.00143 29.9347 3.12617 29.9577 3.24681C29.9807 3.36745 30.0385 3.47871 30.124 3.56687L31.2568 4.7L29.1987 6.75812C29.0815 6.87532 29.0156 7.03428 29.0156 7.20002C29.0156 7.36576 29.0815 7.52472 29.1987 7.64191C29.3159 7.75911 29.4748 7.82495 29.6406 7.82495C29.8063 7.82495 29.9653 7.75911 30.0825 7.64191L32.5825 5.14191C32.6405 5.08389 32.6866 5.015 32.718 4.93918C32.7494 4.86336 32.7656 4.78209 32.7656 4.70002C32.7656 4.61795 32.7494 4.53668 32.718 4.46086C32.6866 4.38503 32.6405 4.31614 32.5825 4.25813L32.0759 3.75153L36.2415 3.7555L36.2458 7.92054C36.0036 7.71679 35.6604 7.19628 35.2973 7.23116C35.2152 7.23116 35.1339 7.24732 35.0581 7.27875C34.9823 7.31017 34.9134 7.35623 34.8554 7.41429L31.8049 10.4645C31.7468 10.5225 31.7008 10.5914 31.6694 10.6673C31.638 10.7431 31.6218 10.8243 31.6218 10.9064C31.6218 10.9885 31.638 11.0697 31.6694 11.1456C31.7008 11.2214 31.7468 11.2903 31.8049 11.3483C31.8629 11.4063 31.9318 11.4524 32.0076 11.4838C32.0834 11.5152 32.1647 11.5313 32.2468 11.5313C32.3288 11.5313 32.4101 11.5152 32.4859 11.4838C32.5617 11.4524 32.6306 11.4063 32.6886 11.3483L35.2973 8.73998L36.4301 9.8731C36.5183 9.9586 36.6296 10.0164 36.7502 10.0394C36.8709 10.0624 36.9956 10.0496 37.1091 10.0025C37.2225 9.95546 37.3197 9.87622 37.3886 9.77457C37.4576 9.67292 37.4953 9.55332 37.497 9.43051L37.4909 3.13051C37.4908 2.96495 37.4249 2.80622 37.3079 2.68916C37.1908 2.57209 37.0321 2.50626 36.8665 2.50611Z" fill="white"/>
<path d="M3.13047 37.4931L9.43053 37.4992C9.5542 37.4993 9.67514 37.4628 9.77803 37.3942C9.88092 37.3256 9.96113 37.2279 10.0085 37.1137C10.0559 36.9995 10.0683 36.8737 10.0442 36.7524C10.0201 36.6311 9.96051 36.5197 9.87303 36.4323L8.74021 35.2992L11.9171 32.1223C12.0305 32.0043 12.0932 31.8466 12.0916 31.6829C12.09 31.5193 12.0243 31.3627 11.9086 31.247C11.7928 31.1313 11.6363 31.0656 11.4726 31.064C11.309 31.0624 11.1512 31.1251 11.0333 31.2386L7.41451 34.8573C7.35646 34.9153 7.31041 34.9842 7.279 35.06C7.24758 35.1359 7.23141 35.2171 7.23141 35.2992C7.23141 35.3813 7.24758 35.4625 7.279 35.5384C7.31041 35.6142 7.35646 35.6831 7.41451 35.7411L7.92111 36.2477L3.75548 36.2437L3.75123 32.0787L4.25782 32.5849C4.37547 32.7013 4.53426 32.7665 4.69972 32.7665C4.86518 32.7665 5.02396 32.7013 5.14161 32.5849L9.69179 28.0348C9.80518 27.9168 9.86779 27.759 9.86617 27.5954C9.86455 27.4318 9.79882 27.2753 9.6831 27.1596C9.56739 27.0439 9.41092 26.9782 9.24729 26.9766C9.08366 26.975 8.92592 27.0376 8.80796 27.151L4.69969 31.2593L3.56687 30.1261C3.47868 30.0407 3.36742 29.9829 3.2468 29.96C3.12618 29.937 3.00148 29.9498 2.88806 29.9969C2.77464 30.0439 2.67747 30.1231 2.60851 30.2247C2.53956 30.3263 2.50184 30.4459 2.5 30.5686L2.50611 36.8687C2.50625 37.0342 2.57208 37.193 2.68914 37.31C2.8062 37.4271 2.96492 37.4929 3.13047 37.4931Z" fill="white"/>
<path d="M37.114 29.9906C36.9998 29.9432 36.8741 29.9307 36.7528 29.9549C36.6315 29.979 36.5201 30.0386 36.4328 30.1261L35.3 31.2593L31.2039 27.1635C31.0867 27.0463 30.9278 26.9805 30.762 26.9805C30.5963 26.9805 30.4373 27.0463 30.3201 27.1635C30.2029 27.2807 30.1371 27.4397 30.1371 27.6054C30.1371 27.7712 30.2029 27.9301 30.3201 28.0473L34.8581 32.585C34.9775 32.6979 35.1356 32.7607 35.3 32.7607C35.4643 32.7607 35.6224 32.6979 35.7418 32.585L36.2484 32.0787L36.2442 36.2437L32.0785 36.2477L32.5851 35.7411C32.6432 35.6831 32.6892 35.6142 32.7207 35.5384C32.7521 35.4625 32.7682 35.3813 32.7682 35.2992C32.7682 35.2171 32.7521 35.1359 32.7207 35.06C32.6892 34.9842 32.6432 34.9153 32.5851 34.8573L28.9731 31.2449C28.8559 31.1277 28.6969 31.0619 28.5312 31.0619C28.3654 31.0619 28.2065 31.1277 28.0893 31.2449C27.9721 31.3621 27.9062 31.5211 27.9063 31.6868C27.9063 31.8526 27.9721 32.0115 28.0893 32.1287L31.2595 35.2992L30.1267 36.4323C30.0411 36.5205 29.9833 36.6318 29.9603 36.7524C29.9373 36.873 29.9501 36.9978 29.9972 37.1112C30.0443 37.2247 30.1235 37.3219 30.2251 37.3908C30.3268 37.4597 30.4464 37.4974 30.5692 37.4992L36.8692 37.4931C37.0347 37.493 37.1935 37.4271 37.3105 37.3101C37.4276 37.193 37.4934 37.0343 37.4936 36.8687L37.4997 30.5686C37.4998 30.445 37.4631 30.324 37.3945 30.2211C37.3258 30.1183 37.2282 30.038 37.114 29.9906Z" fill="white"/>
<path d="M2.88574 10.0085C2.99996 10.0558 3.12562 10.0681 3.24685 10.044C3.36807 10.0199 3.47944 9.96042 3.56687 9.87305L4.69969 8.73993L7.35169 11.3919C7.46965 11.5053 7.62741 11.568 7.79108 11.5664C7.95474 11.5648 8.11125 11.4991 8.22698 11.3833C8.3427 11.2676 8.40842 11.1111 8.41 10.9474C8.41158 10.7838 8.34891 10.626 8.23544 10.508L5.1416 7.41424C5.02216 7.30136 4.86405 7.23846 4.6997 7.23846C4.53536 7.23846 4.37725 7.30136 4.25781 7.41424L3.75122 7.92053L3.75549 3.75549L7.92112 3.75152L7.41453 4.25812C7.35648 4.31614 7.31043 4.38503 7.27901 4.46085C7.24759 4.53667 7.23142 4.61794 7.23142 4.70001C7.23142 4.78209 7.24759 4.86335 7.27901 4.93918C7.31043 5.015 7.35648 5.08389 7.41453 5.14191L9.93953 7.66691C10.0575 7.78027 10.2152 7.84285 10.3788 7.84121C10.5425 7.83957 10.6989 7.77385 10.8146 7.65815C10.9303 7.54245 10.996 7.386 10.9976 7.22239C10.9992 7.05878 10.9366 6.90105 10.8233 6.78308L8.74024 4.7L9.87305 3.56687C9.95854 3.4787 10.0164 3.36743 10.0393 3.24679C10.0623 3.12615 10.0495 3.00141 10.0025 2.88797C9.95542 2.77453 9.87618 2.67734 9.77454 2.6084C9.6729 2.53946 9.55331 2.50177 9.43051 2.5L3.13051 2.50611C2.96496 2.50626 2.80624 2.57209 2.68918 2.68915C2.57212 2.80621 2.50629 2.96493 2.50613 3.13048L2.5 9.43054C2.49994 9.55423 2.53656 9.67516 2.60522 9.77804C2.67388 9.88092 2.7715 9.96114 2.88574 10.0085Z" fill="white"/>
<path d="M14.3792 23.4738C20.0089 28.2375 28.9685 24.0718 28.903 16.6274C28.9003 14.2737 27.964 12.0172 26.2996 10.3529C24.6352 8.68863 22.3786 7.75254 20.0249 7.75C11.7087 7.75622 8.02411 18.2769 14.3792 23.4738ZM15.4465 22.7139C15.7438 21.7312 16.3494 20.8703 17.1739 20.2585C17.9983 19.6466 18.9978 19.3164 20.0245 19.3166C21.0512 19.3168 22.0506 19.6474 22.8748 20.2596C23.699 20.8718 24.3043 21.733 24.6012 22.7158C23.2789 23.7024 21.6733 24.2352 20.0235 24.2349C18.3738 24.2345 16.7683 23.7011 15.4465 22.7139ZM17.4114 15.4276C17.4176 14.7385 17.6957 14.0797 18.1852 13.5945C18.6748 13.1094 19.3361 12.8373 20.0252 12.8373C20.7144 12.8373 21.3757 13.1094 21.8652 13.5946C22.3547 14.0797 22.6328 14.7385 22.639 15.4276C22.6326 16.1166 22.3543 16.7752 21.8648 17.2601C21.3753 17.745 20.7142 18.017 20.0252 18.017C19.3362 18.017 18.6751 17.7449 18.1856 17.26C17.6961 16.7751 17.4179 16.1166 17.4114 15.4276ZM20.0249 9C26.634 8.94931 30.1262 17.0711 25.6074 21.8083C25.3067 21.0711 24.8636 20.4005 24.3034 19.8349C23.7432 19.2692 23.0769 18.8196 22.3426 18.5119C22.8222 18.1532 23.2116 17.6877 23.48 17.1524C23.7485 16.617 23.8885 16.0265 23.889 15.4276C23.7079 10.315 16.3422 10.3148 16.1614 15.4276C16.1619 16.0265 16.302 16.617 16.5704 17.1524C16.8388 17.6877 17.2282 18.1532 17.7077 18.5119C16.9733 18.8192 16.3067 19.2684 15.7461 19.8337C15.1855 20.3989 14.7419 21.0693 14.4407 21.8062C9.92605 17.0677 13.4169 8.949 20.0249 9Z" fill="white"/>
<path d="M11.2344 9.05924C10.1848 10.2727 9.39441 11.688 8.9119 13.2181C8.42939 14.7483 8.2649 16.3609 8.42856 17.9569C8.97544 25.2696 13.94 32.397 16.8508 35.9947C17.2348 36.4619 17.7176 36.8383 18.2644 37.0967C18.8111 37.3552 19.4084 37.4893 20.0132 37.4895C20.618 37.4897 21.2153 37.356 21.7622 37.0979C22.3092 36.8398 22.7922 36.4637 23.1765 35.9967C27.3317 31.22 36.8015 16.1527 28.0151 8.2261C26.8785 7.13973 25.5324 6.29638 24.0591 5.74752C22.5857 5.19866 21.0159 4.9558 19.4456 5.03377C17.8752 5.11173 16.3372 5.50889 14.9255 6.201C13.5137 6.8931 12.2578 7.86564 11.2344 9.05924ZM27.1548 9.13309C28.1843 10.0911 29.0031 11.2528 29.5593 12.5445C30.1155 13.8361 30.3968 15.2293 30.3854 16.6355C30.4824 24.2329 24.6993 32.1537 22.2066 35.2085C21.9403 35.5321 21.6056 35.7927 21.2266 35.9716C20.8476 36.1505 20.4337 36.2433 20.0145 36.2433C19.5954 36.2433 19.1815 36.1505 18.8025 35.9716C18.4235 35.7927 18.0888 35.5321 17.8225 35.2085C13.7967 30.4102 5.44494 17.3412 12.1823 9.87403C13.0953 8.80874 14.2159 7.94078 15.4757 7.32317C16.7354 6.70555 18.1078 6.35125 19.5091 6.28191C20.9104 6.21256 22.3111 6.42963 23.6257 6.91985C24.9402 7.41008 26.141 8.16316 27.1548 9.13309Z" fill="white"/>
<path d="M23.1234 29.7578H16.8948C16.782 29.7593 16.6717 29.791 16.5754 29.8496C16.4791 29.9083 16.4004 29.9917 16.3473 30.0913C16.2943 30.1908 16.269 30.3027 16.2741 30.4154C16.2791 30.528 16.3143 30.6372 16.376 30.7316C17.1817 31.9294 18.0606 33.1181 18.9883 34.2653C19.1136 34.4169 19.2709 34.5388 19.449 34.6223C19.6271 34.7057 19.8215 34.7487 20.0182 34.748C20.2149 34.7473 20.4089 34.7029 20.5864 34.6182C20.7639 34.5335 20.9204 34.4104 21.0446 34.2579C21.6561 33.5078 22.6034 32.2868 23.6434 30.7298C23.7047 30.6353 23.7394 30.5262 23.7442 30.4137C23.7489 30.3013 23.7234 30.1896 23.6703 30.0903C23.6172 29.9911 23.5384 29.9079 23.4423 29.8494C23.3461 29.7909 23.236 29.7593 23.1234 29.7578ZM20.0753 33.4681C20.0435 33.4911 19.9836 33.5223 19.96 33.4788C19.3075 32.6722 18.6801 31.8446 18.0862 31.0078H21.9369C21.1929 32.0628 20.5361 32.9029 20.0753 33.4681Z" fill="white"/>
</svg>
