<svg width="40" height="40" viewBox="0 0 40 40" fill="none" xmlns="http://www.w3.org/2000/svg">
<path d="M3.64688 28.7308V30.4755C3.64746 30.9614 3.84076 31.4272 4.18438 31.7708C4.52799 32.1144 4.99386 32.3076 5.47976 32.3081H21.5984C25.8139 39.8836 37.3985 37.0388 37.5 28.2363C37.4992 20.4597 27.7795 16.8394 22.7057 22.6118L19.865 22.6117C18.477 19.601 17.8052 16.3098 17.9022 12.9959C17.9389 12.4639 18.1625 11.9619 18.5333 11.5787C22.5839 6.8686 16.2809 0.528648 11.538 4.54236C10.5593 5.41883 9.96604 6.64611 9.88709 7.95752C9.80815 9.26894 10.2499 10.5585 11.1164 11.5461C11.5106 11.9499 11.7442 12.4834 11.7737 13.0469C11.8633 16.3437 11.1916 19.6167 9.81075 22.6117H5.45533C4.67179 22.6126 3.92059 22.9242 3.36655 23.4783C2.8125 24.0323 2.50086 24.7835 2.5 25.5671V27.0343C2.50066 27.3991 2.61015 27.7555 2.81446 28.0577C3.01877 28.3599 3.3086 28.5943 3.64688 28.7308ZM5.47976 31.0581C5.32525 31.058 5.17708 30.9966 5.06779 30.8874C4.9585 30.7782 4.89703 30.63 4.89687 30.4755V28.8666H20.5843C20.6396 29.6144 20.7947 30.3515 21.0456 31.0581H5.47976ZM29.0259 21.0126C30.9411 21.0148 32.7773 21.7766 34.1316 23.1308C35.4859 24.4851 36.2477 26.3212 36.25 28.2364C35.853 37.8195 22.1977 37.8173 21.8024 28.2364C21.8045 26.3212 22.5662 24.4851 23.9204 23.1308C25.2746 21.7766 27.1107 21.0148 29.0259 21.0126ZM11.6199 21.5217C12.6207 18.8028 13.0971 15.9188 13.0237 13.0225C12.9876 12.1607 12.6414 11.341 12.049 10.7142C11.4462 10.0404 11.1138 9.16761 11.1157 8.2636C11.1149 7.66007 11.261 7.0654 11.5413 6.53092C11.8216 5.99643 12.2277 5.53818 12.7247 5.1957C13.2216 4.85322 13.7944 4.63681 14.3937 4.56513C14.993 4.49345 15.6007 4.56866 16.1644 4.78427C16.7281 4.99988 17.2308 5.34941 17.6293 5.8027C18.0278 6.256 18.31 6.79944 18.4515 7.38614C18.5931 7.97283 18.5897 8.58516 18.4418 9.17028C18.2939 9.7554 18.0058 10.2957 17.6024 10.7447C17.0272 11.3472 16.6897 12.1376 16.6522 12.9697C16.5588 16.2792 17.1868 19.5693 18.4925 22.6117H11.1832C11.3377 22.2523 11.4848 21.8887 11.6199 21.5217ZM3.75 25.5671C3.75048 25.1149 3.93031 24.6815 4.25001 24.3618C4.56972 24.042 5.00319 23.8622 5.45533 23.8617H21.7827C21.0919 24.9989 20.6811 26.2839 20.5841 27.6108H4.30362C4.15501 27.6041 4.01467 27.5405 3.91163 27.4332C3.80858 27.3259 3.75072 27.1831 3.75 27.0343V25.5671Z" fill="white"/>
<path d="M27.5512 30.7437C27.6093 30.8017 27.6782 30.8478 27.754 30.8792C27.8298 30.9106 27.9111 30.9268 27.9931 30.9268C28.0752 30.9268 28.1565 30.9106 28.2323 30.8792C28.3081 30.8478 28.377 30.8017 28.435 30.7437L32.5665 26.6128C32.6834 26.4955 32.7489 26.3367 32.7488 26.1711C32.7486 26.0056 32.6828 25.8469 32.5657 25.7298C32.4487 25.6127 32.2899 25.5469 32.1244 25.5468C31.9588 25.5466 31.8 25.6122 31.6827 25.729L27.9931 29.418L26.3696 27.7945C26.2516 27.6811 26.0939 27.6185 25.9303 27.6202C25.7667 27.6218 25.6103 27.6875 25.4946 27.8032C25.3789 27.9189 25.3132 28.0753 25.3116 28.2389C25.3099 28.4025 25.3725 28.5603 25.4859 28.6782L27.5512 30.7437Z" fill="white"/>
</svg>
