<svg width="40" height="40" viewBox="0 0 40 40" fill="none" xmlns="http://www.w3.org/2000/svg">
<path d="M30.0006 2.5H10.0006C9.17212 2.50097 8.37783 2.83053 7.79199 3.41637C7.20615 4.00221 6.8766 4.7965 6.87562 5.625V11.4999H5.83344C5.33632 11.5005 4.85972 11.6982 4.50821 12.0497C4.1567 12.4012 3.95898 12.8778 3.95844 13.3749V16.6251C3.96137 16.7889 4.02851 16.945 4.14541 17.0598C4.2623 17.1746 4.4196 17.239 4.58345 17.239C4.7473 17.239 4.9046 17.1746 5.02149 17.0598C5.13838 16.945 5.20551 16.7888 5.20844 16.625V13.3749C5.20865 13.2092 5.27457 13.0504 5.39173 12.9332C5.50889 12.8161 5.66774 12.7502 5.83344 12.7499H6.87562C6.87615 16.1383 6.87524 25.2413 6.87562 28.4998V31.1249C6.87617 31.622 7.07388 32.0986 7.4254 32.4501C7.77691 32.8016 8.25351 32.9993 8.75062 32.9999H10.3751V35.625C10.3756 36.1221 10.5733 36.5987 10.9248 36.9502C11.2763 37.3017 11.7529 37.4995 12.2501 37.5H14.2499C14.747 37.4995 15.2236 37.3017 15.5751 36.9502C15.9266 36.5987 16.1243 36.1221 16.1249 35.625V32.9999H23.8751V35.625C23.8757 36.1221 24.0734 36.5987 24.4249 36.9502C24.7764 37.3017 25.253 37.4995 25.7501 37.5H27.7499C28.247 37.4995 28.7236 37.3017 29.0752 36.9502C29.4267 36.5987 29.6244 36.1221 29.6249 35.625V32.9999H31.2506C31.7477 32.9993 32.2243 32.8016 32.5758 32.4501C32.9274 32.0986 33.1251 31.622 33.1256 31.1249V12.7499H34.1666C34.3323 12.7502 34.4911 12.8161 34.6083 12.9332C34.7254 13.0504 34.7913 13.2092 34.7916 13.3749V16.6251C34.7941 16.7891 34.8611 16.9456 34.978 17.0608C35.095 17.1759 35.2525 17.2404 35.4166 17.2404C35.5807 17.2404 35.7382 17.1759 35.8551 17.0608C35.9721 16.9456 36.039 16.7891 36.0416 16.625V13.3749C36.041 12.8778 35.8433 12.4012 35.4918 12.0497C35.1403 11.6982 34.6637 11.5005 34.1666 11.4999H33.1256V5.625C33.1246 4.7965 32.7951 4.00221 32.2093 3.41637C31.6234 2.83053 30.8291 2.50097 30.0006 2.5ZM8.12562 10.4999H19.3756V18.9999H8.12562V10.4999ZM8.12562 24.1248H11.875C12.2064 24.1251 12.5241 24.257 12.7585 24.4913C12.9928 24.7256 13.1246 25.0434 13.125 25.3748V26.6248C13.1246 26.9562 12.9928 27.2739 12.7585 27.5082C12.5241 27.7426 12.2064 27.8744 11.875 27.8748H8.12562V24.1248ZM14.8749 35.625C14.8747 35.7907 14.8088 35.9496 14.6916 36.0668C14.5745 36.1839 14.4156 36.2498 14.2499 36.25H12.2501C12.0844 36.2498 11.9255 36.1839 11.8083 36.0668C11.6911 35.9496 11.6252 35.7907 11.6251 35.625V32.9999H14.8749V35.625ZM28.3749 35.625C28.3748 35.7907 28.3089 35.9496 28.1917 36.0668C28.0745 36.1839 27.9156 36.2498 27.7499 36.25H25.7501C25.5844 36.2498 25.4255 36.1839 25.3084 36.0668C25.1912 35.9496 25.1253 35.7907 25.1251 35.625V32.9999H28.3749V35.625ZM31.8756 22.8748H28.125C27.4622 22.8755 26.8267 23.1391 26.358 23.6078C25.8893 24.0765 25.6257 24.7119 25.625 25.3748V26.6248C25.6257 27.2876 25.8893 27.9231 26.358 28.3917C26.8267 28.8604 27.4622 29.1241 28.125 29.1248H31.8756V31.1249C31.8755 31.2906 31.8096 31.4495 31.6924 31.5666C31.5752 31.6838 31.4163 31.7497 31.2506 31.7499C27.1985 31.7583 19.6256 31.7438 15.4998 31.7499C14.0338 31.7488 10.1742 31.7506 8.75062 31.7499C8.58491 31.7497 8.42604 31.6838 8.30886 31.5666C8.19169 31.4495 8.12579 31.2906 8.12562 31.1249V29.1248H11.875C12.5378 29.1241 13.1733 28.8604 13.642 28.3917C14.1107 27.9231 14.3743 27.2876 14.375 26.6248V25.3748C14.3743 24.7119 14.1107 24.0765 13.642 23.6078C13.1733 23.1391 12.5378 22.8755 11.875 22.8748H8.12562V20.2499H31.8756V22.8748ZM31.8744 24.1248V27.8748H28.125C27.7936 27.8744 27.4759 27.7426 27.2415 27.5082C27.0072 27.2739 26.8754 26.9562 26.875 26.6248V25.3748C26.8754 25.0434 27.0072 24.7256 27.2415 24.4913C27.4759 24.257 27.7936 24.1251 28.125 24.1248H31.8744ZM31.8756 18.9999H20.6256V10.4999H31.8756V18.9999ZM31.8756 9.24988H8.12562V5.625C8.12617 5.12789 8.32388 4.65129 8.6754 4.29977C9.02691 3.94826 9.50351 3.75054 10.0006 3.75H30.0006C30.4977 3.75054 30.9743 3.94826 31.3258 4.29977C31.6774 4.65129 31.8751 5.12789 31.8756 5.625V9.24988Z" fill="white"/>
<path d="M17.5 24.7498H22.5C22.6637 24.7466 22.8195 24.6793 22.9341 24.5625C23.0487 24.4456 23.1129 24.2884 23.1129 24.1248C23.1129 23.9611 23.0487 23.8039 22.9341 23.6871C22.8195 23.5702 22.6637 23.5029 22.5 23.4998H17.5C17.3364 23.503 17.1805 23.5702 17.0659 23.6871C16.9513 23.8039 16.8871 23.9611 16.8871 24.1248C16.8871 24.2885 16.9513 24.4456 17.0659 24.5625C17.1805 24.6793 17.3364 24.7466 17.5 24.7498Z" fill="white"/>
<path d="M17.5 28.4998H22.5C22.6637 28.4966 22.8195 28.4293 22.9341 28.3125C23.0487 28.1956 23.1129 28.0384 23.1129 27.8748C23.1129 27.7111 23.0487 27.5539 22.9341 27.4371C22.8195 27.3202 22.6637 27.2529 22.5 27.2498H17.5C17.3364 27.253 17.1805 27.3202 17.0659 27.4371C16.9513 27.5539 16.8871 27.7111 16.8871 27.8748C16.8871 28.0385 16.9513 28.1956 17.0659 28.3125C17.1805 28.4293 17.3364 28.4966 17.5 28.4998Z" fill="white"/>
<path d="M27.5 5.87488H12.5C12.3364 5.87815 12.1806 5.94544 12.0661 6.06229C11.9515 6.17914 11.8874 6.33625 11.8874 6.49988C11.8874 6.66351 11.9515 6.82061 12.0661 6.93747C12.1806 7.05432 12.3364 7.12161 12.5 7.12488H27.5C27.6636 7.1216 27.8194 7.05431 27.9339 6.93745C28.0485 6.8206 28.1126 6.66349 28.1126 6.49986C28.1126 6.33623 28.0485 6.17913 27.9339 6.06228C27.8194 5.94543 27.6636 5.87815 27.5 5.87488Z" fill="white"/>
</svg>
