<svg width="40" height="40" viewBox="0 0 40 40" fill="none" xmlns="http://www.w3.org/2000/svg">
<path d="M26.1423 24.6987C26.6662 24.8733 27.2325 24.5902 27.4072 24.0662C27.5818 23.5423 27.2987 22.976 26.7747 22.8013L26.1423 24.6987ZM20.8335 21.875H19.8335C19.8335 22.3054 20.1089 22.6876 20.5173 22.8237L20.8335 21.875ZM21.8335 14.0348C21.8335 13.4825 21.3858 13.0348 20.8335 13.0348C20.2812 13.0348 19.8335 13.4825 19.8335 14.0348H21.8335ZM26.7747 22.8013L21.1497 20.9263L20.5173 22.8237L26.1423 24.6987L26.7747 22.8013ZM21.8335 21.875V14.0348H19.8335V21.875H21.8335ZM34.8335 20C34.8335 27.732 28.5655 34 20.8335 34V36C29.6701 36 36.8335 28.8366 36.8335 20H34.8335ZM20.8335 34C13.1015 34 6.8335 27.732 6.8335 20H4.8335C4.8335 28.8366 11.9969 36 20.8335 36V34ZM6.8335 20C6.8335 12.268 13.1015 6 20.8335 6V4C11.9969 4 4.8335 11.1634 4.8335 20H6.8335ZM20.8335 6C28.5655 6 34.8335 12.268 34.8335 20H36.8335C36.8335 11.1634 29.6701 4 20.8335 4V6Z" fill="white"/>
</svg>
