<svg width="60" height="60" viewBox="0 0 60 60" fill="none" xmlns="http://www.w3.org/2000/svg">
<path d="M52.8255 8.43477C51.1779 6.78688 48.7528 6.09239 45.7225 6.32705L46.9176 5.44053C47.0165 5.36719 47.0999 5.27509 47.1632 5.16949C47.2265 5.06389 47.2684 4.94686 47.2865 4.82508C47.3045 4.70329 47.2984 4.57914 47.2685 4.45972C47.2386 4.34029 47.1855 4.22793 47.1121 4.12904C47.0388 4.03015 46.9467 3.94668 46.8411 3.88338C46.7355 3.82009 46.6184 3.77821 46.4967 3.76015C46.3749 3.74208 46.2507 3.74818 46.1313 3.7781C46.0119 3.80801 45.8995 3.86115 45.8006 3.93449L41.3406 7.24275C41.2033 7.34796 41.0975 7.48884 41.0347 7.65005C40.972 7.81125 40.9547 7.98659 40.9847 8.15696C41.0147 8.32733 41.0909 8.48618 41.205 8.61621C41.3192 8.74623 41.4668 8.84245 41.6318 8.89436L46.9547 10.4773C47.1917 10.5438 47.4453 10.5145 47.6609 10.3956C47.8764 10.2767 48.0365 10.0778 48.1067 9.8419C48.1769 9.60596 48.1515 9.3519 48.036 9.13454C47.9205 8.91718 47.7241 8.75396 47.4893 8.68012L45.8793 8.20141C53.9295 7.76934 54.4999 14.066 51.3025 22.0623C41.3849 -0.298676 8.1621 5.62398 6.81701 30.3049C6.70613 32.8818 7.02964 35.459 7.77397 37.9286C3.26185 47.5338 3.74272 55.8894 13.1903 56.2401C16.7305 56.0679 20.1909 55.128 23.3318 53.4856C25.4947 54.1365 27.7413 54.467 30 54.4666C45.2691 54.7184 56.8288 39.097 52.2258 24.5907C55.6673 17.3814 55.8946 11.5039 52.8255 8.43477ZM49.1745 21.9205L35.0629 20.9157C33.7825 20.8251 32.2083 20.5156 31.9789 19.5451C31.8588 18.8581 32.0987 18.1197 31.9079 17.3488C31.2123 14.6475 28.0173 14.4123 25.8115 14.9515C23.3167 15.558 20.399 14.9062 18.8317 13.0945C29.2624 6.36642 44.0936 10.9144 49.1745 21.9205ZM8.73624 30.9696C11.1416 29.9372 13.3482 28.1835 15.8377 27.5908C21.4498 26.5596 25.2367 29.7548 29.2681 32.6503C30.6418 33.6823 32.1735 35.1874 31.6662 36.4929C31.3531 37.3013 30.4797 37.6575 29.0785 38.1482C28.0581 38.4386 27.0982 38.91 26.2445 39.5398C24.7974 40.7482 24.3732 42.4811 23.7611 44.0643C22.8972 46.3147 21.5176 48.3311 19.733 49.9516C14.9352 47.3059 11.3325 42.9235 9.66507 37.7045C8.93563 35.5377 8.62053 33.2529 8.73624 30.9696ZM8.50021 52.7591C6.28647 50.5458 6.38906 46.0295 8.69774 40.4573C11.0575 45.8779 15.3833 50.2031 20.8041 52.5624C15.232 54.8716 10.7152 54.9741 8.50021 52.7591ZM23.1835 51.4682C22.6208 51.2779 22.0678 51.0672 21.5271 50.8323C23.2737 49.1065 24.6321 47.0279 25.5116 44.7354C26.0213 43.4244 26.4402 41.7918 27.4388 40.9844C28.1263 40.504 28.8901 40.1434 29.6979 39.9179C31.1362 39.4143 32.7663 38.8439 33.4145 37.1713C34.1624 35.2441 33.1462 33.2189 30.3932 31.1498C26.0449 27.9847 21.6801 24.5357 15.4029 25.7664C12.959 26.3436 10.9734 27.7824 8.80737 28.8519C9.13834 25.9521 10.0607 23.1511 11.5175 20.622C12.9743 18.093 14.9344 15.8897 17.2767 14.1485C18.2221 15.205 19.4102 16.0156 20.7388 16.5104C22.0673 17.0052 23.4963 17.1693 24.9024 16.9885C26.5328 16.8169 29.2835 15.8357 30.0784 17.7588C29.8412 20.8971 30.8195 22.4493 34.9298 22.7861L50.0069 23.8597C50.0782 24.0519 50.1425 24.2473 50.2084 24.4421C47.1898 30.1725 43.2965 35.3974 38.6688 39.9288C34.1378 44.5564 28.9134 48.4495 23.1835 51.4682ZM30 52.5916C28.6055 52.5912 27.2143 52.4542 25.8465 52.1826C31.0314 49.1912 35.7901 45.5155 39.9943 41.2546C44.2558 37.0499 47.9316 32.2907 50.9229 27.1051C53.6379 40.067 43.2655 52.7408 30 52.5916Z" fill="#BE0B32"/>
</svg>
