<svg width="44" height="50" viewBox="0 0 44 50" fill="none" xmlns="http://www.w3.org/2000/svg">
<path d="M38.098 0H5.63098C2.52127 0 0 2.48136 0 5.54216V28.3899C0 28.4302 0.000260783 28.4709 0.000260783 28.5112C0.0291835 33.6541 6.42793 36.1499 10.0985 32.4897L23.079 19.5467L14.3872 14.2792L16.5761 12.1244L27.0038 15.5211L31.2241 11.1925C31.9054 10.4937 33.0134 10.3121 33.8309 10.8509C34.9402 11.582 35.0322 13.0784 34.1217 13.9386L29.6689 18.1443L33.1199 28.4082L30.931 30.5627L25.5792 22.0077L14.6499 33.1758C8.52904 39.4304 12.9353 49.9224 21.758 49.9992C21.8237 49.9997 21.8897 50 21.9557 50C34.0814 50 43.9115 40.3248 43.9115 28.3896V5.72176C43.9115 2.56184 41.3087 0 38.098 0Z" fill="white"/>
<mask id="mask0_1451_1208" style="mask-type:luminance" maskUnits="userSpaceOnUse" x="0" y="0" width="44" height="50">
<path d="M38.098 0H5.63098C2.52127 0 0 2.48136 0 5.54216V28.3899C0 28.4302 0.000260783 28.4709 0.000260783 28.5112C0.0291835 33.6541 6.42793 36.1499 10.0985 32.4897L23.079 19.5467L14.3872 14.2792L16.5761 12.1244L27.0038 15.5211L31.2241 11.1925C31.9054 10.4937 33.0134 10.3121 33.8309 10.8509C34.9402 11.582 35.0322 13.0784 34.1217 13.9386L29.6689 18.1443L33.1199 28.4082L30.931 30.5627L25.5792 22.0077L14.6499 33.1758C8.52904 39.4304 12.9353 49.9224 21.758 49.9992C21.8237 49.9997 21.8897 50 21.9557 50C34.0814 50 43.9115 40.3248 43.9115 28.3896V5.72176C43.9115 2.56184 41.3087 0 38.098 0Z" fill="white"/>
</mask>
<g mask="url(#mask0_1451_1208)">
<g opacity="0.26">
<path d="M19.2922 36.3876C19.0313 36.2331 18.729 36.164 18.4319 36.0988C18.2425 36.0574 18.053 36.0165 17.8637 35.9759C17.316 35.8581 16.768 35.7401 16.2201 35.6224C16.0024 35.5755 15.7423 35.4883 15.7008 35.2727C15.6763 35.1462 15.7407 35.0214 15.7704 34.8959C15.8002 34.7704 15.7723 34.6053 15.6474 34.5665C15.5191 34.2127 15.1299 33.995 14.7802 33.8439C14.4308 33.6928 14.0538 33.5983 13.7296 33.4001C13.434 33.2189 13.1924 32.9539 13.0415 32.6449C12.8088 32.1684 12.0016 32.1886 11.467 32.2412C11.2454 32.2629 11.0287 32.3196 10.8134 32.376C10.3903 32.4868 9.96698 32.5973 9.54392 32.708C9.50001 32.7194 9.45479 32.7305 9.40904 32.7406C9.40772 32.7409 9.40693 32.7414 9.40562 32.7417C9.39983 32.7432 9.39431 32.7435 9.38853 32.7448C9.35172 32.7528 9.31464 32.7595 9.27731 32.7655C8.79561 32.8452 8.45984 32.6589 8.38491 32.6317L8.38517 32.6306C8.25476 32.5755 8.13092 32.4875 8.04415 32.3998C7.89664 32.2507 7.82802 32.0398 7.81461 31.8323C7.80094 31.6247 7.79909 31.4241 7.81671 31.2168C7.83117 31.0465 7.65842 30.9115 7.48804 30.8791C7.3174 30.8468 7.1415 30.882 6.96796 30.8711C6.79469 30.8602 6.60275 30.7815 6.55148 30.6182C6.51992 30.5178 6.54911 30.4094 6.58224 30.3092C6.66585 30.0572 6.70582 29.7329 6.92931 29.5846C7.06288 29.4958 7.22117 29.3685 7.17962 29.2153C7.15569 29.1268 7.06525 29.0667 6.97296 29.0556C6.88067 29.0445 6.78785 29.0743 6.70503 29.1154C6.27145 29.331 6.00931 29.8615 5.52814 29.927C5.12427 29.9819 4.7488 29.654 4.61366 29.2753C4.47877 28.8967 4.50796 28.464 4.52557 28.0631C4.54424 27.6361 4.86817 27.2389 5.28808 27.1289C5.49264 27.0753 5.70799 27.0851 5.91912 27.0693C6.13026 27.0536 6.30642 26.9257 6.5052 26.8538C6.78891 26.751 7.1223 26.7919 7.37183 26.9601C7.76202 27.2231 7.89612 27.72 8.16799 28.1009C8.24135 28.2039 8.35651 28.3098 8.47983 28.2759C8.57396 28.2502 8.62891 28.1475 8.62996 28.0512C8.63102 27.9552 8.64285 27.8281 8.63785 27.7321C8.62444 27.4751 8.61077 27.2161 8.6489 26.9617C8.68702 26.707 8.78089 26.4542 8.95732 26.2642C9.24102 25.9591 9.74033 25.8657 9.84025 25.4638C9.92018 25.1416 10.1857 24.897 10.4639 24.7099C10.7421 24.5228 11.0487 24.3696 11.2845 24.1328C11.4825 23.934 11.5938 23.6775 11.7229 23.4299C11.8977 23.0942 12.2435 22.8504 12.6226 22.7956C12.8916 22.7567 13.215 22.7875 13.3817 22.5761C13.5113 22.4118 13.474 22.168 13.3654 21.9894C13.2568 21.8108 13.0904 21.675 12.9526 21.5174C12.8148 21.3597 12.6968 21.1644 12.7257 20.9584C12.7541 20.7549 12.9176 20.5885 13.1072 20.5034C13.2968 20.4182 13.5103 20.4014 13.7188 20.3975C14.0948 20.3905 14.4808 20.419 14.8378 20.3031C15.1949 20.1871 15.5225 19.8748 15.5049 19.5049C15.4883 19.1566 15.1902 18.8965 14.9364 18.6532C14.8299 18.5513 14.7298 18.4206 14.6556 18.2798C14.6525 18.2744 14.649 18.2705 14.6459 18.2648C14.6383 18.2508 14.634 18.2374 14.627 18.2236C14.6212 18.211 14.6151 18.1988 14.6099 18.1861C14.4213 17.7738 14.4994 17.4118 14.506 17.3057C14.5165 17.1763 14.5078 17.0233 14.3993 16.9493C14.2683 16.86 14.0887 16.9485 13.9704 17.0533C13.8518 17.1582 13.7298 17.2889 13.5705 17.2883C13.3728 17.2876 13.2392 17.0769 13.2216 16.8831C13.204 16.6892 13.2607 16.4951 13.2492 16.301C13.2289 15.9586 12.9108 15.7485 12.6434 15.5288C12.452 15.3714 12.1669 15.3018 11.9482 15.4196C11.7915 15.5037 11.6958 15.6639 11.6077 15.8166C11.4305 16.1235 11.2488 16.4434 11.2209 16.7953C11.2007 17.0502 11.263 17.307 11.2367 17.5614C11.2233 17.6915 11.177 17.8432 11.1008 17.9656C11.1 17.9669 11.1 17.9677 11.0992 17.9692C10.9835 18.147 10.8013 18.461 10.791 18.6118C10.7692 18.845 10.7219 19.0761 10.643 19.2971C10.6083 19.3944 10.5609 19.498 10.4671 19.544C10.3343 19.6092 10.1673 19.5231 10.09 19.3983C10.0127 19.2736 9.99959 19.1222 9.97829 18.9778C9.82947 17.9773 9.13322 17.0438 8.21479 16.5911C7.85352 16.4131 7.75676 15.919 7.90321 15.5484C8.04967 15.1778 8.37203 14.9061 8.68965 14.66C9.29677 14.1895 9.93648 13.8075 10.5596 13.3577C10.8099 13.1771 11.06 12.9964 11.3103 12.8158C11.5367 12.6525 11.7752 12.4729 11.8661 12.2115C11.9143 12.073 11.9158 11.9235 11.9453 11.7801C11.9747 11.6367 12.0423 11.4876 12.1746 11.4209C12.3978 11.3083 12.6573 11.4827 12.8309 11.661C13.0867 11.924 13.2471 12.2488 13.4353 12.5606C13.4364 12.5624 13.4367 12.5637 13.4377 12.5655C13.6954 13.0029 13.4714 13.3264 13.2576 13.441C12.9544 13.6038 12.6513 13.7666 12.3481 13.9294C12.2272 13.9944 12.0862 14.1031 12.1262 14.233C12.1685 14.3707 12.3591 14.374 12.5038 14.3939C12.757 14.4286 12.9752 14.5974 13.1245 14.8018C13.2739 15.0063 13.4627 15.2252 13.5213 15.4703C13.5694 15.6719 13.8037 15.7987 14.0109 15.7622C14.2181 15.726 14.384 15.5539 14.4479 15.3567C14.5118 15.1592 14.4847 14.9421 14.4129 14.7475C14.3411 14.5528 14.3435 14.3049 14.185 14.1688C14.0908 14.088 14.1334 13.9074 14.2541 13.8758C14.3467 13.8515 14.4429 13.9064 14.5081 13.9752C14.5736 14.044 14.6209 14.1289 14.6919 14.1923C14.8081 14.2966 14.9985 14.3173 15.1586 14.2676C15.2414 14.234 15.3973 14.1212 15.3016 13.8202C15.1873 13.4783 15.0729 13.1364 14.9585 12.7946C14.8486 12.4662 14.7387 12.1375 14.6288 11.8091C14.5399 11.5435 14.4011 11.292 14.1589 11.1458C13.682 10.8575 13.2807 10.4488 13.0041 9.97005C12.8834 9.7612 12.7843 9.53682 12.6216 9.35748C12.4588 9.17839 12.1312 8.89035 11.9293 9.02518C11.5475 9.27932 11.2551 9.66156 11.1126 10.093C11.0574 10.2604 11.0242 10.4434 11.0784 10.6111C11.1341 10.7837 11.2735 10.9154 11.3763 11.0655C11.4791 11.2159 11.4781 11.4116 11.4129 11.5808C11.36 11.718 11.3053 11.8585 11.207 11.9687C11.1086 12.079 10.9559 12.1543 10.8105 12.1214C10.6272 12.08 10.5228 11.8908 10.4652 11.7143C10.3787 11.448 10.3756 11.1657 10.4019 10.8872C10.4413 10.4693 10.4808 10.0513 10.5202 9.63336C10.532 9.50706 10.5473 9.37275 10.629 9.27492C10.7461 9.13517 10.9519 9.11913 11.1323 9.08367C11.3127 9.04821 11.5185 8.94262 11.5225 8.76172C11.5249 8.65976 11.4547 8.56478 11.3629 8.51794C11.2711 8.47084 11.1615 8.4667 11.0597 8.48585C10.7453 8.54589 10.5147 8.80831 10.3411 9.07306C10.0603 9.50163 10.044 10.0454 9.80501 10.4977C9.69011 10.7154 9.68249 10.9706 9.6817 11.2159C9.68091 11.4612 9.68275 11.7146 9.58362 11.9398C9.4845 12.1647 9.25312 12.3538 9.00622 12.3228C8.77616 12.2938 8.61419 12.0969 8.44065 11.9455C8.17982 11.7182 7.80777 11.7125 7.49225 11.5674C7.35553 11.5045 7.19671 11.5767 7.06656 11.652C6.93667 11.7273 6.78785 11.8106 6.6435 11.7677C6.51545 11.7294 6.43841 11.6057 6.35007 11.5068C6.11185 11.241 5.71114 11.2692 5.36065 11.1877C5.29176 11.1716 5.22077 11.1546 5.16529 11.1116C5.10981 11.0686 5.07405 10.9923 5.10113 10.9281C5.12743 10.8655 5.20026 10.8365 5.26731 10.8218C5.33462 10.807 5.40745 10.7985 5.45951 10.7542C5.51184 10.7102 5.5334 10.5873 5.49238 10.5329C5.33515 10.3243 5.1411 10.1362 4.91498 10.0045L4.91471 10.004C4.83504 9.95427 4.67387 9.86809 4.60813 9.81167C4.60682 9.81038 4.6055 9.80934 4.60419 9.8083C4.60024 9.80494 4.59551 9.80106 4.59262 9.79795L4.59104 9.79925C4.51821 9.7405 4.4183 9.70867 4.32338 9.68977C4.18823 9.66286 4.04072 9.6419 3.9437 9.54563C3.8472 9.44987 3.82617 9.30417 3.75807 9.18693C3.65921 9.01664 3.46437 8.91726 3.2677 8.88466C3.07103 8.85205 2.84937 8.80055 2.65848 8.8567C2.36663 8.94237 2.07398 9.02803 1.77318 9.07565C1.64382 9.09609 1.51025 9.10955 1.38247 9.08056C1.25468 9.05158 1.15634 8.89863 1.0538 8.8184C0.349401 8.26716 -0.429408 7.73378 -0.889279 6.97266C-1.05414 6.69988 -1.32496 6.49103 -1.63365 6.39864C-1.94207 6.30651 -2.34514 6.24854 -2.6044 6.4372C-2.86707 6.62846 -3.13 6.81971 -3.39267 7.01096C-3.51047 7.09662 -3.63299 7.18461 -3.77603 7.21541C-3.93431 7.24957 -4.11521 7.21437 -4.24721 7.30676C-4.33581 7.36862 -4.38078 7.47731 -4.38998 7.58368C-4.39892 7.6903 -4.42521 7.81452 -4.38656 7.91442C-4.25457 8.25474 -4.13782 8.71126 -4.29953 9.0389C-4.365 9.1714 -4.54669 9.20608 -4.69209 9.1714C-4.83749 9.13672 -4.9658 9.0521 -5.10805 9.00681C-5.33102 8.93564 -5.58554 8.96825 -5.78274 9.09299C-5.97994 9.21773 -6.02279 9.42684 -6.09536 9.6463C-6.14663 9.8008 -6.06854 9.98662 -5.9213 10.0604C-5.66941 10.1867 -5.32129 9.95789 -5.04941 10.0345C-4.97474 10.0055 -4.89244 10.0819 -4.88797 10.1608C-4.88377 10.2397 -4.93162 10.3114 -4.98289 10.3722C-5.25319 10.6921 -5.65311 10.8709 -6.03384 11.0518C-6.4143 11.2327 -6.84236 11.4338 -6.99906 11.8199C-7.10029 12.0692 -7.08084 12.3629 -6.94779 12.5974C-6.90152 12.6789 -6.84236 12.7537 -6.80397 12.8393C-6.76584 12.925 -6.70747 13.0591 -6.77163 13.1279C-6.84709 13.2089 -6.87233 13.3318 -6.83447 13.4351C-6.79687 13.5384 -6.68775 13.5855 -6.57653 13.593C-6.47925 13.5994 -6.37933 13.6067 -6.2902 13.6455C-6.2008 13.6846 -6.12271 13.7622 -6.11245 13.858C-6.09773 13.9946 -6.2171 14.1054 -6.32595 14.1918C-6.53867 14.3608 -6.75165 14.5298 -6.96436 14.6988C-7.02562 14.7475 -7.09319 14.8098 -7.08531 14.8872C-7.07794 14.9586 -7.00354 15.0088 -6.93097 15.0153C-6.85813 15.0218 -6.78714 14.9954 -6.71904 14.9693C-6.4072 14.8502 -6.10562 14.6797 -5.778 14.6134C-5.50613 14.5585 -5.31445 14.3148 -5.20559 14.0637C-5.09648 13.8127 -5.04442 13.5386 -4.91558 13.2969C-4.79042 13.0617 -4.59401 12.8639 -4.35816 12.7356C-4.26587 12.6854 -4.15676 12.6447 -4.05632 12.6768C-3.95588 12.7087 -3.91959 12.8243 -3.96718 12.9172C-4.03134 13.0428 -4.15123 13.1297 -4.26114 13.2193C-4.37105 13.3091 -4.48016 13.4157 -4.50751 13.5536C-4.53485 13.6916 -4.46807 13.7894 -4.3253 13.7863C-4.11337 13.8184 -3.91906 13.6729 -3.76419 13.527C-3.60933 13.381 -3.41923 13.2068 -3.20494 13.2068C-2.58993 13.2066 -2.09246 13.8192 -1.68229 14.27C-1.36913 14.6139 -1.05887 14.9711 -0.867457 15.3929C-0.529851 16.1372 -0.383395 17.0156 -0.615039 17.7979C-0.746243 18.241 -0.601895 18.7513 -0.257189 19.0639C-0.137817 19.1724 0.0091616 19.2668 0.0628 19.4177C0.11749 19.5712 0.0591207 19.7392 0.0012753 19.8916C-0.320555 20.7394 -0.777796 21.5186 -0.887702 22.4175C-0.989457 23.2505 -1.00076 24.2013 -0.458068 24.8483C0.142998 25.565 0.322842 26.4521 0.598922 27.3408C0.728285 27.7575 0.919703 28.1555 1.16476 28.5181C1.24074 28.6304 1.34092 28.7502 1.47817 28.7559C1.56336 28.7596 1.64882 28.7122 1.68957 28.6384C1.73059 28.5647 1.70824 28.4505 1.69825 28.3672C1.67406 28.1633 1.55153 27.9857 1.43716 27.8139C1.18895 27.4415 0.823733 27.015 0.797177 26.5704C0.788763 26.4293 0.780347 26.2886 0.771933 26.1478C0.769304 26.1051 0.767201 26.0608 0.782188 26.0207C0.797438 25.9806 0.835037 25.9454 0.878421 25.9464C0.921805 25.9477 1.02093 26.0106 0.999107 26.0476C1.02724 26.5854 1.37248 27.0497 1.70377 27.4782C1.8965 27.7275 2.21334 27.9997 2.29064 28.3035C2.43183 28.8579 2.6385 29.4047 2.98347 29.8644C3.32843 30.324 3.80697 30.7083 4.37307 30.8351C4.8708 30.9467 5.42007 31.0817 5.92385 31.163C6.4321 31.245 6.88672 31.598 7.08602 32.0654C7.21039 32.3568 7.2493 32.699 7.47621 32.9223C7.72416 33.1664 8.14696 33.1464 8.49561 33.1822C8.72252 33.2054 8.93602 33.3348 9.05907 33.5238C9.18213 33.7129 9.21262 33.9578 9.13927 34.1705C9.06722 34.3799 8.90683 34.5458 8.78273 34.73C8.48903 35.1664 8.5737 35.7044 8.48298 36.2199C8.34021 37.0305 8.79929 37.8133 9.23997 38.5123C9.59361 39.0732 9.79108 39.752 10.3204 40.1573C10.9561 40.6441 11.2974 41.43 11.4055 42.2158C11.5136 43.0015 11.6937 43.9228 11.3884 44.6565C11.0303 45.517 10.6664 46.4595 10.9267 47.3534C11.0626 47.82 11.3597 48.2289 11.4973 48.695C11.6074 49.0687 11.6106 49.4639 11.6674 49.8492C11.7242 50.2346 11.848 50.6329 12.1414 50.8938C12.4546 51.1722 12.6636 51.5609 12.987 51.828C13.1059 51.9261 13.2402 52.02 13.3948 52.0345C13.5494 52.049 13.7243 51.9535 13.7424 51.8019C13.7522 51.7206 13.7172 51.6412 13.683 51.5664C13.4945 51.1544 13.306 50.7424 13.1177 50.3304C13.0446 50.1707 13.098 50.019 13.1798 49.8635C13.2618 49.7079 13.3906 49.5817 13.4861 49.4336C13.5815 49.2858 13.642 49.0959 13.5692 48.9362C13.4961 48.7763 13.3062 48.6834 13.2573 48.5149C13.2166 48.3751 13.2878 48.2258 13.3833 48.1148C13.4787 48.0038 13.5997 47.9147 13.6875 47.7975C13.901 47.5131 13.8644 47.0749 13.607 46.8283C13.5424 46.5858 13.6951 46.3079 13.8744 46.1298C14.0538 45.952 14.2867 45.8384 14.5105 45.7194C14.7342 45.6 14.9601 45.4662 15.1086 45.2628C15.0826 45.0074 15.1838 44.761 15.381 44.5933C15.5782 44.4254 15.813 44.3027 16.0018 44.1257C16.5201 43.6404 16.5934 42.8653 16.899 42.2287C17.1908 41.6203 17.718 41.1249 18.349 40.8661C18.6425 40.4287 18.781 39.8351 18.805 39.3113C18.8168 39.0517 18.7939 38.7882 18.8512 38.5346C18.9083 38.281 19.0679 38.0287 19.32 37.9518C19.6109 37.8633 19.8212 37.3943 19.7949 37.0959C19.7699 36.7986 19.553 36.5421 19.2922 36.3876Z" fill="#002768"/>
<path d="M2.97959 8.23713C2.8334 8.39706 2.76556 8.62377 2.80053 8.83624C2.8355 9.04872 2.97223 9.24282 3.16233 9.34944C3.23595 9.39085 3.31799 9.42035 3.3803 9.47703C3.44236 9.5337 3.4789 9.63101 3.43394 9.70166C3.37951 9.78732 3.24963 9.78008 3.15418 9.74333C3.05874 9.70658 2.96092 9.6499 2.86074 9.67113C2.75215 9.69416 2.68248 9.80622 2.67327 9.91517C2.66407 10.0241 2.70193 10.131 2.73927 10.234C2.8121 10.4354 2.90913 10.661 3.115 10.7288C3.41107 10.8264 3.71817 10.5301 4.02396 10.5904C4.17699 10.6204 4.29689 10.7345 4.40285 10.8471C4.50881 10.9599 4.61635 11.0811 4.76281 11.1341C4.909 11.1874 5.10594 11.1419 5.16063 10.9982C5.20979 10.8683 5.1267 10.7239 5.14616 10.5865C5.17167 10.4069 5.35493 10.3003 5.4885 10.1755C5.8524 9.83598 5.88553 9.28629 5.89473 8.79277C5.89657 8.6983 5.89789 8.60151 5.86555 8.51249C5.83321 8.42346 5.75932 8.34297 5.66441 8.32952C5.49087 8.30519 5.37675 8.49256 5.26685 8.62714C5.17535 8.73945 4.94896 8.95555 4.78673 8.90198C4.61346 8.84504 4.40417 8.53371 4.27559 8.40638C4.13256 8.26508 3.98373 8.11989 3.79521 8.04691C3.51808 7.94054 3.17811 8.01974 2.97959 8.23713Z" fill="#002768"/>
<path d="M2.05568 8.52548C2.15428 8.53531 2.2492 8.47941 2.3152 8.40669C2.38119 8.33397 2.42484 8.24494 2.47664 8.16161C2.63493 7.90669 2.87498 7.70173 3.15396 7.58372C3.37614 7.48951 3.63407 7.44112 3.7921 7.26074C3.9701 7.05758 3.94381 6.71312 3.73688 6.53843C3.40532 6.25867 2.90549 6.5418 2.63046 6.76773C2.25998 7.07207 1.98127 7.48537 1.84718 7.94215C1.81378 8.05576 1.78907 8.17636 1.81641 8.29153C1.84376 8.40617 1.93631 8.51358 2.05568 8.52548Z" fill="#002768"/>
<path d="M5.2339 29.1016C5.15028 29.1011 5.03959 29.1293 5.03906 29.2116C5.0388 29.2721 5.10243 29.3112 5.15791 29.3376C5.34538 29.4271 5.53285 29.5164 5.72059 29.606C5.98825 29.7336 6.25697 29.8617 6.54041 29.9499C6.63691 29.9799 6.74156 30.0053 6.83832 29.9753C7.32343 29.8247 6.49808 29.4116 6.3603 29.3495C6.00797 29.1909 5.62172 29.1044 5.2339 29.1016Z" fill="#002768"/>
<path d="M7.72501 30.0993C7.62142 30.0975 7.49837 30.1052 7.4442 30.1922C7.40108 30.2613 7.42448 30.356 7.4797 30.4158C7.53518 30.4756 7.61537 30.5069 7.69478 30.5281C7.85569 30.5708 8.02555 30.5799 8.19014 30.554C8.35605 30.5278 8.58191 30.3842 8.42205 30.2116C8.27192 30.0498 7.91906 30.1029 7.72501 30.0993Z" fill="#002768"/>
<path d="M23.5094 13.0577C23.6855 12.8022 23.7618 12.4624 23.6374 12.179C23.5088 11.8858 23.1778 11.6089 23.3116 11.3178C23.4087 11.1066 23.6858 11.0649 23.9059 10.9821C24.4139 10.7909 24.7354 10.2104 24.6231 9.68631C24.3686 8.49713 24.7849 7.20728 25.6223 6.31417C25.7298 6.19952 25.8463 6.0885 25.9136 5.94746C25.9809 5.80641 25.9878 5.62396 25.8831 5.50698C25.7659 5.37577 25.5579 5.37292 25.3864 5.41821C25.215 5.46325 25.0509 5.54606 24.8737 5.55201C24.6965 5.55796 24.4943 5.44772 24.4872 5.27329C24.4801 5.09627 24.6618 4.97929 24.7998 4.86542C24.9379 4.75155 25.0428 4.522 24.8992 4.41511C24.1804 3.87992 23.218 3.64208 22.3635 3.92469C21.8295 4.10119 21.3299 4.44979 20.7672 4.4265C20.4559 4.41382 20.1606 4.28597 19.8512 4.25C19.5417 4.21428 19.1741 4.30927 19.0534 4.59213C18.4379 5.00077 17.805 5.56909 17.1892 5.97774C16.7859 6.24559 16.3531 6.55227 16.2279 7.015C16.1364 7.35273 16.2414 7.73523 16.4927 7.98186C16.6644 8.15034 16.89 8.25231 17.0904 8.38663C17.2907 8.52094 17.4785 8.71038 17.5032 8.94744C17.5671 9.55898 17.8502 10.1454 17.9504 10.752C18.0206 11.1775 18.0574 11.6118 18.0046 12.0393C17.9268 12.6702 17.6499 13.2761 17.2221 13.7523C17.0614 13.9311 16.9836 14.2065 16.9229 14.4373C16.8621 14.6684 16.8645 14.9249 16.9812 15.134C17.0925 15.3333 17.3018 15.4834 17.3488 15.7059C17.3709 15.81 17.3538 15.9174 17.3504 16.0237C17.347 16.1299 17.3601 16.2442 17.4303 16.3247C17.5005 16.4055 17.7766 16.4205 17.8705 16.3679C18.0782 16.2517 18.3191 16.4518 18.4626 16.6397C18.6062 16.8276 18.81 17.0483 19.0374 16.9764C19.2562 16.9073 19.299 16.6301 19.3455 16.4086C19.5009 15.6682 20.0983 15.089 20.7528 14.6933C21.4075 14.2976 22.1392 14.0395 22.8 13.6542C23.0697 13.4971 23.3332 13.3131 23.5094 13.0577Z" fill="#002768"/>
<path d="M21.4984 17.8948C21.6207 17.768 21.6749 17.613 21.8208 17.4975C21.9764 17.3743 22.2333 17.3063 22.3306 17.1246C22.3856 17.0219 22.3716 16.8901 22.3062 16.7936C22.2407 16.6971 22.1295 16.635 22.0132 16.6163C21.6478 16.5576 21.3018 16.8927 20.9379 16.8254C20.7396 16.7887 20.5403 16.6355 20.3578 16.7204C20.2098 16.7892 20.1701 16.9905 20.2298 17.1406C20.2895 17.2905 20.4199 17.4005 20.5456 17.5037C20.7709 17.6893 21.2024 18.2012 21.4984 17.8948Z" fill="#002768"/>
<path d="M62.8526 9.02807C62.8018 8.96595 62.7372 8.91549 62.688 8.85234C62.5768 8.70923 62.5565 8.51849 62.5505 8.33863C62.5444 8.1585 62.5465 7.97165 62.469 7.80835C62.3914 7.64531 62.2045 7.51513 62.0293 7.56741C61.7659 7.64583 61.4469 7.66394 61.1864 7.57647C60.7809 7.4406 60.5432 7.00427 60.1431 6.8539C59.7873 6.72011 59.4087 6.67533 59.0366 6.59511C58.6272 6.5066 58.2 6.41835 57.7937 6.52005C57.3875 6.62176 57.0136 6.97632 57.0441 7.38754C57.0489 7.44992 56.9892 7.50814 56.9355 7.54153C56.8816 7.57466 56.8185 7.58941 56.7567 7.60338C56.4812 7.66601 56.2059 7.7289 55.9303 7.79153C55.8141 7.81793 55.6961 7.84458 55.5767 7.84018C55.4573 7.83553 55.3345 7.79593 55.2546 7.70871C55.0532 7.48848 54.7374 7.3583 54.5023 7.173C54.4398 7.12383 54.3683 7.07181 54.2888 7.07984C54.2242 7.08631 54.1713 7.13134 54.1195 7.17016C53.8805 7.34898 53.5684 7.42999 53.271 7.39014C52.6353 7.30499 51.9848 7.13108 51.37 6.94992C51.1171 6.87539 50.8397 6.88444 50.5923 6.97476C50.5431 6.99288 50.4913 7.01721 50.4682 7.06353C50.4342 7.13134 50.476 7.21079 50.5168 7.27497C50.6078 7.41834 50.7048 7.61373 50.7766 7.76746C50.8076 7.83397 50.7792 7.91575 50.7274 7.96881C50.6759 8.0216 50.6054 8.05188 50.5368 8.08086C50.2136 8.21751 49.8902 8.35415 49.5668 8.4908C49.3951 8.56326 49.2108 8.63754 49.027 8.60441C48.8753 8.57698 48.7446 8.4776 48.65 8.35778C48.5553 8.23796 48.4538 8.10804 48.3899 7.96984C48.3426 7.8671 48.2401 7.79696 48.1312 7.76177C48.0224 7.72631 47.9061 7.72114 47.7915 7.71622C47.6156 7.70871 47.4029 7.71182 47.2435 7.63806C47.1768 7.60726 47.0971 7.66083 47.0666 7.72709C47.0363 7.79334 47.0379 7.86865 47.0237 7.93982C46.9843 8.13573 46.8197 8.29308 46.6285 8.36011C46.4374 8.42739 46.2249 8.41368 46.0298 8.35907C45.8347 8.30447 45.611 8.26668 45.4348 8.16756C45.2005 8.03558 44.8672 8.11839 44.7244 8.34354C44.645 8.4688 44.5958 8.64634 44.448 8.67248C44.2979 8.69913 44.1793 8.52496 44.1922 8.37538C44.2051 8.22579 44.2987 8.09691 44.3655 7.96208C44.6082 7.47269 44.3163 6.92688 44.0379 6.45613C43.9414 6.29309 43.6845 6.25323 43.5417 6.37901C43.4639 6.44759 43.4186 6.55344 43.3245 6.59769C43.2228 6.64557 43.0963 6.60106 43.0177 6.52161C42.9391 6.44216 42.9151 6.3213 42.8562 6.22658C42.7434 6.04516 42.6249 5.85779 42.4437 5.74211C42.2625 5.62643 41.9999 5.60495 41.8434 5.75168C41.7185 5.86892 41.6943 6.06379 41.7467 6.2258C41.799 6.38781 41.9265 6.54904 42.0816 6.62357C42.2147 6.6875 42.262 6.86425 42.2123 7.00142C42.1626 7.13858 42.038 7.23796 41.9044 7.30033C41.7706 7.3627 41.6247 7.39453 41.4848 7.44189C41.1148 7.56663 40.9008 7.92015 40.5571 8.1039C40.4394 8.16679 40.3518 8.28273 40.3247 8.41213C40.2976 8.54152 40.331 8.68179 40.4138 8.78583C40.4785 8.86683 40.5692 8.92455 40.6363 9.004C40.7031 9.08345 40.7423 9.20249 40.6844 9.28842C40.6418 9.35156 40.5577 9.37744 40.4809 9.37123C40.4041 9.36528 40.3279 9.32439 40.2511 9.32103C40.1312 9.31585 40.0197 9.40177 39.9729 9.51072C39.9264 9.61967 39.9364 9.74571 39.9753 9.85725C40.0142 9.96905 40.0768 10.0332 40.1464 10.1295C40.2061 10.2121 40.2671 10.2975 40.2918 10.3958C40.3166 10.4942 40.2971 10.6104 40.2172 10.6745C40.1278 10.7465 39.9929 10.7317 39.8896 10.6807C39.7862 10.63 39.7008 10.5493 39.6014 10.4913C39.502 10.4333 39.3658 10.3513 39.2874 10.4351C39.1205 10.6135 39.1252 10.8935 39.2043 11.1233C39.2835 11.3531 39.4242 11.5583 39.5049 11.7876C39.5856 12.0169 39.6382 12.3329 39.4473 12.4864C39.2998 12.6052 39.0653 12.5493 38.9312 12.416C38.7971 12.2827 38.7384 12.0948 38.6843 11.915C38.5959 11.6215 38.5076 11.3283 38.4192 11.0348C38.3872 10.9287 38.3543 10.8202 38.2883 10.7304C38.2226 10.6406 38.1166 10.5713 38.0043 10.5783C37.8053 10.5907 37.6977 10.82 37.6885 11.0161C37.6612 11.5896 38.1734 12.1261 38.0664 12.6903C38.0443 12.8065 37.9091 12.8751 37.7895 12.8629C37.6701 12.8508 37.5663 12.7786 37.475 12.7017C37.3838 12.6248 37.2968 12.5394 37.1874 12.4905C37.078 12.4416 36.9371 12.4382 36.8487 12.5182C36.7362 12.6199 36.8053 12.7672 36.803 12.9178C36.8011 13.0389 36.6873 13.1303 36.5719 13.1725C36.4564 13.2146 36.33 13.2273 36.2219 13.285C36.1159 13.3417 36.0344 13.4388 35.9224 13.4825C35.7694 13.5425 35.5151 13.49 35.5109 13.328C35.5078 13.2066 35.3984 13.0969 35.2751 13.0917C35.122 13.0855 35.0006 13.2154 34.9214 13.3446C34.8423 13.4737 34.7831 13.6435 34.6496 13.7167C34.6148 13.8094 34.5023 13.8515 34.4021 13.8497C34.3017 13.8479 34.2044 13.8148 34.1042 13.8078C34.014 13.8016 33.9165 13.8202 33.8537 13.8841C33.7908 13.9481 33.7798 14.1158 33.8492 14.1727C33.8734 14.2431 33.8976 14.315 33.8984 14.3896C33.8989 14.4639 33.8718 14.5425 33.8108 14.5863C33.7061 14.6611 33.5455 14.6297 33.4288 14.5751C33.2773 14.5042 33.0961 14.622 33.0199 14.769C32.9436 14.916 32.9339 15.087 32.88 15.2434C32.8264 15.3997 32.6999 15.556 32.5322 15.5544C32.3594 15.5531 32.2387 15.3916 32.1475 15.2472C32.0394 15.0764 31.9313 14.9056 31.8233 14.7348C31.7854 14.675 31.7465 14.6111 31.7473 14.5407C31.7489 14.425 31.8617 14.3358 31.9768 14.314C32.0923 14.292 32.2103 14.3194 32.3263 14.3383C32.4422 14.3572 32.5676 14.3658 32.671 14.3109C32.8521 14.2149 32.8842 13.9553 32.7898 13.7755C32.6952 13.5956 32.5863 13.4452 32.3846 13.4038C31.8614 13.2969 31.2953 13.1655 30.9582 12.7571C30.8394 12.6134 30.7505 12.4367 30.5885 12.342C30.43 12.2496 30.2275 12.2558 30.0537 12.3156C29.8797 12.3756 29.7503 12.5306 29.577 12.5925C28.8287 12.8598 28.3134 13.4664 27.8409 14.0969C27.5911 14.4305 27.5067 14.8523 27.3642 15.2423C27.2217 15.6323 26.9582 16.0448 26.5791 16.2252C26.5102 16.2581 26.44 16.2917 26.3848 16.344C26.3296 16.3963 26.2906 16.4711 26.3014 16.5456C26.3119 16.6204 26.3687 16.6807 26.3929 16.7527C26.4176 16.8256 26.4071 16.9048 26.3966 16.9809C26.3698 17.1735 26.3714 17.3681 26.3653 17.5624C26.3622 17.6636 26.39 17.7684 26.4584 17.844C26.5268 17.9196 26.6395 17.9592 26.7368 17.9268C26.8917 17.8751 26.9514 17.6761 27.1023 17.6139C27.2585 17.5495 27.442 17.6706 27.5041 17.8256C27.5661 17.9807 27.512 18.1551 27.5556 18.3163C27.5935 18.4561 27.6313 18.5958 27.6689 18.7356C27.6984 18.8448 27.7399 18.9682 27.8459 19.0117C27.9458 19.0529 28.0583 19.0037 28.1548 18.9553C28.3023 18.8815 28.453 18.8054 28.5647 18.6856C28.6765 18.5658 28.7541 18.3919 28.7351 18.2304C28.6336 17.3601 28.352 16.3163 28.9055 15.6303C29.0207 15.4874 29.1456 15.352 29.2786 15.225C29.3706 15.1372 29.4682 15.0524 29.5836 14.9975C29.699 14.9426 29.8352 14.9201 29.9565 14.9605C30.0777 15.0011 30.1778 15.1137 30.1786 15.2397C30.1794 15.3583 30.0995 15.4607 30.0235 15.5529C29.8949 15.7087 29.8037 15.8782 29.6593 16.02C29.4721 16.204 29.4364 16.5184 29.5773 16.7389C29.7182 16.9592 30.0119 17.0076 30.2757 16.9889C30.5273 16.9711 30.7818 16.9933 31.0263 17.0544C31.1092 17.0751 31.2067 17.1189 31.2117 17.2027C31.2167 17.2863 31.1239 17.3417 31.0413 17.3614C30.8615 17.4041 30.664 17.3753 30.4965 17.4527C30.2807 17.5523 30.1539 17.8445 30.2494 18.0596C30.3012 18.176 30.1786 18.2995 30.0551 18.3368C29.9317 18.374 29.7924 18.3701 29.6851 18.4408C29.4892 18.5697 29.5108 18.8538 29.428 19.0707C29.3162 19.3634 28.9949 19.5373 28.6791 19.5702C28.3633 19.6031 28.0299 19.5645 27.7207 19.4933C27.4738 19.4364 27.2722 19.2237 27.2314 18.9773C27.2212 18.916 27.2201 18.8525 27.1983 18.7941C27.1767 18.7358 27.1273 18.6812 27.0642 18.6773C26.9861 18.6724 26.9225 18.749 26.9141 18.8256C26.9056 18.9022 26.9367 18.9773 26.9672 19.0482C27.019 19.1691 27.0623 19.2508 27.0568 19.3818C27.0513 19.5146 26.963 19.632 26.8552 19.712C26.7474 19.792 26.6204 19.8414 26.4986 19.8989C26.0259 20.1222 25.5586 20.4493 25.3667 20.9299C25.2991 21.0992 25.1066 21.1791 24.9328 21.2415C24.7438 21.3096 24.555 21.3776 24.366 21.4457C24.1995 21.5055 24.0092 21.5919 23.9745 21.7627C23.9429 21.9177 24.0594 22.0632 24.1832 22.1639C24.3071 22.2643 24.4527 22.3538 24.5166 22.4985C24.5684 22.6155 24.555 22.7578 24.4827 22.8637C24.4101 22.9695 24.2795 23.0293 24.1501 23.0303C23.8922 23.0324 23.6258 23.036 23.3905 23.1398C23.0731 23.2798 22.933 23.5917 22.836 23.9206C22.7176 24.3222 22.8657 24.787 23.1959 25.0502C23.5262 25.3134 24.0189 25.359 24.3933 25.1615C25.1069 24.785 25.225 23.7503 25.922 23.345C26.2785 23.1377 26.7166 23.1388 27.1304 23.1455C27.8256 23.1569 28.2661 23.9708 28.453 24.63C28.4856 24.7446 28.5219 24.8779 28.6326 24.9255C28.7196 24.963 28.8251 24.9294 28.8963 24.8673C28.9676 24.8052 29.012 24.7192 29.0546 24.6356C29.1245 24.4987 29.1963 24.3479 29.1624 24.1983C29.114 23.9843 28.8803 23.8756 28.6883 23.7643C28.4335 23.6168 28.2114 23.4146 28.042 23.176C27.9784 23.0862 27.9206 22.969 27.9726 22.8722C28.0178 22.7881 28.1322 22.7599 28.2261 22.7827C28.32 22.8057 28.3983 22.8675 28.4732 22.9278C29.1216 23.4496 29.6909 24.0986 29.8857 24.9007C29.9086 24.9951 29.9286 25.0927 29.9809 25.1752C30.033 25.2578 30.1266 25.3233 30.2246 25.3119C30.3556 25.2969 30.436 25.1522 30.4329 25.0225C30.4297 24.8929 30.3682 24.7726 30.3222 24.6509C30.2762 24.5293 30.2462 24.3893 30.3043 24.2728C30.4137 24.1864 30.5807 24.2079 30.6969 24.2852C30.8131 24.3626 30.8899 24.4837 30.9635 24.6012C31.1407 24.8844 31.3182 25.1677 31.4954 25.4509C31.5958 25.6113 31.7478 25.7151 31.9387 25.7324C32.1293 25.7495 32.3189 25.7014 32.5069 25.6654C32.6949 25.6294 32.8942 25.6059 33.0741 25.6703C33.3123 25.7555 33.4803 26.0016 33.4706 26.2508C33.4616 26.4791 33.3449 26.6944 33.1358 26.7935C32.9268 26.8924 32.6847 26.8887 32.4525 26.883C32.0807 26.874 31.7092 26.8649 31.3374 26.8559C31.0844 26.8497 30.8276 26.8427 30.5872 26.7648C30.3514 26.6882 30.105 26.543 29.8726 26.6294C29.7277 26.6833 29.6312 26.815 29.5384 26.9369C29.4456 27.0588 29.3365 27.1851 29.1853 27.2177C29.0341 27.2503 28.8463 27.1294 28.8776 26.9804C28.713 26.714 28.3315 26.5148 28.0171 26.478C27.9114 26.4656 27.7951 26.4659 27.7134 26.3988C27.5774 26.287 27.6245 26.0777 27.6242 25.9032C27.624 25.601 27.4239 25.3077 27.1396 25.1934C26.7366 25.0311 26.262 25.1167 25.8479 25.2495C25.4337 25.3823 25.0357 25.5753 24.605 25.639C24.4246 25.6657 24.2395 25.6693 24.0644 25.7197C23.8893 25.7702 23.7186 25.8792 23.6553 26.0476C23.3445 26.8719 22.5278 27.469 21.9969 28.1757C21.6446 28.6447 21.2875 29.1224 21.0877 29.6716C20.986 29.9514 20.9996 30.2513 20.9752 30.5474C20.9594 30.7412 20.9434 30.935 20.9276 31.1289C20.9179 31.2484 20.9079 31.3685 20.9189 31.4878C20.9378 31.6938 21.0199 31.8939 21.1519 32.0551C21.5381 32.161 21.7448 32.6413 21.8694 33.0166C21.994 33.3918 22.0963 33.8061 22.4074 34.0554C22.675 34.2699 23.0518 34.3139 23.391 34.2505C23.7305 34.1871 24.0423 34.0287 24.3491 33.8724C25.0488 33.5155 25.9533 33.8869 26.6369 34.2728C26.7608 34.3426 26.8954 34.3957 27.0061 34.4842C27.1673 34.6133 27.3434 34.7722 27.339 34.9769C27.3355 35.139 27.2177 35.2743 27.1623 35.4267C27.0681 35.6863 27.1796 36.0033 27.4165 36.1501C28.1354 36.5947 28.3852 37.6659 28.0962 38.4516C27.9905 38.7393 27.8154 39.0015 27.7391 39.2981C27.6629 39.5947 27.7176 39.9588 27.9797 40.1231C28.3257 40.3398 28.3973 40.7932 28.4711 41.1902C28.5319 41.5165 28.509 41.8524 28.5492 42.1816C28.5895 42.5111 28.7086 42.8542 28.9802 43.0509C29.3775 43.3387 28.9818 44.0884 29.2841 44.472C29.4708 44.7088 29.8071 44.7732 30.1116 44.7693C30.8107 44.7603 31.502 44.4704 31.9931 43.9805C32.2432 43.731 32.5419 43.4968 32.6476 43.1622C32.7157 42.9466 32.7286 42.7072 32.8592 42.5217C32.991 42.3346 33.2168 42.2386 33.3996 42.0988C33.5823 41.9591 33.7324 41.7137 33.6273 41.5108C33.4348 41.14 33.5521 40.6381 33.8003 40.3012C34.0012 40.0284 34.308 39.853 34.5554 39.6203C34.8028 39.3876 34.9993 39.0388 34.8828 38.722C34.6364 38.0525 34.6227 37.2989 34.7905 36.6061C34.9582 35.9133 35.4197 35.2681 36.0844 34.9876C36.5327 34.7984 36.8658 34.4317 37.1196 34.0217C37.373 33.6115 37.4298 33.044 37.1232 32.6705C36.9565 32.4671 36.6444 32.3732 36.3833 32.3258C36.1222 32.2785 35.8491 32.2578 35.6148 32.1351C35.4076 32.0267 35.2443 31.8401 35.1657 31.6224C35.1094 31.4666 34.9275 31.4029 34.8099 31.2847C34.6814 31.1553 34.5922 30.994 34.5047 30.8351C34.354 30.5616 34.2031 30.2878 34.0524 30.0142C33.7377 29.4428 33.47 28.8108 33.1579 28.2379C33.1088 28.1478 33.0585 28.0536 33.0551 27.9514C33.0517 27.8491 33.1103 27.7373 33.2116 27.714C33.3315 27.6866 33.4385 27.7875 33.5174 27.8805C34.1778 28.6587 34.7253 29.5298 35.1378 30.4591C35.2838 30.7878 35.3516 31.1563 35.5659 31.4462C35.7802 31.736 36.1191 31.9614 36.483 31.9477C36.7672 31.9371 37.0238 31.7867 37.2665 31.6408C37.6357 31.4187 38.0051 31.1964 38.3743 30.9744C38.6093 30.8331 38.8475 30.6889 39.0332 30.4889C39.2188 30.2888 39.3479 30.0212 39.3185 29.7516C39.289 29.4822 39.0681 29.2262 38.7931 29.2122C38.4032 29.2164 37.9941 29.1392 37.6302 29.0016C37.423 28.9231 37.204 28.7997 37.1453 28.589C37.0749 28.3357 36.9042 28.1307 36.6823 27.985C36.6176 27.9426 36.5479 27.9058 36.4943 27.8504C36.4407 27.7953 36.4049 27.7151 36.4272 27.6418C36.4457 27.5821 36.4998 27.5378 36.5598 27.5171C36.6197 27.4964 36.6847 27.4959 36.748 27.5003C36.8629 27.508 36.9789 27.5311 37.0793 27.5867C37.2957 27.7063 37.4188 27.9578 37.616 28.1059C37.8132 28.2539 38.0595 28.3538 38.3064 28.3297C38.4369 28.317 38.5659 28.2705 38.6956 28.2888C38.852 28.3108 38.9772 28.4219 39.1039 28.5148C39.2306 28.6077 39.3897 28.69 39.5406 28.6434C39.9682 28.5119 40.4525 28.7109 40.8992 28.7443C41.0217 28.7536 41.1485 28.764 41.2558 28.8225C41.363 28.881 41.4459 29.0018 41.419 29.1196C41.3678 29.3427 41.4419 29.587 41.6344 29.7151C41.8268 29.8432 42.1019 29.8362 42.2875 29.6985C42.4234 29.5973 42.6156 29.735 42.6814 29.89C42.7471 30.0448 42.7298 30.2195 42.7282 30.3874C42.725 30.7342 42.7942 31.0818 42.9304 31.4017C43.1276 31.8646 43.3482 32.3328 43.635 32.7479C43.7226 32.8747 43.832 33.0127 43.9871 33.0248C44.153 33.038 44.2947 32.8926 44.3444 32.736C44.3941 32.5794 44.3784 32.4115 44.3857 32.2477C44.4083 31.7427 44.6692 31.2528 45.0783 30.9475C45.3504 30.744 45.5731 30.4708 45.85 30.2736C45.9725 30.1863 46.1035 30.0872 46.1411 29.9431C46.1726 29.8227 46.1353 29.6809 46.2113 29.5813C46.2633 29.5129 46.3575 29.4863 46.4442 29.4925C46.5307 29.499 46.6122 29.5334 46.6922 29.5673C46.9588 29.6809 47.2335 29.8 47.4315 30.0093C47.5541 30.1387 47.6682 30.2803 47.7074 30.4532C47.7465 30.6258 47.7552 30.8069 47.8244 30.9705C47.8935 31.1338 48.0471 31.2816 48.2267 31.272C48.3145 31.2673 48.3978 31.2259 48.4856 31.227C48.6111 31.2288 48.7207 31.3194 48.7799 31.4281C48.839 31.5367 48.8569 31.662 48.874 31.7842C48.9579 32.3856 48.8632 33.0331 49.1214 33.5844C49.1998 33.7518 49.3023 33.9073 49.4041 34.0621C49.5592 34.2976 49.7143 34.5334 49.8697 34.7689C49.9554 34.899 50.0827 34.9542 50.232 35.0033C50.323 35.0334 50.4369 35.0455 50.5023 34.9764C50.5484 34.928 50.5536 34.8525 50.5331 34.7893C50.5126 34.7262 50.4705 34.6723 50.429 34.6201C50.2859 34.4392 50.1868 34.2383 50.0593 34.0466C49.9328 33.8564 49.8053 33.6669 49.677 33.478C49.5663 33.3149 49.4532 33.1498 49.3914 32.9635C49.3294 32.7772 49.3241 32.5634 49.4233 32.3934C49.4819 32.293 49.535 32.2091 49.6517 32.1954C49.7685 32.1817 49.891 32.2371 49.9568 32.3331C49.9649 32.4539 50.1135 32.5212 50.2305 32.559C50.3475 32.5965 50.4808 32.6281 50.5465 32.7303C50.6091 32.8279 50.5888 32.9622 50.6569 33.0562C50.709 33.1281 50.8113 33.1602 50.8959 33.1317C50.9809 33.1032 51.0416 33.0163 51.0382 32.928C51.034 32.8152 51.1494 32.661 51.2436 32.5965C51.3377 32.5321 51.4436 32.4811 51.5202 32.397C51.6642 32.2381 51.66 31.9702 51.511 31.8157C51.1142 31.4048 50.7269 30.9516 50.6036 30.3978C50.581 30.2966 50.5649 30.191 50.5886 30.0901C50.612 29.9891 50.6827 29.8931 50.7842 29.8654C51.0382 29.7958 51.3072 29.7849 51.5696 29.7598C51.7347 29.7441 51.9017 29.7277 52.0594 29.6775C52.2175 29.6271 52.3681 29.5393 52.4633 29.4053C52.6631 29.1245 52.9923 28.9687 53.2815 28.7777C53.417 28.6884 53.5563 28.5598 53.5461 28.3999C53.5345 28.2203 53.5913 28.0575 53.6962 27.9102C53.8011 27.763 53.9331 27.6333 54.017 27.4734C54.1009 27.3134 54.1274 27.1059 54.0183 26.9615C53.9223 26.8344 53.8263 26.6931 53.789 26.5391C53.7593 26.4169 53.764 26.2896 53.7477 26.1651C53.7135 25.903 53.5834 25.654 53.3865 25.4744C53.2221 25.3246 53.1958 25.0241 53.3426 24.8574C53.4243 24.7645 53.5542 24.7001 53.5797 24.5797C53.6068 24.4519 53.4982 24.3357 53.3872 24.264C53.2763 24.1923 53.1461 24.1318 53.0875 24.0145C53.0139 23.8675 53.0925 23.6768 53.2332 23.5896C53.3741 23.5024 53.5576 23.505 53.7149 23.5585C53.9825 23.6499 54.1829 23.8696 54.3462 24.0973C54.5465 24.3763 54.6396 24.7161 54.7747 25.0308C54.8139 25.1219 54.8563 25.2172 54.937 25.2759C55.079 25.3792 55.2975 25.3228 55.4068 25.1864C55.5162 25.05 55.533 24.86 55.4991 24.6895C55.4573 24.4796 55.2746 24.2759 55.1418 24.1067C55.0456 23.984 54.9467 23.8564 54.9086 23.7058C54.8444 23.4522 54.9635 23.1921 55.0795 22.9571C55.201 22.711 55.3261 22.4597 55.5252 22.2689C55.6627 22.137 55.8302 22.0391 55.9748 21.9144C56.1191 21.7896 56.2451 21.625 56.2548 21.4361C56.2987 20.6005 56.6366 19.8163 56.4552 18.9988C56.3723 18.6258 56.1943 18.2811 55.9879 17.9581C55.8383 17.7239 55.6485 17.4972 55.3861 17.3978C55.3408 17.3808 55.294 17.3676 55.2493 17.3492C55.0503 17.2679 54.9015 17.0785 54.8712 16.8686C54.841 16.6587 54.9309 16.4362 55.0992 16.3036C55.3019 16.1442 55.3319 15.8748 55.2885 15.6227C55.2649 15.4851 55.2094 15.3458 55.242 15.21C55.2693 15.0961 55.3564 15.0034 55.4576 14.9421C55.5588 14.8808 55.674 14.8469 55.7878 14.8135C56.2656 14.6735 56.7849 14.7705 57.2668 14.6463C57.4483 14.5995 57.6363 14.5366 57.7598 14.3979C57.8834 14.2591 57.9121 14.0226 57.7732 13.8986C57.7561 13.6714 57.7388 13.4271 57.7217 13.2001C57.7141 13.1 57.707 12.9978 57.7333 12.901C57.7596 12.8042 57.8266 12.7121 57.9242 12.6826C58.1542 12.6127 58.384 12.9108 58.6096 12.828C58.6951 12.8754 58.7771 12.7721 58.8037 12.6789C58.8302 12.586 58.8457 12.4716 58.9346 12.4307C59.0251 12.3891 59.1352 12.4626 59.1681 12.5555C59.201 12.6484 59.1789 12.7504 59.1568 12.8461C59.1084 13.055 59.0603 13.2638 59.0122 13.4727C58.8739 14.071 58.7356 14.6693 58.5975 15.2677C58.5205 15.601 58.6036 15.9646 58.8029 16.2446C59.1744 16.7664 59.4439 17.3689 59.745 17.933C59.7831 18.0042 59.8275 18.0813 59.9043 18.109C60.0481 18.1608 60.1878 17.9954 60.1912 17.8445C60.1946 17.6937 60.1194 17.5523 60.0963 17.4033C60.0405 17.0415 60.2903 16.711 60.3984 16.3611C60.5572 15.8464 60.3984 15.2765 60.0978 14.8275C59.9125 14.5506 59.6269 14.3438 59.5835 14.0151C59.5404 13.6864 59.7042 13.3192 60.0166 13.195C60.1425 13.1448 60.2806 13.1362 60.4152 13.1189C60.5498 13.1018 60.6886 13.0733 60.7965 12.9923C60.9043 12.9111 60.971 12.7636 60.9198 12.6398C60.8283 12.4194 60.9445 12.1722 61.0791 11.9745C61.2137 11.7768 61.3778 11.5752 61.3802 11.3371C61.3815 11.2139 61.3433 11.0723 61.427 10.9807C61.468 10.9357 61.5303 10.9152 61.5781 10.8769C61.7109 10.7713 61.6752 10.5265 61.5177 10.4621C61.332 10.386 61.1582 10.24 61.1017 10.0503C61.0465 9.86476 61.0733 9.66652 61.1007 9.47501C61.1259 9.29851 61.153 9.11606 61.249 8.96466C61.3449 8.81326 61.529 8.7012 61.7049 8.74365C61.88 8.78609 62.0643 8.80886 62.1895 8.93671C62.2665 9.01539 62.3209 9.11192 62.3885 9.19861C62.4561 9.28531 62.5429 9.36502 62.6512 9.38779C62.7595 9.41057 62.8899 9.35622 62.9183 9.25063C62.9401 9.1717 62.9031 9.09018 62.8526 9.02807ZM34.4529 23.6124C34.3832 23.7971 34.1571 23.8805 33.9575 23.8701C33.7577 23.8598 33.5689 23.7803 33.3733 23.7394C32.9258 23.6457 32.437 23.7666 32.0875 24.0572C31.9377 24.1817 31.7036 24.4123 31.5001 24.2412C31.3568 24.1209 31.3629 23.8699 31.4199 23.713C31.5866 23.2539 31.8022 22.8637 32.1711 22.5334C32.2561 22.4576 32.3407 22.3815 32.4257 22.3057C32.4751 22.2614 32.5256 22.2167 32.5861 22.1892C32.7906 22.0968 33.0223 22.2288 33.2068 22.3551C33.4869 22.5469 33.7669 22.7389 34.0472 22.9307C34.166 23.0119 34.287 23.0955 34.3724 23.2102C34.4579 23.3251 34.5034 23.4791 34.4529 23.6124ZM37.3199 25.0381C37.0596 25.2071 36.7228 25.0202 36.5813 24.7878C36.4312 24.5412 36.4315 24.2185 36.3854 23.9415C36.2897 23.3675 35.6269 22.7676 35.9082 22.1732C36.0147 21.9483 36.2818 21.8005 36.5285 21.8523C36.7751 21.9038 36.9623 22.1672 36.9047 22.4089C36.8614 22.5906 36.7052 22.7278 36.646 22.9051C36.5587 23.1675 36.7028 23.4514 36.8858 23.6608C37.0688 23.8701 37.297 24.0469 37.4282 24.2909C37.5597 24.5352 37.5542 24.8859 37.3199 25.0381ZM38.9385 22.9245C38.8652 23.049 38.7405 23.1965 38.5817 23.205C38.3698 23.2161 38.1992 22.9835 38.2394 22.7865C38.2496 22.7368 38.2717 22.6905 38.2935 22.6447C38.3204 22.5888 38.3472 22.5329 38.374 22.4773C38.394 22.4353 38.4142 22.3934 38.4342 22.3518C38.4808 22.2547 38.5355 22.1496 38.6364 22.109C39.1236 21.9115 39.065 22.7094 38.9385 22.9245Z" fill="#002768"/>
<path d="M23.9956 19.1325C24.136 19.3188 24.2672 19.5383 24.2351 19.7681C24.1902 20.0887 23.2113 20.8157 23.9751 20.8959C24.5109 20.9521 25.3894 20.5546 25.1325 19.9019C25.0047 19.5771 24.6556 19.3944 24.5257 19.0691C24.446 18.8698 24.4636 18.6462 24.4163 18.4371C24.3689 18.228 24.2117 18.009 23.9943 18.0158C23.7587 18.023 23.6151 18.302 23.6551 18.5305C23.6951 18.7593 23.8552 18.9462 23.9956 19.1325Z" fill="#002768"/>
<path d="M22.7649 20.3329C22.7757 20.4036 22.7925 20.475 22.8301 20.5361C22.868 20.5972 22.9298 20.6471 23.0018 20.6559C23.1259 20.6714 23.2293 20.5684 23.3103 20.4747C23.4249 20.3422 23.5414 20.2064 23.6047 20.0438C23.7441 19.6872 23.4977 19.3107 23.0944 19.5071C22.9503 19.5772 22.8457 19.7134 22.7944 19.8632C22.7428 20.0133 22.7407 20.1764 22.7649 20.3329Z" fill="#002768"/>
<path d="M35.2381 12.1443C35.3346 12.1888 35.4616 12.2183 35.5376 12.1445C35.6911 11.9957 35.4676 11.7721 35.4001 11.6396C35.332 11.5056 35.3178 11.3795 35.2796 11.2382C35.2052 10.9631 34.9002 10.5227 34.5668 10.7983C34.4827 10.8676 34.4409 10.9779 34.4377 11.0858C34.4346 11.1937 34.4664 11.2998 34.5092 11.3995C34.6491 11.7237 34.9139 11.9944 35.2381 12.1443Z" fill="#002768"/>
<path d="M35.336 9.94559C35.4954 9.53281 35.6665 9.30299 36.0375 9.03074C36.3423 8.80714 36.6709 8.5341 36.6991 8.16092C36.7117 7.99166 36.6065 7.78333 36.4348 7.79757C36.3439 7.80507 36.2718 7.87365 36.2079 7.93783C35.7841 8.36563 35.3605 8.79368 34.9366 9.22147C34.7339 9.42618 34.5149 9.68498 34.583 9.96267C34.6903 10.3985 35.2033 10.2895 35.336 9.94559Z" fill="#002768"/>
<path d="M36.9465 38.797C36.8024 38.8335 36.7161 38.9771 36.6641 39.1143C36.612 39.2514 36.5739 39.4018 36.4671 39.5038C36.297 39.6665 36.0054 39.6552 35.8424 39.8247C35.6818 39.9919 35.7173 40.2343 35.6762 40.4424C35.6402 40.6254 35.5598 40.753 35.4304 40.8842C35.1798 41.1375 35.1217 41.4753 35.4212 41.7496C35.6376 41.9478 35.9944 41.9766 36.2405 41.8159C36.5084 41.6409 36.6107 41.3042 36.6541 40.9906C36.6972 40.6769 36.704 40.3474 36.8555 40.0682C36.9441 39.9046 37.0771 39.769 37.1844 39.6169C37.2917 39.4644 37.3758 39.2812 37.3451 39.0982C37.314 38.915 37.1289 38.7507 36.9465 38.797Z" fill="#002768"/>
</g>
</g>
</svg>
